<svg xmlns="http://www.w3.org/2000/svg" data-name="Layer 1" viewBox="0 0 2500 2500"><circle cx="2234.8" cy="1422.9" r="42.9" fill="#e0ecfa"/><circle cx="1407.8" cy="785.2" r="86.3" fill="#e0ecfa"/><circle cx="2340.2" cy="1558" r="15.9" fill="#e0ecfa"/><circle cx="144.8" cy="1302.2" r="15.9" fill="#e0ecfa"/><circle cx="1224.8" cy="613.8" r="15.9" fill="#e0ecfa"/><path fill="#e0ecfa" d="M144.1,1885.6H2297.8c56.9-49.6,74.3-149.7,42.4-218.2s-111.6-111-186.2-99.4c-37.5,5.8-72.5,23.7-110.2,28.5s-82.8-9.3-94.6-45.4c-15-45.5,29.7-86.2,66.6-116.8,109.6-90.9,192.6-218.1,214.3-358.8s-23.5-294.1-129.9-388.7-274.6-119.5-396.6-46c-80.2,48.3-133.7,130.8-174.8,214.9s-72.9,173.4-124.1,251.9c-30.9,47.4-71.1,92.1-124.5,110.9s-121.7,3.8-149.7-45.4c-37.9-66.5,12.1-151.2-3.6-226.1-16.2-77.2-101.5-124.5-180.2-121.7-101.7,3.7-196.6,80-221.9,178.6-15.8,61.4-6.6,126.1,3.8,188.6s21.6,126.5,9.7,188.7-52.5,123.4-113.6,139.9c-69.9,18.9-140-23.4-200.6-63s-133.1-79.7-201.6-56.4c-47.9,16.2-81.5,61.2-97,109.3s-15.7,99.7-15.8,150.2C109.6,1732.6,144.2,1814.2,144.1,1885.6Z"/><path fill="#878f6f" d="M1934.6,1667.6l-9.5,1.5-105.8-306.8C1907,1436.4,1953.8,1554.4,1934.6,1667.6Z"/><path fill="#878f6f" d="M2041.1,1679.7c-20,3.5-39.4,6.5-59,7.6l30.1-502.6C2076.7,1340.2,2087,1517.6,2041.1,1679.7Z"/><path fill="#b4be94" d="M2012.2,1184.7l-30.1,502.6a243,243,0,0,1-45.8-1.4C1892.7,1517.8,1920.8,1332.3,2012.2,1184.7Z"/><path fill="#b4be94" d="M1925.1,1669.1c-13.5,2.1-27.3,4.6-40.5,6.6-60.8-90.9-84.7-205.8-65.3-313.4Z"/><path fill="#878f6f" d="M2045.9,1667.6l9.6,1.5,105.8-306.8C2073.6,1436.4,2026.7,1554.4,2045.9,1667.6Z"/><path fill="#b4be94" d="M2055.5,1669.1c13.4,2.1,27.3,4.6,40.4,6.6,60.9-90.9,84.8-205.8,65.4-313.4Z"/><polygon fill="#f9b760" points="2115.5 1872.9 1870.6 1872.9 1853.5 1675.1 2132.6 1675.1 2115.5 1872.9"/><rect width="302.5" height="40.93" x="1841.8" y="1658.6" fill="#f9b760"/><polygon fill="#eb9c51" points="1855.6 1699.7 1858.3 1731.2 2124.9 1764.4 2130.6 1697.7 1855.6 1699.7"/><circle cx="1898.1" cy="1774" r="12.3" fill="#eb9c51"/><circle cx="1882.9" cy="1813.6" r="4.5" fill="#eb9c51"/><path fill="#373f6e" d="M430.3,1345.3s-4.2,20.3-12.4,51.9l-80.7,184.5-107-60.8c6.6-11.9,13-22.7,18.7-31.8a270.7,270.7,0,0,1,56.3-64.4C362.1,1377.8,430.3,1345.3,430.3,1345.3Z"/><path fill="#fdbbb5" d="M700.8,1688.7,667,1704.5l1.1,5.9,18.9,98.9.2,1.1c7.2-1.2,12.6-8.1,19.1-9.6l7.8,1.9c178.4-40.8,116.9-192.7,68.1-281.8l-98.8,56.2c13.8,33.4,23.9,69.4,24.7,108.1l-7.2,3.5Z"/><path fill="#373f6e" d="M658.3,1591.6C609.1,1483.9,553,1340,553,1340s84.6,29.7,153.4,82.3c28.8,24.9,69.7,71.6,86.8,100.8Z"/><path fill="#fdbbb5" d="M304.3,1685.2l41.2,19.3-20.3,105.9c-202.9-33.4-145.5-197.1-95-289.5l107,60.8,80.7-184.5C399.1,1470,307,1564.5,304.3,1685.2Z"/><path fill="#98a1ec" d="M307.9,1869.2S284.3,1342,482,1334.5c279.8-10.6,282.2,540.6,282.2,540.6Z"/><path fill="#f8a19a" d="M562,1343.7h0c-40.2,24.8-91.7,29.4-132.5,5.5l-1.9-2.5V1239.6H562Z"/><path fill="#fdd2c9" d="M284.2,1207.1s-78-20.9-64.2-74.5,62.1-25.2,62.1-25.2Z"/><path fill="#fdd2c9" d="M685.4,1258.8s72.9,9.4,82.1-54.8-46.2-33.7-46.2-33.7Z"/><path fill="#f8a19a" d="M705.4,1217.6a109.2,109.2,0,0,0,11.6-32.7,55.1,55.1,0,0,1,41.4,8,6.7,6.7,0,0,1,3.1,3.1,2.8,2.8,0,0,1-1.3,3.7,6,6,0,0,1-2.3-.1l-17.7-4.6c2.4,6.3,4.3,14,3.5,20.7s-4.4,15.6-11.5,18.1c-4.8,1.6-10,.4-14.9-.9s-8.1-2.5-10.9-5.5S703.5,1221.2,705.4,1217.6Z"/><path fill="#f8a19a" d="M275.7,1170a107.2,107.2,0,0,1,5.3-34.2,55.4,55.4,0,0,0-40.3-12.5,7.4,7.4,0,0,0-4.2,1.2c-1.2,1-1.7,2.8-.6,3.9a3.8,3.8,0,0,0,2.1,1l17.7,4.3c-5,4.5-10.3,10.3-12.8,16.6s-3.5,15.8,1.6,21.4c3.4,3.7,8.6,5.1,13.5,6.2s8.3,1.6,12.3.4S275.7,1174.2,275.7,1170Z"/><path fill="#fdd2c9" d="M270,1119.4s62.5-50.6,51.5-133.9c0,0,53.9-8.8,89.6-82.2,0,0,29.3,92.6,113.6,109.5s146.5-85.9,146.5-85.9,16.3,203.4,44.1,236.1l8.9,10.9s-17.8,175.6-252.9,146.8C243.8,1292.9,270,1119.4,270,1119.4Z"/><circle cx="400.4" cy="1150.7" r="18" fill="#091a05"/><circle cx="592.9" cy="1170.6" r="18" fill="#091a05"/><path fill="#f8a19a" d="M524.5,1174c-4.6-13.2-17.8-22.7-31.9-21.9s-26.4,11.4-29.5,25.1c-1.3,5.8,8.4,7.5,9.6,2,2.2-9.6,10.2-17.6,20.2-18.2s19,6.5,22.2,15.7C517,1182.1,526.4,1179.6,524.5,1174Z"/><ellipse cx="385.4" cy="1049.4" fill="#532b2c" rx="36.9" ry="12.9" transform="rotate(-12.9 383.499 1045.37)"/><ellipse cx="621.1" cy="1072.8" fill="#532b2c" rx="12.9" ry="36.9" transform="rotate(-62 621.066 1072.763)"/><circle cx="351" cy="1204.8" r="25.8" fill="#f8a19a"/><circle cx="631.9" cy="1232.4" r="25.8" fill="#f8a19a"/><path fill="#532b2c" d="M265,1099.9c10.1,12.6,5.5,13.3,5.5,13.3s57-18.6,63.6-117.1c0,0,68.4,5.6,90.3-63.2,0,0,49.4,149.7,198.5,73.4,0,0-8,83.2,66.1,66.5,0,0,7.3,91.9,28,112.1,37.8-25.3,29.4-114.9,29.4-114.9s154.8-94.3-37.1-194.7c0,0,54.9-101.7-103.2-110-145.1-7.6-212.5,76.2-212.5,76.2s-76.3-37.6-122.4-24.8c-53.3,14.9,2.4,76.9,2.4,76.9s-45.2-24.4-51.8,4.7,36.3,53.4,36.3,53.4S231.1,1057.5,265,1099.9Z"/><path fill="#fff" d="M540.4,1210.1a55.5,55.5,0,0,1,.4,7.1c-22,12.2-73.7,2.7-94.4-1.7a51.8,51.8,0,0,1,2-9.4Z"/><path fill="#091a05" d="M540.8,1217.2c.1,8.6-1.5,23.2-11.6,33.6-30.8-18-58.7-10.5-75.3-2.5-6.8-8.3-8.2-18.6-8-27,.1-2.1.3-4,.5-5.8C467.1,1219.9,518.8,1229.4,540.8,1217.2Z"/><path fill="#ef6e58" d="M529.2,1250.8c-6.2,6.4-15.7,11.3-30,12.1-2.9.2-5.9.2-9.2.1-18.6-1-29.7-6.9-36.1-14.7C470.5,1240.3,498.4,1232.8,529.2,1250.8Z"/><path fill="#fdbbb5" d="M311.6,1688.7l75.2,49.9L337.2,1811l-32.5-4.7s-7.6-29.7-7.2-30.3-5.5-45.3-3.1-50.4S311.6,1688.7,311.6,1688.7Z"/><path fill="#fdd2c9" d="M394,1721.3c35.6-3,64.4,19.5,74.4,28.7,6.4,5.9,10.9,15.8,13.9,25.3a18.1,18.1,0,0,1-17.2,23.7h-7.6l.9,9.1s2.7,17.9-12.2,20.7-17.3-16.7-17.3-16.7-.7,17.6-13.4,16.5-13.9-17.8-13.9-17.8-1.9,20.8-17.1,19.9-16.4-20.1-16.4-20.1c-2.8,16.4-12.1,20-12.1,20-20.7,2.3-21.6-19.1-21.6-19.1S330.1,1726.7,394,1721.3Z"/><polygon fill="#fdbbb5" points="764 1663.7 625.6 1738.6 675.2 1811 771 1782.1 764 1663.7"/><path fill="#fdd2c9" d="M618.4,1721.3c-35.5-3-64.4,19.5-74.3,28.7-6.4,5.9-10.9,15.8-14,25.3a18.1,18.1,0,0,0,17.3,23.7H555l-1,9.1s-2.7,17.9,12.3,20.7,17.2-16.7,17.2-16.7.7,17.6,13.5,16.5,13.8-17.8,13.8-17.8,2,20.8,17.1,19.9,16.4-20.1,16.4-20.1c2.9,16.4,12.1,20,12.1,20,20.8,2.3,21.6-19.1,21.6-19.1S682.4,1726.7,618.4,1721.3Z"/><circle cx="498.1" cy="1392.4" r="6.5" fill="#373f6e"/><circle cx="498.1" cy="1424.6" r="6.5" fill="#373f6e"/><path fill="#091a05" d="M483.9,1345.3l14.2,19.3,11.9-19.3,4.4,17.1s-13.4,5.3-34.6,2.2Z"/><path fill="#373f6e" d="M410.3,1355.6c-2.4-1.6,14.3-34.4,14.3-34.4l59.3,24.1-5.8,32.4S443.8,1377.2,410.3,1355.6Z"/><path fill="#373f6e" d="M510,1345.3l2.9,32.4s45-3.9,67.1-25.1l-18-25.4Z"/><rect width="2393.7" height="32.84" x="53.2" y="1869.2" fill="#f9b760"/><polygon fill="#eb9632" points="905.9 1514.2 426.4 1514.2 380.5 1830.8 859.9 1830.8 905.9 1514.2"/><polygon fill="#f9b760" points="923.3 1514.2 443.9 1514.2 397.9 1830.8 877.3 1830.8 923.3 1514.2"/><rect width="593.3" height="38.44" x="284" y="1830.8" fill="#eb9632"/><circle cx="667.4" cy="1681.3" r="42.4" fill="#fff"/><rect width="26.3" height="7.45" x="299.3" y="1844.9" fill="#373f6e"/><rect width="26.3" height="7.45" x="344.6" y="1844.9" fill="#373f6e"/><path fill="#98a1ec" d="M1022.3,981.8H1830a27.7,27.7,0,0,1,27.7,27.7V1058a0,0,0,0,1,0,0h-863a0,0,0,0,1,0,0v-48.5A27.7,27.7,0,0,1,1022.3,981.8Z"/><path fill="#373f6e" d="M994.6,1058h863a0,0,0,0,1,0,0v465.7a50.2,50.2,0,0,1-50.2,50.2H1044.9a50.2,50.2,0,0,1-50.2-50.2V1058A0,0,0,0,1,994.6,1058Z"/><circle cx="1065.5" cy="1023.3" r="12.8" fill="#b4be94"/><circle cx="1117.8" cy="1023.3" r="12.8" fill="#f9b760"/><circle cx="1170.1" cy="1023.3" r="12.8" fill="#d35d39"/><rect width="11" height="47.07" x="1041.7" y="1114.8" fill="#fff"/><rect width="11" height="47.07" x="1041.7" y="1203.2" fill="#fff"/><rect width="11" height="47.07" x="1041.7" y="1291.6" fill="#fff"/><rect width="11" height="47.07" x="1041.7" y="1380" fill="#fff"/><rect width="11" height="47.07" x="1041.7" y="1468.4" fill="#fff"/><rect width="145.1" height="10.98" x="1101.7" y="1114.8" fill="#b4be94"/><rect width="145.1" height="10.98" x="1277.5" y="1114.8" fill="#f9b760"/><rect width="145.1" height="10.98" x="1154" y="1150.9" fill="#d35d39"/><rect width="54.8" height="10.98" x="1515.4" y="1150.9" fill="#f9b760"/><rect width="145.1" height="10.98" x="1329.8" y="1150.9" fill="#b4be94"/><rect width="70" height="10.98" x="1134.7" y="1203.2" fill="#f9b760"/><rect width="32.7" height="10.98" x="1413.5" y="1203.2" fill="#d35d39"/><rect width="145.1" height="10.98" x="1241.9" y="1203.2" fill="#b4be94"/><rect width="81.9" height="10.98" x="1393.1" y="1239.3" fill="#f9b760"/><rect width="206.2" height="10.98" x="1507.7" y="1239.3" fill="#d35d39"/><rect width="68" height="10.98" x="1101.7" y="1291.6" fill="#f9b760"/><rect width="226.9" height="10.98" x="1195.7" y="1291.6" fill="#d35d39"/><rect width="145.1" height="10.98" x="1229.9" y="1327.7" fill="#b4be94"/><rect width="145.1" height="10.98" x="1405.6" y="1327.7" fill="#f9b760"/><rect width="145.1" height="10.98" x="1148.7" y="1380" fill="#b4be94"/><rect width="145.1" height="10.98" x="1324.5" y="1380" fill="#d35d39"/><rect width="145.1" height="10.98" x="1101.7" y="1416.1" fill="#f9b760"/><rect width="145.1" height="10.98" x="1277.5" y="1416.1" fill="#d35d39"/><rect width="145.1" height="10.98" x="1463.1" y="1416.1" fill="#b4be94"/><rect width="145.1" height="10.98" x="1101.7" y="1468.4" fill="#d35d39"/><rect width="145.1" height="10.98" x="1277.5" y="1468.4" fill="#f9b760"/><rect width="44.9" height="10.98" x="1449.3" y="1468.4" fill="#b4be94"/><rect width="145.1" height="10.98" x="1364.4" y="1504.5" fill="#d35d39"/><rect width="145.1" height="10.98" x="1540.2" y="1504.5" fill="#f9b760"/><rect width="61.2" height="10.98" x="1710.9" y="1504.5" fill="#b4be94"/><rect width="360.9" height="246.36" x="1708.3" y="764.9" fill="#f9b760" rx="15.7"/><path fill="#eb9632" d="M1755.9,898.8q-4.8-2.2-4.8-8.4c0-4,1.7-6.9,4.9-8.5l48.1-28.6c4.1-2.5,6.6-3.9,7.4-4.1a7.9,7.9,0,0,1,3.2-.6c2.2,0,4.5,2,6.8,5.9s2.4,4.5,2.4,5.7a5.8,5.8,0,0,1-.9,3.3c-.7,1.3-2.4,2.8-5,4.5l-37.8,22.4,37.8,22.5a16.6,16.6,0,0,1,3.3,2.2,6,6,0,0,1,2.7,4.7,11.7,11.7,0,0,1-2.1,5.9,24,24,0,0,1-3.9,5,5.1,5.1,0,0,1-3.5,1.4c-1.7,0-3.8-.7-6.4-2.3Z"/><path fill="#eb9632" d="M1878.2,933.4a33.3,33.3,0,0,1-1.6,3,4.6,4.6,0,0,1-1.8,1.9,5.6,5.6,0,0,1-3.3.9,16.3,16.3,0,0,1-6.1-1.8,22,22,0,0,1-5.5-3.2,4.6,4.6,0,0,1-1.4-3.1,22.2,22.2,0,0,1,1.5-6.1l39.3-82.2c1.5-3.1,2.9-4.8,4.1-5.3a5.8,5.8,0,0,1,2.9-.5c1.3,0,3.3.6,6.2,1.9s6.5,4.5,6.5,7a20.2,20.2,0,0,1-1.7,6.1Z"/><path fill="#eb9632" d="M2021.4,881.9c3.3,1.6,4.9,4.5,4.9,8.5s-1.6,6.9-4.8,8.4l-52.1,31c-4.1,2.7-7.5,3-10,.9a21.7,21.7,0,0,1-3.5-4.4c-1.6-2.7-2.5-4.6-2.5-5.9a6.2,6.2,0,0,1,.8-3.1,15,15,0,0,1,5.2-4.4l38-22.5L1959.5,868l-3.2-2.2c-1.8-1.6-2.7-3.2-2.7-5a12.5,12.5,0,0,1,2-5.9c2.6-4.2,4.9-6.3,7.1-6.3a12,12,0,0,1,6.6,2.3Z"/><rect width="380.5" height="212.36" x="1633.7" y="1669.4" fill="#98a1ec" rx="15"/><path fill="#373f6e" d="M1663.4,1786.3q-4.8-2.2-4.8-8.4c0-4.1,1.7-6.9,4.9-8.5l48.1-28.6c4.1-2.5,6.6-3.9,7.4-4.1a7.9,7.9,0,0,1,3.2-.6c2.2,0,4.5,2,6.8,5.9s2.4,4.5,2.4,5.7a5.3,5.3,0,0,1-.9,3.2c-.7,1.3-2.4,2.9-5,4.6l-37.8,22.4,37.8,22.5a26.4,26.4,0,0,1,3.3,2.2,6,6,0,0,1,2.7,4.7,11.4,11.4,0,0,1-2.2,5.9,21.2,21.2,0,0,1-3.8,5,5.1,5.1,0,0,1-3.5,1.4c-1.7,0-3.8-.7-6.4-2.3Z"/><path fill="#373f6e" d="M1984.1,1769.4c3.3,1.6,4.9,4.4,4.9,8.5s-1.6,6.9-4.7,8.4l-52.1,31c-4.2,2.7-7.5,3-10,.9a18.9,18.9,0,0,1-3.6-4.4c-1.6-2.7-2.4-4.7-2.4-5.9a6.2,6.2,0,0,1,.7-3.1,15.5,15.5,0,0,1,5.3-4.4l37.9-22.5-37.8-22.4-3.3-2.2c-1.8-1.6-2.7-3.2-2.7-5a11.7,11.7,0,0,1,2.1-5.9c2.5-4.2,4.9-6.3,7.1-6.3a11.9,11.9,0,0,1,6.5,2.3Z"/><circle cx="1770.4" cy="1777.8" r="13.6" fill="#373f6e"/><circle cx="1820.1" cy="1777.8" r="13.6" fill="#373f6e"/><circle cx="1869.8" cy="1777.8" r="13.6" fill="#373f6e"/><rect width="236.7" height="246.36" x="1071" y="1511.4" fill="#d35d39" rx="12.7"/><path fill="#fff" d="M1118.6,1675.3v-12.6c0-5.7-.1-9.7-.3-11.9,0-4.3-2.7-6.5-8.1-6.5h-.8c-3.1,0-5-1.4-5.8-4.2a16.7,16.7,0,0,1-.7-5.5,20.4,20.4,0,0,1,.6-5.5,5.3,5.3,0,0,1,1.7-3,7.1,7.1,0,0,1,4.1-1.2h.5c5.7,0,8.5-2.3,8.5-6.7.1-16.5.2-25.7.2-27.6,0-6.9,2.1-12.6,6.3-17a20.8,20.8,0,0,1,15.7-6.6c3,0,5.2.3,6.5,1a4.6,4.6,0,0,1,2.7,3.1,16.7,16.7,0,0,1,.7,5.5,16.5,16.5,0,0,1-.7,5.4,4.3,4.3,0,0,1-2.3,2.9,13,13,0,0,1-6.7,1.5c-1.8,0-2.7,1.8-2.7,5.3v23a28.4,28.4,0,0,1-2.1,11c-1.3,3.3-2.6,5.7-3.9,7l-2,2a13.7,13.7,0,0,1,2.5,2.5,19.4,19.4,0,0,1,2.7,4.3c1.9,4.1,2.7,9.7,2.7,17s-.1,13.2-.1,17.5v3.2a4,4,0,0,0,.7,2.6,4,4,0,0,0,2.8,1,14.7,14.7,0,0,1,3.1.2,8.8,8.8,0,0,1,3,1q3,1.5,3,8.4c0,4.7-1,7.5-3.1,8.5a15,15,0,0,1-6.6,1.2,20.7,20.7,0,0,1-15.9-6.8q-6.3-6.7-6.3-17.4Z"/><path fill="#fff" d="M1259.9,1662.7v15.2c0,7.1-2.1,12.9-6.4,17.4a20.5,20.5,0,0,1-15.8,6.8c-5,0-8-1.3-8.9-4a18.5,18.5,0,0,1-.7-5.7,17,17,0,0,1,.7-5.6,4.4,4.4,0,0,1,2.3-2.8,10.7,10.7,0,0,1,4.8-1.2h2.8a4.1,4.1,0,0,0,1.1-1,3.6,3.6,0,0,0,.8-2.5V1676l-.2-19.8a36.8,36.8,0,0,1,2-12.7c1.4-3.6,2.8-6,4.1-7.1l2-1.7-2.3-2.3a25.9,25.9,0,0,1-3.5-6.6,27.2,27.2,0,0,1-2.3-11.1l.2-23q0-4.5-1.5-5.1a9.9,9.9,0,0,0-2.3-.2l-2.9-.2a11.2,11.2,0,0,1-2.9-1.2,5,5,0,0,1-2.2-3,16.5,16.5,0,0,1-.7-5.4,16.7,16.7,0,0,1,.7-5.5,4.7,4.7,0,0,1,2.1-2.9,16.4,16.4,0,0,1,6.9-1.2,20.8,20.8,0,0,1,15.8,6.6c4.2,4.4,6.3,10.1,6.3,17v27.6c0,4.4,2.9,6.7,8.6,6.7h.5c3.2,0,5.1,1.4,6,4.2a29.7,29.7,0,0,1,.5,6,14,14,0,0,1-1.2,6.2c-.8,1.6-1.6,2.5-2.5,2.7a12.3,12.3,0,0,1-2.9.3h-.8c-5.5,0-8.2,2.2-8.2,6.5C1260,1653,1259.9,1657,1259.9,1662.7Z"/><path fill="#a5bccf" d="M938,737.8a99.2,99.2,0,0,0-74.8,164.3l-13.6,34,53-6.5A99.2,99.2,0,1,0,938,737.8Z"/><path fill="#e0ecfa" d="M967.3,808.8a32.1,32.1,0,0,1,9.6,12.6,38.5,38.5,0,0,1,3.6,16.4,39.7,39.7,0,0,1-2.4,14.7,24.7,24.7,0,0,1-6.3,9.5c-5.2,4.9-10.9,7.4-17.2,7.4a15.7,15.7,0,0,1-10.9-4c-2.9-2.6-4.3-6.2-4.3-10.8,0-.5,0-1.3.1-2.4q-3.2,3.6-9,3.6c-3.8,0-7.2-1.6-10.2-4.9a16.9,16.9,0,0,1-4.5-11.8,20,20,0,0,1,6.5-15q6.6-6,12.6-6c4.1,0,6.9,1.3,8.5,3.9a5.2,5.2,0,0,1,1.9-3c1-.7,2.6-1,4.8-1s3.7.3,4.6,1a3.1,3.1,0,0,1,1.2,2.4c0,.9-.1,1.8-.2,2.9l-3.4,25.3c-.4,2.8-.7,4.5-.7,5.3a1.7,1.7,0,0,0,.8,1.6,4.4,4.4,0,0,0,2.3.5,15.5,15.5,0,0,0,3.1-.4,11.9,11.9,0,0,0,3.4-1.7,11.4,11.4,0,0,0,3.4-3.2c2.4-3.1,3.6-7.4,3.6-12.6a30.1,30.1,0,0,0-2.6-13.2,21.2,21.2,0,0,0-7-8.3c-6.1-4.1-13.4-6.2-22-6.2s-15.5,2.4-20.8,7.3-7.9,11.4-7.9,19.8,2,14.9,6.1,19.9,10.6,7.4,19.2,7.4h1.9a4.2,4.2,0,0,1,3.3,1.1,7.2,7.2,0,0,1,1,4.2,15.4,15.4,0,0,1-.5,4.5,3,3,0,0,1-1.5,1.8,9.7,9.7,0,0,1-4.3.8c-11.6,0-20.8-3.6-27.5-10.8s-10.1-16.8-10.1-28.8a39.4,39.4,0,0,1,5.7-21.3,36.3,36.3,0,0,1,14.9-13.7,43,43,0,0,1,19.2-4.5,58.9,58.9,0,0,1,18,2.5A43.3,43.3,0,0,1,967.3,808.8ZM930,841.6a5.7,5.7,0,0,0,4.2,1.6,6.3,6.3,0,0,0,4.6-1.9,6.8,6.8,0,0,0,2.3-4.3v-.6a5.8,5.8,0,0,0-1.4-4,5.2,5.2,0,0,0-4.2-1.8,6.7,6.7,0,0,0-4.8,2,7.2,7.2,0,0,0-2.2,4.4v.7A5.6,5.6,0,0,0,930,841.6Z"/><path fill="#091a05" d="M946.5,1869.2h-24a14.3,14.3,0,0,1-14.3-14.3v-.5a14.3,14.3,0,0,1,14.3-14.4h24Z"/><rect width="186" height="29.21" x="953.2" y="1840" fill="#eb9632"/><polygon fill="#f9b760" points="1139.2 1869.2 1139.2 1840 1167.3 1849.5 1167.3 1859.7 1139.2 1869.2"/><polygon fill="#091a05" points="1167.3 1859.7 1167.3 1849.5 1182.2 1854.6 1167.3 1859.7"/><rect width="6.7" height="29.21" x="946.5" y="1840" fill="#f9b760"/><rect width="2.4" height="185.98" x="1045" y="1752.4" fill="#f9b760" transform="rotate(90 1046.25 1845.35)"/><rect width="2.4" height="185.98" x="1045" y="1761.6" fill="#f9b760" transform="rotate(90 1046.2 1854.6)"/><rect width="2.4" height="185.98" x="1045" y="1770.9" fill="#f9b760" transform="rotate(90 1046.2 1863.9)"/><path fill="#b1cade" d="M1228.2,1813.6s194.3-27.9,247.6-102.7c0,0,20.4,74.8,21.5,91s-122.3,6.8-122.3,6.8l-144.5,10.9Z"/><rect width="324" height="55.58" x="1213" y="1813.6" fill="#fff"/><path fill="#bcd7ec" d="M1265.3,1813.6s218.1-22.5,251.1-74.7c0,0,13.8,58-6.8,74.7Z"/></svg>