<svg xmlns="http://www.w3.org/2000/svg" enable-background="new 0 0 2500 2500" viewBox="0 0 2500 2500"><path fill="#dbdee4" d="M1148.12,1412.98c-0.67,0-1.32-0.35-1.68-0.97c-0.54-0.93-0.23-2.12,0.7-2.67l485.7-283.5
				c18.24-10.65,29.57-30.38,29.57-51.5V521.78c0-1.08,0.88-1.95,1.95-1.95s1.95,0.87,1.95,1.95v552.56
				c0,22.5-12.07,43.52-31.5,54.86l-485.7,283.5C1148.79,1412.89,1148.46,1412.98,1148.12,1412.98z"/><path fill="#dbdee4" d="M1596.82,1493c-0.67,0-1.32-0.35-1.69-0.97c-0.53-0.93-0.21-2.12,0.72-2.66l230.6-133.14
			c6.66-3.86,14.94-3.84,21.6,0.03l229.05,133.11c0.93,0.54,1.24,1.74,0.7,2.67c-0.54,0.93-1.74,1.24-2.67,0.71l-229.05-133.11
			c-5.45-3.17-12.24-3.19-17.69-0.03l-230.6,133.14C1597.49,1492.92,1597.16,1493,1596.82,1493z"/><path fill="#dbdee4" d="M1966.19,1737.95c-0.67,0-1.32-0.35-1.69-0.97c-0.53-0.93-0.21-2.12,0.72-2.66l255.35-147.43
			c1.59-0.92,2.54-2.57,2.54-4.4s-0.94-3.48-2.54-4.4l-253.63-147.41c-0.93-0.54-1.24-1.74-0.7-2.67c0.53-0.94,1.72-1.24,2.66-0.71
			l253.63,147.41c2.8,1.63,4.47,4.53,4.47,7.78c-0.01,3.24-1.68,6.15-4.49,7.77l-255.35,147.43
			C1966.86,1737.87,1966.53,1737.95,1966.19,1737.95z"/><path fill="#dbdee4" d="M1204.27,2097.24c-0.33,0-0.67-0.08-0.98-0.26L794.6,1859.46c-0.93-0.54-1.24-1.74-0.7-2.67
					c0.53-0.94,1.72-1.25,2.66-0.71l408.69,237.52c0.93,0.54,1.24,1.74,0.7,2.67C1205.59,2096.9,1204.94,2097.24,1204.27,2097.24z"/><path fill="#fff" d="M1169.34,2103.29c-14.1-8.14-14.18-21.34-0.17-29.48c14.01-8.14,36.8-8.14,50.9,0
						c14.1,8.14,14.17,21.34,0.16,29.47C1206.22,2111.42,1183.44,2111.43,1169.34,2103.29z"/><path fill="#dbdee4" d="M1194.81,2111.3c-9.57,0-19.14-2.11-26.45-6.33l0,0c-7.47-4.31-11.59-10.17-11.6-16.48
						c-0.01-6.27,4.05-12.09,11.42-16.37c14.53-8.44,38.23-8.44,52.85,0c7.47,4.31,11.59,10.16,11.6,16.47
						c0.01,6.27-4.05,12.09-11.43,16.38C1213.94,2109.19,1204.38,2111.3,1194.81,2111.3z M1170.31,2101.6
						c13.52,7.81,35.47,7.82,48.93,0c6.13-3.56,9.5-8.17,9.5-13c-0.01-4.86-3.43-9.51-9.65-13.1c-13.54-7.82-35.51-7.82-48.94,0
						c-6.13,3.56-9.5,8.17-9.49,12.99C1160.67,2093.35,1164.1,2098.01,1170.31,2101.6L1170.31,2101.6z"/><path fill="#1fb6ff" d="M1194.62,2079.25c5.5,0,10.81,1.25,14.59,3.43c3.03,1.75,4.78,3.9,4.78,5.9c0,1.98-1.7,4.1-4.68,5.83
						c-3.75,2.18-9.04,3.43-14.53,3.43c-5.49,0-10.81-1.25-14.58-3.43c-3.04-1.75-4.78-3.91-4.78-5.91c0-1.98,1.7-4.1,4.68-5.83
						C1183.83,2080.5,1189.13,2079.25,1194.62,2079.25z"/><path fill="#373b42" d="M1070.51,2008.62c5.9,0,11.61,1.34,15.67,3.69c3.26,1.88,5.13,4.19,5.13,6.34c0,2.12-1.83,4.41-5.03,6.27
					c-4.02,2.34-9.71,3.68-15.61,3.68c-5.9,0-11.6-1.34-15.66-3.68c-3.26-1.88-5.13-4.2-5.14-6.35c0-2.12,1.83-4.4,5.03-6.26
					C1058.93,2009.96,1064.62,2008.62,1070.51,2008.62z"/><path fill="#dbdee4" d="M663.28,2226.16c-0.68,0-1.34-0.36-1.7-0.99c-0.53-0.94-0.2-2.13,0.74-2.65l255.3-143.62
				c3.09-1.78,4.95-4.99,4.95-8.58c0.01-3.58-1.84-6.8-4.94-8.59L505.2,1822.03c-0.93-0.54-1.24-1.74-0.7-2.67
				c0.53-0.94,1.72-1.25,2.67-0.71l412.43,239.69c4.31,2.51,6.88,6.98,6.88,11.97c-0.01,4.99-2.59,9.46-6.91,11.96l-255.32,143.63
				C663.93,2226.08,663.61,2226.16,663.28,2226.16z"/><path fill="#fff" d="M689.88,2235.7c14.1-8.14,14.18-21.34,0.17-29.48c-14.01-8.14-36.8-8.14-50.9,0
						c-14.1,8.14-14.17,21.34-0.16,29.47C652.99,2243.83,675.78,2243.83,689.88,2235.7z"/><path fill="#dbdee4" d="M664.4,2243.71c-9.57,0-19.13-2.11-26.39-6.33c-7.38-4.29-11.44-10.1-11.43-16.38
						c0.01-6.31,4.13-12.16,11.6-16.47c14.62-8.44,38.32-8.44,52.85,0c7.37,4.29,11.43,10.1,11.42,16.37
						c-0.01,6.32-4.13,12.17-11.6,16.48l0,0C683.54,2241.6,673.96,2243.71,664.4,2243.71z M664.64,2202.04
						c-8.86,0-17.74,1.96-24.51,5.87c-6.21,3.59-9.64,8.24-9.65,13.1c-0.01,4.82,3.37,9.44,9.49,13c13.43,7.81,35.39,7.82,48.93,0
						c6.21-3.59,9.64-8.25,9.65-13.11c0.01-4.82-3.36-9.44-9.49-13C682.35,2203.99,673.5,2202.04,664.64,2202.04z M689.88,2235.7
						h0.05H689.88z"/><path fill="#1fb6ff" d="M664.6,2211.66c-5.5,0-10.81,1.25-14.59,3.43c-3.03,1.75-4.78,3.9-4.78,5.9c0,1.98,1.7,4.1,4.68,5.83
						c3.75,2.18,9.04,3.43,14.53,3.43c5.49,0,10.81-1.25,14.58-3.43c3.04-1.75,4.78-3.91,4.78-5.91c0-1.98-1.7-4.1-4.68-5.83
						C675.38,2212.9,670.09,2211.66,664.6,2211.66z"/><path fill="#373b42" d="M762.82,2156.45c-5.9,0-11.61,1.34-15.67,3.69c-3.26,1.88-5.13,4.19-5.13,6.34c0,2.12,1.83,4.41,5.03,6.27
					c4.02,2.34,9.71,3.68,15.61,3.68c5.9,0,11.6-1.34,15.66-3.68c3.26-1.88,5.13-4.2,5.14-6.35c0-2.12-1.83-4.4-5.03-6.26
					C774.4,2157.79,768.71,2156.45,762.82,2156.45z"/><path fill="#dbdee4" d="M2213.76,2143.8c-0.33,0-0.67-0.08-0.98-0.26l-904.63-525.74c-18.11-10.54-40.65-10.57-58.81-0.09
			l-482.49,278.58c-0.92,0.53-2.12,0.22-2.66-0.71c-0.53-0.93-0.21-2.12,0.72-2.66l482.49-278.58
			c19.36-11.17,43.39-11.15,62.73,0.09l904.63,525.74c0.93,0.54,1.24,1.74,0.7,2.67C2215.08,2143.45,2214.43,2143.8,2213.76,2143.8z
			"/><path d="M1220.52,1747.27c13.09,7.56,13.09,19.84,0.08,27.39l-806.49,468.66c-13,7.56-34.13,7.56-47.22,0l-106.03-61.21
								c-13.09-7.56-13.16-19.79-0.15-27.35l806.49-468.66c13-7.56,34.2-7.6,47.29-0.04L1220.52,1747.27z" opacity=".1"/><path fill="#bec4cd" d="M1234.17,1690.46l-0.24,47.58c0,4.93-3.23,9.77-9.69,13.57l-806.51,468.75
										c-2.02,1.21-4.28,2.18-6.62,2.99c-10.5,3.55-23.67,3.55-34.09-0.08c-2.34-0.73-4.52-1.78-6.54-2.91l-106.06-61.23
										c-6.54-3.8-9.86-8.81-9.86-13.81l0.16-47.5c0,4.93,3.23,9.94,9.94,13.73l105.9,61.15c2.02,1.13,4.12,2.1,6.46,2.91
										c10.42,3.63,23.59,3.72,34.09,0.16c2.42-0.81,4.69-1.86,6.7-3.07l806.51-468.67
										C1230.78,1700.39,1234.01,1695.39,1234.17,1690.46z"/><path fill="#f0f2f5" d="M411.1,2175.77v47.58c-10.5,3.55-23.67,3.55-34.09-0.08v-47.66
									C387.44,2179.24,400.6,2179.32,411.1,2175.77z"/><path fill="#373b42" d="M394.09,2227.91c-8.91,0-17.82-1.97-24.6-5.91l-106.03-61.21c-7.02-4.05-10.89-9.55-10.89-15.5
										l0.22-47.48c0.01-1.07,0.88-1.94,1.95-1.94c0,0,0,0,0.01,0c1.07,0,1.94,0.88,1.94,1.95c0,4.48,3.17,8.74,8.92,12.01
										l105.94,61.22c12.59,7.26,32.9,7.26,45.28,0l806.51-468.69c5.52-3.14,8.73-7.49,8.84-11.95c0.02-1.06,0.89-1.9,1.95-1.9
										c0.01,0,0.02,0,0.03,0c1.07,0.02,1.93,0.89,1.92,1.96l-0.22,47.59c0,5.81-3.78,11.23-10.65,15.27L418.69,2222
										C411.91,2225.94,403,2227.91,394.09,2227.91z M256.65,2107.59l-0.18,37.71c0,4.49,3.18,8.8,8.94,12.12l106.04,61.21
										c12.49,7.26,32.81,7.26,45.28,0l806.51-468.69c5.63-3.3,8.73-7.53,8.73-11.9l0.18-37.84c-1.76,2.07-4.07,3.96-6.85,5.54
										L418.8,2174.42c-13.45,7.88-35.52,7.89-49.2,0l-105.92-61.21C260.78,2111.56,258.42,2109.67,256.65,2107.59z"/><path fill="#fff" d="M1224.26,1676.7c13.09,7.56,13.09,19.84,0.08,27.39l-806.49,468.66c-13,7.56-34.13,7.56-47.22,0
										l-106.03-61.21c-13.09-7.56-13.16-19.79-0.15-27.35l806.49-468.66c13-7.56,34.2-7.6,47.29-0.04L1224.26,1676.7z"/><path fill="#373b42" d="M394.27,2180.33c-8.9,0-17.82-1.96-24.62-5.89l-106.03-61.21c-6.97-4.03-10.82-9.5-10.83-15.41
										c-0.01-5.87,3.78-11.31,10.67-15.32l806.49-468.66c13.55-7.87,35.63-7.91,49.24-0.04l106.03,61.21
										c6.96,4.02,10.8,9.48,10.8,15.39c0.01,5.9-3.8,11.36-10.71,15.38l-806.48,468.66
										C412.08,2178.36,403.18,2180.33,394.27,2180.33z M1094.62,1611.76c-8.22,0-16.44,1.82-22.69,5.45l-806.49,468.66
										c-5.64,3.28-8.74,7.52-8.73,11.94c0,4.46,3.16,8.73,8.88,12.04l106.03,61.21c12.53,7.23,32.85,7.23,45.27,0l806.48-468.66
										c5.67-3.29,8.78-7.55,8.78-12c-0.01-4.46-3.15-8.73-8.86-12.02l-106.03-61.21
										C1111.01,1613.56,1102.81,1611.76,1094.62,1611.76z"/><path fill="#dbdee4" d="M1151.83,436.59c-9.23-5.42-22.02-4.62-36.14,3.46L418.03,842.89c-6.48,3.73-12.61,8.7-18.29,14.56
										c-14.3,14.65-25.48,34.81-30.01,54.43c-1.51,6.3-2.31,12.61-2.31,18.65l1.6,1153.75c0,16.07,5.77,27.26,14.83,32.59
										l-56.74-32.85c-9.06-5.33-14.74-16.6-14.83-32.67l-1.6-1153.84c0-5.95,0.71-12.16,2.22-18.47
										c4.53-19.62,15.63-39.69,30.01-54.43c5.59-5.86,11.9-10.92,18.38-14.65l697.65-402.75c14.12-8.17,26.9-8.88,36.14-3.64
										L1151.83,436.59z"/><path fill="#f0f2f5" d="M399.74,857.45c-14.3,14.65-25.48,34.81-30.01,54.43l-56.83-32.85
											c4.53-19.62,15.63-39.69,30.01-54.43L399.74,857.45z"/><path fill="#373b42" d="M383.85,2118.81c-0.34,0-0.67-0.08-0.97-0.26l-0.02-0.01l0,0l-56.73-32.84
										c-10.11-5.95-15.72-18.15-15.8-34.35l-1.6-1153.85c0-6.26,0.76-12.63,2.27-18.93c4.62-20.03,15.75-40.2,30.52-55.34
										c5.76-6.03,12.27-11.22,18.8-14.98l697.65-402.75c14.21-8.23,27.74-9.51,38.07-3.65l56.59,32.94
										c0.05,0.03,0.11,0.07,0.18,0.1c0.92,0.54,1.23,1.74,0.69,2.67c-0.56,0.93-1.73,1.25-2.67,0.7h-0.01
										c0,0-0.01-0.01-0.02-0.01l-0.11-0.06c-8.94-5.17-21.03-3.91-34.06,3.54L419.01,844.58c-6.11,3.52-12.12,8.31-17.86,14.23
										c-14.09,14.44-25.11,34.44-29.51,53.51c-1.5,6.26-2.26,12.37-2.26,18.21l1.6,1153.75c0,14.68,4.93,25.65,13.87,30.91
										c0.92,0.54,1.23,1.73,0.69,2.66C385.17,2118.47,384.52,2118.81,383.85,2118.81z M1081.8,402.14
										c-6.68,0-14.13,2.27-21.88,6.74L362.27,811.64c-6.22,3.57-12.43,8.52-17.95,14.31c-14.09,14.44-25.12,34.44-29.53,53.52
										c-1.43,6.02-2.16,12.08-2.16,18.03l1.6,1153.83c0.08,14.78,5,25.79,13.87,31l44.57,25.8c-3.66-6.29-5.6-14.39-5.6-23.86
										l-1.6-1153.75c0-6.14,0.8-12.57,2.37-19.1c4.55-19.72,15.95-40.41,30.51-55.34c5.99-6.18,12.29-11.19,18.71-14.89
										l697.65-402.84c8.42-4.82,16.52-7.14,23.92-7.2l-44.52-25.92C1090.45,403.17,1086.3,402.14,1081.8,402.14z"/><path fill="#373b42" d="M367.68,1033.33c-0.34,0-0.67-0.08-0.97-0.26l-56.73-32.85c-0.94-0.54-1.25-1.73-0.72-2.66
										c0.55-0.93,1.74-1.25,2.67-0.71l56.73,32.85c0.94,0.54,1.25,1.73,0.72,2.67C369.01,1032.98,368.35,1033.33,367.68,1033.33z
										"/><path fill="#373b42" d="M368.93,2044.17c-0.34,0-0.67-0.08-0.98-0.26l-56.74-32.94c-0.93-0.54-1.24-1.74-0.7-2.67
										c0.53-0.94,1.72-1.25,2.67-0.71l56.74,32.94c0.93,0.54,1.24,1.74,0.7,2.66C370.26,2043.82,369.6,2044.17,368.93,2044.17z"/><path fill="#373b42" d="M1078.13,463.65c-0.34,0-0.67-0.08-0.97-0.26l-56.65-32.85c-0.94-0.54-1.25-1.73-0.71-2.67
										c0.53-0.94,1.74-1.25,2.66-0.71l56.65,32.85c0.94,0.54,1.25,1.73,0.71,2.67C1079.46,463.31,1078.8,463.65,1078.13,463.65z"/><path fill="#373b42" d="M1166.66,469.1c-0.09-32.19-22.96-45.15-50.97-28.97L418.05,842.88
										c-28.08,16.21-50.74,55.45-50.64,87.64l0.29,100.7l799.25-461.43L1166.66,469.1z"/><path fill="#373b42" d="M367.69,1033.18c-0.34,0-0.67-0.09-0.97-0.26c-0.6-0.35-0.97-0.99-0.97-1.69l-0.28-100.7
										c-0.09-32.77,23.06-72.85,51.62-89.33l697.63-402.76c14.25-8.23,27.75-9.49,38.02-3.59c10.2,5.86,15.83,18.02,15.88,34.24
										l0.29,100.7c0,0.7-0.37,1.34-0.97,1.69l-799.25,461.43C368.36,1033.09,368.03,1033.18,367.69,1033.18z M1138.47,435.09
										c-6.65,0-14.07,2.26-21.81,6.72L419.03,844.57c-27.48,15.87-49.76,54.42-49.67,85.95l0.27,97.34l795.36-459.18l-0.29-99.58
										l0,0c-0.05-14.76-4.99-25.73-13.92-30.87C1147.14,436.13,1142.98,435.09,1138.47,435.09z"/><g><path fill="#fff" d="M367.69,1031.23l1.35,1053.09c0.09,32.27,22.89,45.26,50.98,29.05l697.63-402.76
										c28.02-16.18,50.73-55.45,50.64-87.72l-1.35-1053.09L367.69,1031.23z"/><path fill="#373b42" d="M397.21,2122.31c-5.19,0-9.98-1.21-14.22-3.65c-10.2-5.87-15.84-18.06-15.88-34.34l-1.36-1053.09
										c0-0.7,0.37-1.34,0.97-1.69l799.25-461.43c0.61-0.35,1.34-0.35,1.95,0c0.6,0.35,0.97,0.99,0.97,1.69l1.36,1053.09
										c0.09,32.81-23.06,72.92-51.62,89.41L421,2115.05C412.64,2119.88,404.54,2122.31,397.21,2122.31z M369.64,1032.35
										L371,2084.31c0.05,14.82,4.99,25.82,13.93,30.97c9.01,5.17,21.13,3.9,34.13-3.61l697.63-402.76
										c27.48-15.87,49.76-54.46,49.67-86.03L1165,573.17L369.64,1032.35z"/></g><g><path fill="#fff" d="M447.36,889.54c9.38-5.42,16.93-1.12,16.96,9.66c0.03,10.69-7.47,23.77-16.85,29.18
											c-9.38,5.42-16.93,1.02-16.96-9.67C430.48,907.94,437.98,894.96,447.36,889.54z"/><path fill="#fff" d="M517.94,848.79c9.3-5.37,16.93-1.12,16.96,9.66c0.03,10.69-7.55,23.81-16.85,29.18
											c-9.38,5.42-16.93,1.02-16.96-9.67C501.06,867.19,508.56,854.21,517.94,848.79z"/><path fill="#fff" d="M588.53,808c9.32-5.38,16.89-1.07,16.92,9.73c0.03,10.71-7.49,23.82-16.81,29.21
											c-9.41,5.43-16.97,1.03-17-9.69C571.61,826.44,579.12,813.43,588.53,808z"/></g><g><path fill="#fff" d="M469.77,1038.88c-30.66,17.72-55.42,60.69-55.32,95.96c0.1,35.27,25.02,49.48,55.68,31.76l508.94-293.76
						l-0.19-127.82L469.77,1038.88z"/><path fill="#373b42" d="M445.21,1176.19c-5.62,0-10.84-1.31-15.44-3.96c-11.09-6.38-17.22-19.66-17.28-37.39
						c-0.1-35.85,25.16-79.66,56.3-97.65l0,0L977.9,743.34c0.61-0.35,1.34-0.35,1.95,0c0.6,0.35,0.97,0.99,0.97,1.69l0.2,127.81
						c0,0.7-0.37,1.34-0.97,1.69L471.1,1168.28C462.01,1173.54,453.19,1176.19,445.21,1176.19z M470.74,1040.56
						c-30.07,17.38-54.45,59.66-54.35,94.27c0.05,16.28,5.49,28.36,15.33,34.02c9.89,5.69,23.19,4.29,37.43-3.94l507.97-293.19
						l-0.19-123.32L470.74,1040.56z"/><path fill="#1fb6ff" d="M1065.86,694.82l-86.99,50.21l0.19,127.82l87.15-50.3c30.66-17.72,55.42-60.64,55.32-95.91
						C1121.45,691.36,1096.53,677.1,1065.86,694.82z"/><path fill="#373b42" d="M979.08,874.79c-0.34,0-0.67-0.09-0.97-0.26c-0.6-0.35-0.97-0.99-0.97-1.69l-0.2-127.81
						c0-0.7,0.37-1.34,0.97-1.69l86.99-50.21c15.48-8.94,30.16-10.35,41.32-3.93c11.1,6.38,17.24,19.68,17.29,37.42
						c0.1,35.82-25.16,79.6-56.3,97.6l-87.15,50.3C979.75,874.7,979.41,874.79,979.08,874.79z M980.83,746.15l0.19,123.32
						l84.23-48.62c30.07-17.37,54.45-59.64,54.35-94.22c-0.05-16.29-5.5-28.39-15.34-34.05c-9.9-5.69-23.19-4.29-37.42,3.93l0,0
						L980.83,746.15z M1065.86,694.82h0.05H1065.86z"/><g><path fill="#fff" d="M1073.68,723.35c11.64,6.64,11.71,28.29,0.14,48.31c-5.75,9.97-13.34,17.68-20.94,22.07
						c-5.9,3.41-11.81,4.83-16.88,3.74l-21,36.44c-1.09,1.81-2.43,3.22-3.81,4.01c-1.35,0.78-2.73,0.95-3.79,0.38
						c-2.06-1.25-2.07-5.12-0.02-8.7l21.03-36.42c-8.02-8.74-6.95-27.75,3.27-45.55c5.79-10.01,13.38-17.73,20.99-22.13
						C1060.26,721.1,1067.87,720.04,1073.68,723.35z M1066.25,767.35c7.38-12.8,7.34-26.7-0.09-30.94
						c-3.73-2.13-8.58-1.43-13.45,1.38s-9.71,7.72-13.42,14.14c-7.38,12.8-7.34,26.7,0.09,30.94c3.72,2.12,8.59,1.44,13.45-1.37
						C1057.7,778.69,1062.56,773.74,1066.25,767.35"/></g><g><path fill="#fff" d="M1073.68,723.35c11.64,6.64,11.71,28.29,0.14,48.31c-5.75,9.97-13.34,17.68-20.94,22.07
						c-5.9,3.41-11.81,4.83-16.88,3.74l-21,36.44c-1.09,1.81-2.43,3.22-3.81,4.01c-1.35,0.78-2.73,0.95-3.79,0.38
						c-2.06-1.25-2.07-5.12-0.02-8.7l21.03-36.42c-8.02-8.74-6.95-27.75,3.27-45.55c5.79-10.01,13.38-17.73,20.99-22.13
						C1060.26,721.1,1067.87,720.04,1073.68,723.35z M1066.25,767.35c7.38-12.8,7.34-26.7-0.09-30.94
						c-3.73-2.13-8.58-1.43-13.45,1.38s-9.71,7.72-13.42,14.14c-7.38,12.8-7.34,26.7,0.09,30.94c3.72,2.12,8.59,1.44,13.45-1.37
						C1057.7,778.69,1062.56,773.74,1066.25,767.35"/></g></g><g><polygon fill="#1fb6ff" points="428.52 1610.54 429.29 1898.28 740.1 1718.85 739.32 1431.1"/><path fill="#373b42" d="M429.29,1900.23c-0.34,0-0.67-0.09-0.97-0.26c-0.6-0.35-0.97-0.99-0.97-1.69l-0.78-287.74
						c0-0.7,0.37-1.34,0.97-1.69l310.81-179.44c0.61-0.35,1.34-0.35,1.95,0c0.6,0.35,0.97,0.99,0.97,1.69l0.77,287.74
						c0,0.7-0.37,1.34-0.97,1.69l-310.8,179.43C429.96,1900.15,429.63,1900.23,429.29,1900.23z M430.46,1611.66l0.77,283.25
						l306.91-177.19l-0.76-283.25L430.46,1611.66z"/><polygon fill="#fff" points="429.61 2009.27 740.41 1829.84 740.1 1718.85 429.29 1898.28"/><path fill="#373b42" d="M429.6,2011.22c-0.34,0-0.67-0.09-0.97-0.26c-0.6-0.35-0.97-0.99-0.97-1.69l-0.31-110.99
						c0-0.7,0.37-1.34,0.97-1.69l310.8-179.43c0.61-0.35,1.34-0.35,1.95,0c0.6,0.35,0.97,0.99,0.97,1.69l0.32,110.99
						c0,0.7-0.37,1.34-0.97,1.69l-310.81,179.44C430.27,2011.14,429.94,2011.22,429.6,2011.22z M431.24,1899.41l0.3,106.5
						l306.92-177.19l-0.31-106.5L431.24,1899.41z"/><polygon fill="#f0f2f5" points="1106.39 1224.34 795.58 1403.77 796.34 1686.38 1107.15 1506.94"/><path fill="#373b42" d="M796.34,1688.32c-0.34,0-0.67-0.09-0.97-0.26c-0.6-0.35-0.97-0.99-0.97-1.69l-0.76-282.6
						c0-0.7,0.37-1.34,0.97-1.69l310.81-179.43c0.61-0.35,1.34-0.35,1.95,0c0.6,0.35,0.97,0.99,0.97,1.69l0.76,282.6
						c0,0.7-0.37,1.34-0.97,1.69l-310.81,179.43C797.01,1688.24,796.67,1688.32,796.34,1688.32z M797.53,1404.9l0.75,278.11
						l306.92-177.19l-0.75-278.11L797.53,1404.9z"/><g><polygon fill="#fff" points="428.52 1259.04 429.29 1546.78 740.1 1367.35 739.32 1079.6"/><path fill="#373b42" d="M429.29,1548.73c-0.34,0-0.67-0.09-0.97-0.26c-0.6-0.35-0.97-0.99-0.97-1.69l-0.78-287.74
						c0-0.7,0.37-1.34,0.97-1.69l310.81-179.43c0.61-0.35,1.34-0.35,1.95,0c0.6,0.35,0.97,0.99,0.97,1.69l0.77,287.74
						c0,0.7-0.37,1.34-0.97,1.69l-310.8,179.44C429.96,1548.65,429.63,1548.73,429.29,1548.73z M430.46,1260.16l0.77,283.25
						l306.91-177.19l-0.76-283.25L430.46,1260.16z"/></g><g><polygon fill="#fff" points="1106.39 872.84 795.58 1052.27 796.34 1334.88 1107.15 1155.44"/><path fill="#373b42" d="M796.34,1336.82c-0.34,0-0.67-0.09-0.97-0.26c-0.6-0.35-0.97-0.99-0.97-1.69l-0.76-282.6
						c0-0.7,0.37-1.34,0.97-1.69l310.81-179.43c0.61-0.35,1.34-0.35,1.95,0c0.6,0.35,0.97,0.99,0.97,1.69l0.76,282.6
						c0,0.7-0.37,1.34-0.97,1.69l-310.81,179.44C797.01,1336.74,796.67,1336.82,796.34,1336.82z M797.53,1053.4l0.75,278.11
						l306.92-177.19l-0.75-278.11L797.53,1053.4z"/></g><g><polygon fill="#fff" points="796.34 1686.38 796.67 1802.51 1107.47 1623.07 1107.15 1506.94"/><path fill="#373b42" d="M796.67,1804.46c-0.34,0-0.67-0.09-0.97-0.26c-0.6-0.35-0.97-0.99-0.97-1.69l-0.33-116.13
						c0-0.7,0.37-1.34,0.97-1.69l310.81-179.43c0.61-0.35,1.34-0.35,1.95,0c0.6,0.35,0.97,0.99,0.97,1.69l0.33,116.13
						c0,0.7-0.37,1.34-0.97,1.69l-310.81,179.43C797.34,1804.37,797,1804.46,796.67,1804.46z M798.29,1687.5l0.32,111.64
						l306.92-177.19l-0.32-111.64L798.29,1687.5z"/></g><g><ellipse cx="980.74" cy="1384.66" fill="#bec4cd" rx="28.9" ry="16.74" transform="rotate(-59.834 980.77 1384.632)"/><polygon fill="#bec4cd" points="912.28 1438.51 978.84 1480.63 1005.15 1437.22 1060.24 1480.76 843.58 1605.85"/></g><g><line x1="456.1" x2="591.05" y1="1919.23" y2="1841.32" fill="#fff"/><path fill="#373b42" d="M456.09,1921.18c-0.67,0-1.32-0.35-1.69-0.97c-0.53-0.93-0.21-2.12,0.72-2.66l134.96-77.91
						c0.91-0.54,2.12-0.22,2.67,0.71c0.53,0.93,0.21,2.12-0.72,2.66l-134.96,77.91C456.76,1921.1,456.43,1921.18,456.09,1921.18z"/><g><line x1="456.1" x2="692.55" y1="1958.19" y2="1821.68" fill="#fff"/><path fill="#373b42" d="M456.09,1960.14c-0.67,0-1.32-0.35-1.69-0.97c-0.53-0.93-0.21-2.12,0.72-2.66l236.45-136.51
						c0.91-0.54,2.11-0.23,2.67,0.71c0.53,0.93,0.21,2.12-0.72,2.66l-236.45,136.51C456.76,1960.05,456.43,1960.14,456.09,1960.14z"/></g></g><g><line x1="816.32" x2="951.28" y1="1715.67" y2="1637.76" fill="#fff"/><path fill="#373b42" d="M816.33,1717.62c-0.67,0-1.32-0.35-1.69-0.97c-0.53-0.93-0.21-2.12,0.72-2.66l134.96-77.91
						c0.91-0.54,2.12-0.23,2.67,0.71c0.53,0.93,0.21,2.12-0.72,2.66l-134.96,77.91C817,1717.54,816.66,1717.62,816.33,1717.62z"/><g><line x1="816.32" x2="1052.78" y1="1754.63" y2="1618.12" fill="#fff"/><path fill="#373b42" d="M816.33,1756.58c-0.67,0-1.32-0.35-1.69-0.97c-0.53-0.93-0.21-2.12,0.72-2.66l236.45-136.51
						c0.91-0.54,2.12-0.23,2.67,0.71c0.53,0.93,0.21,2.12-0.72,2.66L817.3,1756.31C817,1756.49,816.66,1756.58,816.33,1756.58z"/></g></g><g><path fill="#fff" d="M549.58,1622.67c1.39-0.8,2.81-1.18,4.13-0.98l77.92,11.98c4.76,0.72,4.78,8.73,0.04,14.94l-77.63,101.74
						c-1.31,1.72-2.73,2.98-4.12,3.78c-4.02,2.32-7.75,0.79-7.76-4.42l-0.29-113.68C541.85,1630.81,545.56,1624.99,549.58,1622.67z"/></g></g><g><line x1="688.05" x2="480.57" y1="1156.87" y2="1469.52" fill="#fff"/><path fill="#373b42" d="M480.57,1471.47c-0.37,0-0.75-0.11-1.08-0.32c-0.89-0.6-1.13-1.81-0.54-2.7l207.48-312.65
				c0.59-0.9,1.8-1.13,2.7-0.55c0.89,0.6,1.13,1.81,0.54,2.7L482.19,1470.6C481.82,1471.16,481.2,1471.47,480.57,1471.47z"/></g><g><line x1="480.05" x2="688.57" y1="1276.95" y2="1349.44" fill="#fff"/><path fill="#373b42" d="M688.57,1351.39c-0.21,0-0.43-0.03-0.64-0.11l-208.52-72.48c-1.02-0.35-1.55-1.47-1.2-2.48
				c0.36-1.02,1.48-1.54,2.48-1.2l208.52,72.48c1.02,0.35,1.55,1.47,1.2,2.48C690.13,1350.88,689.37,1351.39,688.57,1351.39z"/></g><g><polygon fill="#373b42" points="1021.42 994.48 1021.48 1015.38 970.39 1044.87 970.84 1201.43 950.4 1213.23 949.95 1056.68 899.06 1086.06 899 1065.15"/></g><g><path fill="#0ca6e2" d="M481.45,1074.2c3.32-1.92,6.22-3,8.75-3.22s4.5,0.42,5.86,2c1.36,1.63,2.12,3.89,2.22,6.85l-5.66,3.75
						c-0.34-3.04-1.37-4.91-3.11-5.58c-1.78-0.64-4.36,0.04-7.82,2.04c-3.56,2.05-6.17,4.32-7.8,6.77
						c-1.63,2.45-2.42,4.74-2.42,6.83c0.01,1.88,0.57,3.06,1.74,3.57c1.12,0.53,4.12,0.04,8.9-1.48c4.82-1.55,8.1-2.36,9.92-2.45
						c2.58-0.14,4.5,0.52,5.77,1.89c1.22,1.39,1.84,3.51,1.85,6.26c0.01,2.74-0.64,5.7-1.99,8.85c-1.35,3.2-3.31,6.22-5.88,9.05
						c-2.52,2.8-5.37,5.15-8.6,7.01c-4.02,2.32-7.39,3.57-10.16,3.82c-2.72,0.22-4.87-0.58-6.42-2.43c-1.55-1.8-2.4-4.37-2.46-7.78
						l5.56-3.81c0.24,2.44,0.86,4.19,1.84,5.29c0.99,1.05,2.49,1.52,4.5,1.38c2.06-0.17,4.31-0.98,6.88-2.46
						c2.24-1.3,4.21-2.81,5.94-4.56c1.73-1.75,3.04-3.58,3.87-5.41c0.84-1.83,1.25-3.52,1.25-5.14s-0.43-2.77-1.23-3.49
						c-0.85-0.75-2.16-0.96-4.03-0.69c-1.22,0.17-3.89,0.84-7.96,2.07c-4.12,1.25-6.98,1.82-8.66,1.77c-2.11-0.02-3.7-0.72-4.74-2
						c-1.08-1.31-1.6-3.11-1.61-5.48c-0.01-2.58,0.64-5.38,1.9-8.36c1.26-2.99,3.12-5.79,5.6-8.4
						C475.7,1078.11,478.46,1075.93,481.45,1074.2z"/><path fill="#0ca6e2" d="M535.01,1076.82c0,0.38,0,0.97,0,1.72l-24.13,13.93c0.2,3.97,1.24,6.5,3.02,7.62
						c1.83,1.1,4.08,0.93,6.79-0.64c2.01-1.16,3.74-2.81,5.14-4.8c1.4-2.04,2.52-4.63,3.35-7.75l5.66-2.46
						c-0.88,4.28-2.51,8.18-4.93,11.68c-2.38,3.53-5.46,6.33-9.25,8.52c-4.72,2.73-8.47,3.22-11.24,1.48
						c-2.82-1.76-4.19-5.66-4.2-11.68c-0.02-6.29,1.37-11.94,4.17-16.99c2.8-5.11,6.39-8.91,10.88-11.5c4.3-2.48,7.86-2.82,10.58-1
						C533.62,1066.75,534.99,1070.69,535.01,1076.82z M511.15,1087.1l18.05-10.42c-0.24-2.98-0.9-4.92-2.08-5.85
						c-1.74-1.42-4.03-1.28-6.79,0.31c-2.53,1.46-4.63,3.64-6.35,6.58C512.3,1080.62,511.32,1083.77,511.15,1087.1"/><path fill="#0ca6e2" d="M568.31,1071.81c0.24,1.42,0.71,2.66,1.37,3.68l-5.71,3.29c-0.56-0.97-0.94-2.25-1.09-3.95
						c-2.05,3.18-4.01,5.71-5.88,7.6c-1.87,1.89-3.88,3.48-6.03,4.72c-3.56,2.05-6.27,2.6-8.19,1.71c-1.92-0.88-2.87-2.87-2.88-5.98
						c-0.01-1.83,0.32-3.68,1.06-5.62c0.7-1.91,1.63-3.63,2.8-5.22c1.17-1.59,2.47-3.04,3.97-4.34c1.07-1,2.66-2.18,4.86-3.78
						c4.39-3.13,7.67-5.77,9.77-7.79c0-0.86,0-1.45,0-1.66c-0.01-2.58-0.53-4.06-1.56-4.54c-1.41-0.59-3.47-0.15-6.23,1.44
						c-2.57,1.48-4.49,3.13-5.7,4.85c-1.26,1.8-2.14,4.14-2.74,7.13l-5.34,2.22c0.46-2.9,1.25-5.46,2.37-7.77
						c1.12-2.26,2.75-4.44,4.85-6.52c2.1-2.08,4.53-3.96,7.34-5.58c2.76-1.59,5.01-2.51,6.74-2.76c1.73-0.25,3-0.01,3.8,0.66
						c0.8,0.67,1.41,1.72,1.7,3.27c0.19,0.97,0.29,2.85,0.3,5.64l0.02,8.44C567.92,1066.81,568.07,1070.44,568.31,1071.81z
						 M562.38,1063.33l-0.01-2.31c-2.01,2.13-5,4.66-8.97,7.6c-2.24,1.67-3.83,2.97-4.77,3.99c-0.93,1.02-1.63,2.07-2.15,3.28
						c-0.51,1.21-0.74,2.31-0.74,3.44c0,1.67,0.57,2.74,1.65,3.25c1.13,0.48,2.72,0.1,4.87-1.14c2.1-1.22,3.97-2.83,5.61-4.8
						c1.68-2.05,2.85-4.17,3.64-6.46C562.11,1068.39,562.39,1066.13,562.38,1063.33"/><path fill="#0ca6e2" d="M588.23,1026.72c1.82-1.05,3.74-1.46,5.62-1.2l-1.85,6.94c-1.36-0.13-2.67,0.14-4.03,0.93
						c-1.22,0.7-2.29,1.75-3.22,3.15c-0.93,1.35-1.63,2.88-2.05,4.63c-0.6,2.55-0.87,5.19-0.87,7.82l0.06,19.46l-5.47,3.16
						l-0.11-37.14l4.91-2.84l0.02,5.64c1.25-3.36,2.42-5.81,3.49-7.24C585.75,1028.58,586.97,1027.44,588.23,1026.72z"/><path fill="#0ca6e2" d="M610.17,1014.05c3.51-2.03,6.41-2.68,8.66-1.93c2.2,0.77,3.66,2.84,4.28,6.25l-5.33,4.05
						c-0.47-2.26-1.42-3.6-2.68-4.1c-1.31-0.53-2.86-0.23-4.68,0.82c-2.76,1.59-5,4.02-6.73,7.27c-1.72,3.31-2.56,7.34-2.54,12.29
						c0.01,5,0.82,8.14,2.51,9.48c1.69,1.29,3.84,1.17,6.51-0.37c2.15-1.24,3.97-3.05,5.42-5.44c1.4-2.32,2.33-5.17,2.69-8.55
						l5.38-2.3c-0.55,4.62-2.04,8.82-4.46,12.64c-2.42,3.82-5.42,6.73-8.92,8.76c-4.44,2.57-8,2.95-10.72,1.18
						c-2.68-1.79-4.05-5.74-4.06-11.97c-0.01-3.98,0.59-7.88,1.7-11.53c1.16-3.68,2.93-6.97,5.27-9.82
						C604.84,1017.88,607.41,1015.64,610.17,1014.05z"/><path fill="#0ca6e2" d="M633.75,987.14l0.05,18.38c2.56-4.87,5.79-8.45,9.67-10.7c2.39-1.38,4.49-2.05,6.23-1.93
						c1.78,0.05,3.05,0.82,3.8,2.27c0.8,1.48,1.18,4.05,1.19,7.65l0.07,23.54l-5.47,3.16l-0.07-23.54c-0.01-3.12-0.62-5.08-1.8-5.85
						c-1.22-0.7-2.91-0.48-5.06,0.77c-1.64,0.94-3.18,2.32-4.58,4.1c-1.45,1.8-2.47,3.74-3.08,5.76c-0.6,1.96-0.88,4.44-0.87,7.34
						l0.06,20.32l-5.47,3.16l-0.15-51.27L633.75,987.14z"/><polygon fill="#0ca6e2" points="670.87 1009.9 670.89 1017.05 664.62 1020.67 664.6 1013.52"/><polygon fill="#0ca6e2" points="688.18 999.91 688.2 1007.06 681.98 1010.65 681.96 1003.5"/><polygon fill="#0ca6e2" points="705.53 989.89 705.55 997.04 699.28 1000.66 699.26 993.51"/></g><g><polygon fill="#373b42" points="2168.17 949.68 2201.47 930.34 2201.63 875.74 2168.33 895.09"/><path fill="#373b42" d="M2168.17,951.63c-0.34,0-0.67-0.09-0.97-0.26c-0.6-0.35-0.97-0.99-0.97-1.69l0.16-54.6
					c0-0.69,0.37-1.33,0.97-1.68l33.3-19.35c0.61-0.35,1.35-0.35,1.96,0c0.6,0.35,0.97,0.99,0.97,1.69l-0.16,54.6
					c0,0.69-0.37,1.33-0.97,1.68l-33.3,19.35C2168.85,951.55,2168.51,951.63,2168.17,951.63z M2170.28,896.21l-0.15,50.08
					l29.39-17.08l0.15-50.08L2170.28,896.21z"/><path fill="#f0f2f5" d="M1735.31,274.38c5.5-3.23,13.17-2.79,21.55,2.09l426.6,246.27c16.84,9.68,30.36,33.24,30.27,52.43
					l-0.87,310.65c0,9.6-3.4,16.31-8.9,19.54l33.31-19.37c5.5-3.23,8.9-9.94,8.9-19.54l0.87-310.56
					c0.09-19.28-13.52-42.83-30.27-52.52l-426.6-246.27c-8.38-4.89-16.05-5.32-21.55-2.09L1735.31,274.38z"/><path fill="#373b42" d="M2203.97,907.32c-0.67,0-1.32-0.35-1.68-0.97c-0.54-0.93-0.23-2.12,0.69-2.66
					c5.12-3.01,7.94-9.35,7.94-17.86l0.87-310.65c0.09-18.64-13.05-41.4-29.29-50.73l-426.61-246.27
					c-7.34-4.29-14.44-5.06-19.49-2.15l-0.1,0.06c-0.94,0.53-2.12,0.22-2.66-0.7c-0.54-0.93-0.23-2.12,0.69-2.66
					c0.04-0.02,0.08-0.05,0.11-0.06l33.2-19.31c6.3-3.69,14.86-2.95,23.51,2.1l426.6,246.27c17.31,10.01,31.33,34.33,31.25,54.21
					l-0.88,310.56c0,9.95-3.5,17.49-9.85,21.22l-33.3,19.37c0,0-0.01,0-0.01,0.01v0l-0.01,0.01
					C2204.64,907.23,2204.3,907.32,2203.97,907.32z M1745.81,270.53c3.85,0.44,7.93,1.87,12.03,4.26l426.6,246.27
					c17.32,9.96,31.33,34.24,31.24,54.12l-0.87,310.64c0,4.68-0.78,8.82-2.25,12.29l23.73-13.8c5.11-3,7.93-9.34,7.93-17.86
					l0.88-310.56c0.08-18.64-13.07-41.44-29.3-50.83l-426.61-246.27c-7.39-4.31-14.54-5.07-19.58-2.1L1745.81,270.53z"/><path fill="#fff" d="M1756.89,276.45c-16.77-9.68-30.4-1.84-30.46,17.42l-0.88,310.6c-0.05,19.26,13.49,42.79,30.26,52.47
					l357.65,206.48l54.71,86.27l0.15-54.59l14.09,8.14c16.77,9.68,30.4,1.84,30.46-17.42l0.88-310.6
					c0.05-19.26-13.49-42.79-30.26-52.47L1756.89,276.45z"/><path fill="#373b42" d="M2168.17,951.63c-0.66,0-1.28-0.33-1.64-0.91l-54.45-85.87l-357.24-206.24
					c-17.28-9.97-31.28-34.27-31.23-54.16l0.88-310.6c0.03-10.04,3.56-17.57,9.92-21.24c6.37-3.67,14.73-2.91,23.46,2.14
					l426.61,246.29c17.28,9.97,31.29,34.27,31.23,54.16l-0.88,310.6c-0.03,10.03-3.55,17.57-9.91,21.23
					c-6.39,3.68-14.73,2.92-23.47-2.13l-11.17-6.45l-0.15,51.23c0,0.86-0.58,1.63-1.41,1.87
					C2168.53,951.61,2168.35,951.63,2168.17,951.63z M1743.32,274.24c-2.56,0-4.91,0.59-6.97,1.77c-5.11,2.94-7.93,9.28-7.96,17.87
					l-0.88,310.59c-0.05,18.65,13.08,41.43,29.28,50.78l357.65,206.48c0.27,0.16,0.5,0.38,0.67,0.64l51.14,80.63l0.14-47.92
					c0-0.69,0.37-1.34,0.97-1.68c0.61-0.34,1.34-0.35,1.95,0l14.09,8.14c7.49,4.33,14.46,5.07,19.58,2.13
					c5.11-2.94,7.93-9.29,7.96-17.86l0.88-310.6c0.05-18.65-13.09-41.43-29.28-50.78l-426.61-246.29
					C1751.43,275.55,1747.14,274.24,1743.32,274.24z"/><path fill="#dbdee4" d="M1936.76,523.5c-6.91-3.99-12.5-0.8-12.52,7.13c-0.02,7.94,5.53,17.62,12.44,21.6l180.15,104
						c6.91,3.99,12.55,0.77,12.57-7.16c0.02-7.94-5.58-17.58-12.49-21.57L1936.76,523.5z"/><path fill="#fff" d="M2042.68,660.22c-6.91-3.99-12.5-0.8-12.52,7.13c-0.02,7.94,5.53,17.62,12.44,21.6l74.23,42.85
						c6.91,3.99,12.55,0.77,12.57-7.16c0.02-7.94-5.58-17.58-12.49-21.57L2042.68,660.22z"/><path fill="#373b42" d="M2122.43,735.48c-2.06,0-4.3-0.66-6.59-1.98l-74.22-42.86c-7.55-4.36-13.44-14.59-13.42-23.29
						c0.02-4.55,1.66-8,4.64-9.71c2.97-1.72,6.81-1.4,10.8,0.89l0,0l74.23,42.86c7.58,4.37,13.49,14.59,13.46,23.26
						c-0.01,4.55-1.66,8-4.65,9.72C2125.4,735.11,2123.97,735.48,2122.43,735.48z M2037.07,660.45c-0.85,0-1.62,0.19-2.28,0.57
						c-1.72,0.99-2.67,3.24-2.68,6.34c-0.02,7.19,5.23,16.31,11.47,19.91l74.22,42.86c2.73,1.57,5.19,1.87,6.94,0.87
						c1.74-1,2.7-3.26,2.7-6.35c0.02-7.29-5.15-16.2-11.51-19.88l-74.23-42.86C2040.02,660.94,2038.44,660.45,2037.07,660.45z"/><g><path fill="#f0f2f5" d="M1490.24,402.29c5.5-3.23,13.17-2.79,21.64,2.09l426.52,246.27c16.75,9.68,30.36,33.15,30.36,52.43
					l-0.87,310.65c-0.09,9.6-3.4,16.31-8.9,19.45l33.31-19.37c5.41-3.14,8.81-9.86,8.9-19.45l0.87-310.65
					c0-19.28-13.61-42.75-30.36-52.43l-426.52-246.27c-8.46-4.88-16.14-5.32-21.64-2.09L1490.24,402.29z"/><path fill="#373b42" d="M1958.98,1035.13c-0.67,0-1.32-0.35-1.69-0.97c-0.53-0.93-0.22-2.12,0.71-2.66l0.19-0.11
					c4.91-2.91,7.66-9.18,7.74-17.68l0.87-310.63c0-18.61-13.18-41.38-29.38-50.74L1510.9,406.07c-7.52-4.34-14.48-5.09-19.59-2.15
					l-0.08,0.05c-0.01,0-0.01,0-0.01,0.01l-0.01,0c-0.94,0.54-2.12,0.22-2.67-0.7c-0.54-0.93-0.23-2.12,0.69-2.67
					c0.01,0,0.01,0,0.01,0h0.01c0.03-0.02,0.07-0.04,0.11-0.06l33.2-19.31c6.39-3.75,14.78-3.01,23.59,2.09l426.52,246.27
					c17.28,9.99,31.33,34.27,31.33,54.12l-0.88,310.65c-0.08,9.99-3.59,17.49-9.86,21.14l-33.1,19.24
					c-0.08,0.05-0.15,0.09-0.23,0.13C1959.64,1035.05,1959.3,1035.13,1958.98,1035.13z M1500.8,398.4
					c3.81,0.45,7.87,1.88,12.05,4.29l426.52,246.27c17.28,9.98,31.33,34.26,31.33,54.12l-0.87,310.65
					c-0.05,4.66-0.82,8.78-2.27,12.21l23.75-13.81c5.04-2.92,7.85-9.24,7.93-17.78l0.88-310.64c0-18.61-13.18-41.37-29.38-50.74
					L1544.2,386.69c-7.57-4.37-14.54-5.1-19.67-2.1L1500.8,398.4z"/></g><g><path fill="#fff" d="M1511.87,404.39c-16.77-9.68-30.46-1.94-30.51,17.32l-0.88,310.66c-0.05,19.26,13.55,42.76,30.31,52.44
					l14.04,8.1l-0.15,54.59l55.07-22.89l357.59,206.45c16.77,9.68,30.46,1.94,30.51-17.32l0.88-310.66
					c0.05-19.26-13.55-42.76-30.31-52.44L1511.87,404.39z"/><path fill="#373b42" d="M1950.99,1037.2c-4.53,0-9.51-1.49-14.63-4.45L1579.6,826.79l-54.18,22.52c-0.6,0.25-1.3,0.18-1.83-0.18
					c-0.55-0.36-0.87-0.97-0.87-1.62l0.15-53.46l-13.06-7.54c-17.31-9.99-31.35-34.28-31.29-54.13l0.88-310.66
					c0.03-9.99,3.54-17.5,9.88-21.15c6.41-3.69,14.77-2.93,23.55,2.15l0,0l426.55,246.26c17.31,9.99,31.34,34.28,31.29,54.13
					l-0.88,310.66c-0.03,9.99-3.54,17.51-9.88,21.16C1957.24,1036.44,1954.23,1037.2,1950.99,1037.2z M1579.75,822.67
					c0.34,0,0.68,0.09,0.97,0.26l357.59,206.45c7.52,4.34,14.53,5.11,19.65,2.14c5.09-2.93,7.91-9.24,7.93-17.78l0.88-310.66
					c0.05-18.61-13.11-41.38-29.34-50.75l-426.55-246.26c-7.51-4.33-14.5-5.11-19.66-2.14c-5.09,2.93-7.9,9.25-7.93,17.78
					l-0.88,310.66c-0.06,18.61,13.1,41.38,29.34,50.75l14.03,8.11c0.6,0.35,0.97,0.99,0.97,1.69l-0.14,51.66l52.37-21.76
					C1579.24,822.72,1579.49,822.67,1579.75,822.67z"/></g><g><path fill="#1fb6ff" d="M1852.38,715.36l-0.43,151.95c-0.09,14.15-10.07,19.8-22.4,12.76l-210.48-121.56
				c-12.33-7.12-22.32-24.4-22.23-38.55l0.43-151.87c0-14.07,9.98-19.8,22.31-12.68l210.57,121.56
				C1842.48,684.1,1852.38,701.29,1852.38,715.36z"/></g></g><g><path fill="#fff" d="M1686.38,661.58c1.3,0.75,2.37,1.94,3.24,3.61c0.88,1.64,1.29,3.3,1.29,5.01c-0.01,2.58-1.02,3.9-3.08,3.89
					l-41.06,0.25l40.93,47.58c2.05,2.37,3.05,4.85,3.04,7.43c0,1.71-0.43,2.89-1.31,3.51c-0.88,0.65-1.95,0.61-3.25-0.14
					c-0.61-0.35-1.22-0.87-1.82-1.51l-45.34-52.97c-2.72-3.16-4.07-6.53-4.06-10.11l0-1.2c0.01-3.59,1.38-5.38,4.11-5.42l45.49-0.51
					C1685.16,661.04,1685.77,661.23,1686.38,661.58z"/><path fill="#fff" d="M1737.51,662.44c1.38,0.8,2.49,2.04,3.37,3.75c0.86,1.68,1.29,3.37,1.29,5.08c0,0.39-0.04,0.79-0.11,1.19
					c-0.09,0.41-0.17,0.67-0.23,0.85l-30.51,98.36c-0.3,1.03-0.84,1.71-1.6,2.07c-0.76,0.36-1.7,0.22-2.83-0.43
					c-1.38-0.8-2.49-2.04-3.37-3.75c-0.86-1.68-1.29-3.37-1.29-5.08c0-0.39,0.04-0.79,0.11-1.19c0.09-0.41,0.15-0.71,0.23-0.85
					l30.49-98.37c0.32-1.02,0.84-1.71,1.6-2.07C1735.44,661.65,1736.38,661.79,1737.51,662.44z"/><path fill="#fff" d="M1758.2,703.04c0.69,0.4,1.3,0.92,1.82,1.51l45.36,52.96c2.72,3.19,4.07,6.55,4.06,10.14l0,1.2
					c-0.01,3.59-1.38,5.38-4.11,5.4l-45.51,0.52c-0.52-0.01-1.13-0.2-1.82-0.59c-1.22-0.7-2.26-1.88-3.18-3.57
					c-0.9-1.65-1.35-3.34-1.35-5.05c0.01-2.58,1.04-3.89,3.1-3.88l41.04-0.26l-40.9-47.57c-2.05-2.37-3.07-4.86-3.06-7.44
					c0-1.71,0.47-2.86,1.37-3.48C1755.94,702.31,1756.99,702.34,1758.2,703.04z"/></g><g><path d="M1370.95,2064.72c-23.08,13.33-23.21,34.98-0.27,48.31l215.2,125.96c22.93,13.33,60.32,13.33,83.41,0l555.34-318.71
					c23.15-13.36,23.21-34.98,0.27-48.31l-215.2-125.96c-22.93-13.33-60.26-13.36-83.41,0L1370.95,2064.72z" opacity=".1"/><path fill="#fff" d="M1375.58,1948.98c-23.08,13.33-23.21,34.98-0.27,48.31l215.2,125.96
												c22.93,13.33,60.32,13.33,83.41,0l555.34-318.71c23.15-13.36,23.21-34.98,0.27-48.31l-215.2-125.96
												c-22.93-13.33-60.26-13.36-83.41,0L1375.58,1948.98z"/><path fill="#373b42" d="M1632.16,2135.16c-15.46,0-30.9-3.41-42.63-10.22l-215.2-125.96c-11.68-6.78-18.1-15.93-18.09-25.76
												c0.02-9.89,6.54-19.09,18.37-25.92c0,0,0,0,0.01,0l555.34-318.71c23.61-13.63,61.9-13.62,85.36,0l215.2,125.96
												c11.7,6.8,18.12,15.94,18.11,25.76c-0.02,9.88-6.55,19.08-18.4,25.92l-555.35,318.72
												C1663.09,2131.75,1647.62,2135.16,1632.16,2135.16z M1376.56,1950.66L1376.56,1950.66
												c-10.58,6.11-16.41,14.12-16.42,22.56c-0.01,8.38,5.73,16.33,16.16,22.38l215.2,125.96c22.39,13,58.91,13,81.45,0
												l555.35-318.72c10.58-6.11,16.42-14.12,16.44-22.55c0.01-8.37-5.73-16.32-16.18-22.39l-215.2-125.96
												c-22.38-13.01-58.92-13-81.45,0L1376.56,1950.66z"/><path fill="#bec4cd" d="M2247.05,1850.29c0.09,8.76-5.78,17.61-17.43,24.29l-555.41,318.72c-4.79,2.8-10.29,5.06-16.16,6.59
												c-8.67,2.44-18.15,3.43-27.63,3.25c-8.04-0.09-15.98-1.18-23.39-3.25c-5.87-1.53-11.38-3.79-16.16-6.59l-215.19-125.86
												c-11.47-6.77-17.16-15.44-17.16-24.11l-0.36-69.98c0.09,8.67,5.78,17.34,17.16,23.93l215.1,125.95
												c4.97,2.89,10.57,5.06,16.62,6.68c7.41,2.08,15.35,3.07,23.39,3.25c9.48,0.18,18.96-0.99,27.63-3.52
												c5.78-1.53,11.11-3.7,15.89-6.41l555.41-318.81c11.47-6.59,17.34-15.53,17.34-24.2L2247.05,1850.29z"/><path fill="#f0f2f5" d="M1658.05,2129.64v70.25c-8.67,2.44-18.15,3.43-27.63,3.25c-8.04-0.09-15.98-1.18-23.39-3.25v-69.98
											c7.41,2.08,15.35,3.07,23.39,3.25C1639.9,2133.34,1649.38,2132.17,1658.05,2129.64z"/><g><path fill="#373b42" d="M1632.8,2205.16c-0.8,0-1.61-0.01-2.42-0.03c-15.4-0.28-29.78-3.88-40.49-10.13l-215.22-125.92
												c-11.67-6.86-18.08-16.01-18.08-25.78l-0.35-69.92c-0.01-1.08,0.86-1.95,1.93-1.96c0.01,0,0.01,0,0.02,0
												c1.07,0,1.93,0.86,1.95,1.93c0.09,8.31,5.82,16.22,16.15,22.26l215.13,125.92c10.26,5.97,24.11,9.42,39.04,9.69
												c16.26,0.3,31.1-3.18,42.47-9.69l555.47-318.77c10.36-6.01,16.3-14.21,16.3-22.49c0-1.07,0.87-1.95,1.94-1.95
												c0.01,0,0.01,0,0.01,0c1.07,0,1.94,0.87,1.95,1.94l0.35,70.01c0.09,9.94-6.43,19.16-18.36,25.98l-555.38,318.77
												C1663.88,2201.58,1648.9,2205.16,1632.8,2205.16z M1360.2,1986.14l0.29,57.15c0,8.34,5.74,16.3,16.16,22.43
												l215.21,125.92c10.13,5.92,23.85,9.33,38.6,9.6c16.38,0.44,31.51-3.05,42.82-9.6l555.39-318.78
												c10.65-6.09,16.48-14.1,16.39-22.56c0,0,0-0.01,0-0.01l-0.29-57.39c-3.1,4.96-8,9.51-14.42,13.23l-555.48,318.77
												c-11.98,6.86-27.82,10.57-44.48,10.21c-15.58-0.28-30.11-3.91-40.93-10.22l-215.13-125.92
												C1368.03,1995.3,1363.26,1990.93,1360.2,1986.14z"/></g></g><g><path fill="#fff" d="M1716.56,1914.29c53.43,30.85,53.71,80.82,0.63,111.67c-53.03,30.81-139.31,30.82-192.74-0.03
					c-53.37-30.81-53.66-80.79-0.63-111.61C1576.91,1883.47,1663.19,1883.47,1716.56,1914.29z"/><path fill="#373b42" d="M1621,2050.95c-35.27,0-70.58-7.78-97.52-23.33c-26.53-15.32-41.16-35.8-41.19-57.68
					c-0.03-21.73,14.38-42.08,40.55-57.3c53.52-31.09,140.85-31.12,194.69-0.03c26.56,15.33,41.2,35.83,41.23,57.71
					c0.03,21.73-14.38,42.1-40.59,57.33C1691.44,2043.18,1656.24,2050.95,1621,2050.95z M1620.11,1893.14
					c-34.55,0-69.08,7.62-95.3,22.87c-24.94,14.49-38.65,33.64-38.62,53.92c0.03,20.43,13.96,39.72,39.24,54.31
					c52.79,30.48,138.37,30.49,190.78,0.03c24.96-14.5,38.69-33.66,38.66-53.95c-0.03-20.43-13.98-39.74-39.28-54.34l0,0
					C1689.22,1900.75,1654.64,1893.14,1620.11,1893.14z"/><g><path fill="#1fb6ff" d="M1546.36,1927.47c-14.56,8.41-14.64,21.99-0.17,30.4c14.43,8.39,37.89,8.39,52.45-0.02
						c14.53-8.39,14.6-21.97,0.17-30.36C1584.34,1919.08,1560.88,1919.08,1546.36,1927.47z"/><path fill="#1fb6ff" d="M1607.09,1962.76c-32.69,18.87-32.83,49.46-0.38,68.31l118.32-68.31
						C1692.59,1943.91,1639.75,1943.91,1607.09,1962.76z"/></g></g><g><line x1="1975.03" x2="1675.43" y1="1667.54" y2="1839.48" fill="#fff"/><path fill="#373b42" d="M1675.43,1841.43c-0.67,0-1.33-0.35-1.69-0.98c-0.53-0.93-0.21-2.12,0.72-2.66l299.6-171.94
				c0.93-0.54,2.12-0.22,2.66,0.72c0.53,0.93,0.21,2.12-0.72,2.66l-299.6,171.94C1676.1,1841.34,1675.76,1841.43,1675.43,1841.43z"/><line x1="2031.42" x2="1734.21" y1="1703.3" y2="1873.87" fill="#fff"/><path fill="#373b42" d="M1734.21,1875.83c-0.67,0-1.33-0.35-1.69-0.98c-0.53-0.93-0.21-2.12,0.72-2.66l297.21-170.57
				c0.92-0.53,2.12-0.22,2.66,0.72c0.53,0.93,0.21,2.12-0.72,2.66l-297.21,170.57C1734.87,1875.74,1734.54,1875.83,1734.21,1875.83z
				"/><g><line x1="2090.28" x2="1792.98" y1="1737.65" y2="1908.27" fill="#fff"/><path fill="#373b42" d="M1792.98,1910.22c-0.67,0-1.33-0.35-1.69-0.98c-0.53-0.93-0.21-2.12,0.72-2.66l297.29-170.62
				c0.93-0.53,2.12-0.22,2.66,0.72c0.53,0.93,0.21,2.12-0.72,2.66l-297.29,170.62C1793.65,1910.14,1793.31,1910.22,1792.98,1910.22z
				"/></g><g><line x1="2022.59" x2="1851.75" y1="1844.62" y2="1942.67" fill="#fff"/><path fill="#373b42" d="M1851.75,1944.62c-0.67,0-1.33-0.35-1.69-0.98c-0.53-0.93-0.21-2.12,0.72-2.66l170.84-98.05
				c0.94-0.53,2.12-0.22,2.66,0.72c0.53,0.93,0.21,2.12-0.72,2.66l-170.84,98.05C1852.41,1944.53,1852.08,1944.62,1851.75,1944.62z"/></g></g><g><path fill="#fff" d="M1836.4,1431.22c-11.38,6.57-11.44,17.24-0.13,23.82l144.69,84.09c11.31,6.57,29.73,6.57,41.11,0
						l145.64-84.09c11.38-6.57,11.44-17.24,0.13-23.82l-144.69-84.09c-11.31-6.57-29.73-6.57-41.11,0L1836.4,1431.22z"/><path fill="#dbdee4" d="M2001.49,1545.97c-7.8,0-15.59-1.72-21.52-5.16l-144.69-84.09c-6.08-3.53-9.42-8.35-9.41-13.55
						c0.01-5.24,3.4-10.09,9.55-13.63l145.64-84.09c11.91-6.88,31.23-6.88,43.07,0l144.69,84.09c6.08,3.53,9.42,8.35,9.41,13.56
						c-0.01,5.24-3.4,10.08-9.56,13.63l-145.63,84.08C2017.1,1544.25,2009.29,1545.97,2001.49,1545.97z M2002.62,1344.13
						c-7.09,0-14.19,1.56-19.61,4.69l-145.64,84.09l0,0c-4.9,2.83-7.6,6.47-7.6,10.26c-0.01,3.76,2.65,7.37,7.48,10.18l144.69,84.09
						c10.74,6.26,28.33,6.26,39.16,0l145.63-84.08c4.9-2.83,7.6-6.48,7.61-10.27c0-3.76-2.65-7.37-7.48-10.18l-144.69-84.09
						C2016.8,1345.69,2009.71,1344.13,2002.62,1344.13z M1836.4,1431.22h0.05H1836.4z"/><path fill="#fff" d="M2060.37,1409.21c32.42,18.72,32.59,49.06,0.33,67.81c-32.21,18.72-84.58,18.72-117,0
						c-32.37-18.69-32.54-49.02-0.33-67.74C1975.64,1390.52,2028.01,1390.52,2060.37,1409.21z"/><path fill="#373b42" d="M2002.28,1492.95c-21.53,0-43.1-4.75-59.55-14.25c-16.33-9.43-25.33-22.09-25.36-35.65
						c-0.02-13.48,8.87-26.08,25.02-35.47c32.73-19.02,86.09-19.04,118.96-0.06c16.36,9.44,25.37,22.11,25.39,35.68
						c0.02,13.49-8.89,26.1-25.06,35.5C2045.34,1488.2,2023.82,1492.95,2002.28,1492.95z M2001.89,1397.15
						c-20.86,0-41.7,4.61-57.53,13.81c-14.91,8.66-23.1,20.06-23.09,32.09c0.02,12.11,8.33,23.57,23.41,32.28
						c31.82,18.37,83.42,18.38,115.04,0c14.93-8.67,23.14-20.08,23.12-32.12c-0.02-12.12-8.35-23.59-23.44-32.31
						C2043.53,1401.73,2022.7,1397.15,2001.89,1397.15z"/><g><path fill="#fff" d="M1948.46,1271.98l0.63,165.56c0.02,7.85,5.19,15.7,15.52,21.7c20.74,12.06,54.47,12.06,75.35,0
								c10.49-6.05,15.72-14.01,15.7-21.95l-0.63-165.56c0.02,7.94-5.22,15.9-15.7,21.95c-20.88,12.06-54.61,12.06-75.35,0
								C1953.65,1287.68,1948.48,1279.83,1948.46,1271.98z"/><path fill="#dbdee4" d="M1963.97,1293.68c10.3,5.99,23.82,8.99,37.36,9.03v165.53c-13.33-0.13-26.59-3.1-36.73-8.99
								c-10.33-6-15.49-13.85-15.52-21.7l-0.63-165.56C1948.48,1279.83,1953.65,1287.68,1963.97,1293.68z"/><path fill="#373b42" d="M2002.23,1470.19c-14,0-27.97-3.09-38.6-9.26c-10.61-6.16-16.46-14.46-16.48-23.38l-0.63-165.49
								c0-0.03,0-0.05,0-0.08c0-1.07,0.87-1.95,1.94-1.95h0.01c1.07,0,1.94,0.87,1.95,1.94v0.03c0.04,7.45,5.2,14.55,14.55,19.99
								c20.16,11.71,53.08,11.72,73.4,0c9.52-5.5,14.75-12.69,14.73-20.25v0c0,0,0,0,0,0c0-1.07,0.87-1.95,1.94-1.95h0.01
								c1.07,0,1.94,0.87,1.95,1.94l0.62,165.56c0.02,9.02-5.89,17.42-16.68,23.64C2030.24,1467.1,2016.23,1470.19,2002.23,1470.19z
								 M1950.45,1284.22l0.59,153.31c0.02,7.48,5.19,14.59,14.55,20.02c20.17,11.73,53.1,11.72,73.39,0
								c9.52-5.5,14.75-12.69,14.73-20.26l-0.58-153.33c-2.82,4.25-7.15,8.13-12.82,11.4c-21.38,12.35-56.06,12.34-77.32,0
								C1957.48,1292.16,1953.24,1288.37,1950.45,1284.22z"/><path fill="#fff" d="M1964.18,1250.01c-20.88,12.06-20.99,31.59-0.21,43.67c20.74,12.06,54.47,12.06,75.35,0
								c20.85-12.04,20.96-31.57,0.21-43.63C2018.76,1237.97,1985.03,1237.97,1964.18,1250.01z"/><path fill="#373b42" d="M2001.6,1304.63c-14,0-27.98-3.09-38.61-9.26c-10.64-6.19-16.49-14.52-16.48-23.46
								c0.02-9,5.95-17.37,16.71-23.58l0,0c21.37-12.34,56.05-12.32,77.31,0.04c10.63,6.18,16.47,14.51,16.46,23.44
								c-0.02,8.99-5.94,17.36-16.68,23.56C2029.61,1301.54,2015.6,1304.63,2001.6,1304.63z M1965.16,1251.7
								c-9.5,5.49-14.74,12.67-14.76,20.21c-0.01,7.5,5.15,14.63,14.55,20.09c20.16,11.72,53.09,11.72,73.4,0
								c9.49-5.48,14.71-12.65,14.73-20.19c0.01-7.49-5.15-14.62-14.53-20.07C2018.38,1240.01,1985.46,1239.98,1965.16,1251.7
								L1965.16,1251.7z"/></g><g><path fill="#fff" d="M1966.41,1157.41l0.42,109.66c0.01,5.22,3.45,10.44,10.32,14.43c13.8,8.02,36.23,8.02,50.11,0
								c6.97-4.03,10.46-9.31,10.44-14.6l-0.42-109.66c0.01,5.28-3.47,10.57-10.44,14.6c-13.89,8.02-36.32,8.02-50.11,0
								C1969.86,1167.85,1966.43,1162.63,1966.41,1157.41z"/><path fill="#dbdee4" d="M1976.73,1171.84c6.79,3.95,15.68,5.93,24.61,5.99v109.64c-8.79-0.12-17.5-2.08-24.19-5.97
								c-6.87-3.99-10.3-9.21-10.32-14.43l-0.42-109.66C1966.43,1162.63,1969.86,1167.85,1976.73,1171.84z"/><path fill="#373b42" d="M2002.17,1289.42c-9.43,0-18.85-2.08-26-6.24c-7.26-4.22-11.28-9.94-11.29-16.11l-0.42-109.66
								c0,0,0,0,0,0c0-1.07,0.87-1.95,1.94-1.95h0.01c1.07,0,1.94,0.87,1.95,1.94v0.02c0.02,4.72,3.34,9.25,9.36,12.74
								c13.22,7.69,34.83,7.69,48.15,0c6.11-3.53,9.48-8.11,9.46-12.9l0,0c0,0,0,0,0,0c0-1.07,0.87-1.95,1.94-1.95h0.01
								c1.07,0,1.94,0.87,1.95,1.94l0.42,109.66c0.02,6.25-4.04,12.03-11.41,16.29C2021.03,1287.35,2011.6,1289.42,2002.17,1289.42z
								 M1968.4,1167.52l0.38,99.55c0.02,4.73,3.34,9.26,9.36,12.75c13.22,7.69,34.83,7.69,48.15,0c6.11-3.53,9.48-8.12,9.46-12.91
								l-0.38-99.56c-1.88,2.28-4.42,4.37-7.55,6.18c-14.41,8.32-37.76,8.31-52.07,0
								C1972.71,1171.76,1970.25,1169.73,1968.4,1167.52z"/><path fill="#1fb6ff" d="M1976.87,1142.8c-13.89,8.02-13.96,21.01-0.14,29.04c13.8,8.02,36.23,8.02,50.11,0
								c13.86-8,13.94-21,0.14-29.02C2013.16,1134.79,1990.73,1134.79,1976.87,1142.8z"/><path fill="#373b42" d="M2001.75,1179.76c-9.43,0-18.85-2.08-26-6.24c-7.29-4.24-11.3-9.98-11.29-16.17
								c0.01-6.22,4.07-11.99,11.44-16.24l0,0c14.4-8.31,37.74-8.3,52.07,0.03c7.28,4.23,11.28,9.97,11.27,16.16
								c-0.01,6.22-4.06,11.98-11.41,16.23C2020.61,1177.68,2011.18,1179.76,2001.75,1179.76z M2001.92,1138.73
								c-8.71,0-17.43,1.92-24.08,5.76l0,0c-6.11,3.53-9.48,8.1-9.49,12.88c0,4.74,3.32,9.29,9.36,12.79
								c13.22,7.69,34.83,7.69,48.15,0c6.1-3.52,9.46-8.09,9.46-12.86c0.01-4.74-3.3-9.28-9.34-12.78
								C2019.37,1140.66,2010.65,1138.73,2001.92,1138.73z M1976.87,1142.8h0.05H1976.87z"/><g><linearGradient id="a" x1="2008.646" x2="2008.646" y1="1179.838" y2="1077.503" gradientTransform="translate(-6.808)" gradientUnits="userSpaceOnUse"><stop offset="0" stop-color="#1fb6ff" stop-opacity=".9"/><stop offset="1" stop-color="#fff" stop-opacity="0"/></linearGradient><path fill="url(#a)" d="M2035.2,1072.76v84.26c-0.17,4.82-3.44,9.55-9.72,13.24c-13.16,7.57-34.31,7.57-47.38,0
							c-6.28-3.7-9.46-8.43-9.63-13.24v-84.26H2035.2z"/></g></g></g><g><path fill="#fff" d="M2182.32,2151.2c-14.1-8.14-14.18-21.34-0.17-29.48c14.01-8.14,36.8-8.14,50.9,0
					c14.1,8.14,14.17,21.34,0.16,29.47C2219.2,2159.34,2196.42,2159.34,2182.32,2151.2z"/><path fill="#dbdee4" d="M2207.8,2159.21c-9.57,0-19.14-2.11-26.45-6.33l0,0c-7.47-4.31-11.59-10.17-11.6-16.48
					c-0.01-6.27,4.05-12.09,11.42-16.37c14.53-8.44,38.23-8.44,52.85,0c7.47,4.31,11.59,10.16,11.6,16.47
					c0.01,6.27-4.05,12.09-11.43,16.38C2226.92,2157.1,2217.36,2159.21,2207.8,2159.21z M2183.29,2149.51
					c13.53,7.8,35.48,7.82,48.93,0c6.13-3.56,9.5-8.17,9.49-13c-0.01-4.86-3.43-9.51-9.65-13.1c-13.54-7.82-35.51-7.82-48.94,0
					c-6.13,3.56-9.49,8.17-9.49,12.99C2173.65,2141.27,2177.08,2145.92,2183.29,2149.51L2183.29,2149.51z"/><g><path fill="#1fb6ff" d="M2207.6,2127.16c5.5,0,10.81,1.25,14.59,3.43c3.03,1.75,4.78,3.9,4.78,5.9c0,1.98-1.7,4.1-4.68,5.83
					c-3.75,2.18-9.04,3.43-14.53,3.43c-5.49,0-10.81-1.25-14.58-3.43c-3.04-1.75-4.78-3.91-4.78-5.91c0-1.98,1.7-4.1,4.68-5.83
					C2196.82,2128.41,2202.11,2127.16,2207.6,2127.16z"/></g><g><path fill="#373b42" d="M2083.5,2056.53c5.9,0,11.61,1.34,15.67,3.69c3.26,1.88,5.13,4.19,5.13,6.34c0,2.12-1.83,4.41-5.03,6.27
				c-4.02,2.34-9.71,3.68-15.61,3.68c-5.9,0-11.6-1.34-15.66-3.68c-3.26-1.88-5.13-4.2-5.14-6.35c0-2.12,1.83-4.4,5.03-6.26
				C2071.92,2057.87,2077.6,2056.53,2083.5,2056.53z"/></g></g><g><path fill="#fff" d="M1615.56,1505.76c14.1-8.14,14.18-21.34,0.17-29.48c-14.01-8.14-36.8-8.14-50.9,0
					c-14.1,8.14-14.17,21.34-0.16,29.47S1601.46,1513.9,1615.56,1505.76z"/><path fill="#dbdee4" d="M1590.09,1513.77c-9.57,0-19.13-2.11-26.4-6.33c-7.38-4.29-11.43-10.1-11.42-16.38
					c0.01-6.31,4.13-12.16,11.6-16.47c14.62-8.44,38.32-8.44,52.85,0c7.37,4.29,11.43,10.1,11.42,16.38
					c-0.01,6.31-4.13,12.17-11.6,16.48l0,0C1609.24,1511.66,1599.66,1513.77,1590.09,1513.77z M1590.32,1472.1
					c-8.86,0-17.74,1.96-24.51,5.86c-6.21,3.59-9.64,8.24-9.65,13.1c-0.01,4.82,3.36,9.44,9.49,13c13.45,7.82,35.4,7.82,48.94,0
					c6.21-3.59,9.64-8.25,9.65-13.11c0.01-4.83-3.37-9.45-9.49-13C1608.03,1474.06,1599.18,1472.1,1590.32,1472.1z M1615.56,1505.76
					h0.05H1615.56z"/><path fill="#1fb6ff" d="M1590.28,1481.72c-5.5,0-10.81,1.25-14.59,3.43c-3.03,1.75-4.78,3.9-4.78,5.9c0,1.98,1.7,4.1,4.68,5.83
					c3.75,2.18,9.04,3.43,14.53,3.43c5.49,0,10.81-1.25,14.58-3.43c3.04-1.75,4.78-3.91,4.78-5.91c0-1.98-1.7-4.1-4.68-5.83
					C1601.07,1482.97,1595.77,1481.72,1590.28,1481.72z"/><g><path fill="#373b42" d="M1714.38,1411.09c-5.9,0-11.61,1.34-15.67,3.69c-3.26,1.88-5.13,4.19-5.13,6.34c0,2.12,1.83,4.41,5.03,6.27
				c4.02,2.34,9.71,3.68,15.61,3.68c5.9,0,11.6-1.34,15.66-3.68c3.26-1.88,5.13-4.2,5.14-6.35c0-2.12-1.83-4.4-5.03-6.26
				C1725.97,1412.43,1720.28,1411.09,1714.38,1411.09z"/></g><g><path fill="#373b42" d="M1480.56,1705.69c-5.9,0-11.61,1.34-15.67,3.69c-3.26,1.88-5.13,4.19-5.13,6.34c0,2.12,1.83,4.41,5.03,6.27
				c4.02,2.34,9.71,3.68,15.61,3.68c5.9,0,11.6-1.34,15.66-3.68c3.26-1.88,5.13-4.2,5.14-6.35c0-2.12-1.83-4.4-5.03-6.26
				C1492.14,1707.03,1486.46,1705.69,1480.56,1705.69z"/></g></g></svg>