<svg xmlns="http://www.w3.org/2000/svg" viewBox="0 0 276.34 269.97"><defs><clipPath id="a"><rect width="264.62" height="264.62" x=".37" y="-344.67" fill="none"/></clipPath><clipPath id="b"><rect width="265" height="265" fill="none"/></clipPath></defs><g clip-path="url(#a)"><path fill="#ffbb4e" d="M253.58-80.77c2.38,21.41,2.27,84.91,2.27,84.91L12.46,3.24S4.56-13.53,10.1-80c4.54-54.44,47.64-113.07,86.6-113.07,15.89,0,44.41-.46,55.56-1.11C217.28-198,244.51-162.44,253.58-80.77Z"/></g><rect width="265" height="265" fill="none"/><path fill="#f06c55" d="M26.17,78.36a1.51,1.51,0,0,1-1-.35L11.69,66.86a1.5,1.5,0,0,1,.78-2.65L27,62.53,7.79,21.46A1.5,1.5,0,0,1,10,19.6L41,41.94l9.15-23.56a1.5,1.5,0,0,1,1.3-1,1.53,1.53,0,0,1,1.42.79L66,42.59,90.23,37.3a1.5,1.5,0,0,1,1.73,2L85.19,58a1.5,1.5,0,1,1-2.82-1l5.84-16.19L65.49,45.76A1.51,1.51,0,0,1,63.85,45L51.77,22.5,43.1,44.84a1.51,1.51,0,0,1-1,.89,1.52,1.52,0,0,1-1.31-.22L13,25.42,30.62,63.15a1.51,1.51,0,0,1,0,1.37,1.53,1.53,0,0,1-1.14.76L16.32,66.79,27.13,75.7a1.49,1.49,0,0,1,.2,2.11A1.51,1.51,0,0,1,26.17,78.36Z"/><path fill="#f06c55" d="M146.46,245a1.54,1.54,0,0,1-.84-.26A1.49,1.49,0,0,1,145,243l10.9-36.32-14.76-9.67a1.49,1.49,0,0,1,.07-2.55l19.41-11.13a1.5,1.5,0,1,1,1.49,2.6l-17.28,9.91,13.65,9a1.5,1.5,0,0,1,.61,1.68l-9.81,32.71,22.55-18.37a1.5,1.5,0,0,1,2.42.88l3.27,17.49L195,225.14a1.5,1.5,0,0,1,1.87,0l17.9,14-.38-19.2a1.5,1.5,0,0,1,3-.06l.44,22.36a1.51,1.51,0,0,1-.83,1.38,1.48,1.48,0,0,1-1.59-.17L196,228.23l-18.53,14.9a1.46,1.46,0,0,1-1.46.24,1.49,1.49,0,0,1-1-1.13l-3.27-17.47L147.4,244.63A1.51,1.51,0,0,1,146.46,245Z"/><circle cx="247.65" cy="17.79" r="11.36" fill="#18c5ff" transform="rotate(-75.96 247.645 17.788)"/><path fill="#f06c55" d="M225.2,17.66a7.19,7.19,0,1,1-7.19-7.2A7.19,7.19,0,0,1,225.2,17.66Z"/><path fill="#f06c55" d="M159.19,32.16a4.69,4.69,0,1,1-4.69-4.68A4.69,4.69,0,0,1,159.19,32.16Z"/><circle cx="236.6" cy="39.76" r="4.92" fill="#ffbb4e"/><path fill="#ffbb4e" d="M148.35,43.37A3.41,3.41,0,1,1,144.94,40,3.41,3.41,0,0,1,148.35,43.37Z"/><path fill="#18c5ff" d="M137.83,31.63a5.15,5.15,0,1,1-5.15-5.15A5.15,5.15,0,0,1,137.83,31.63Z"/><g clip-path="url(#b)"><path fill="#00b2e2" d="M120.23,105.31h0a9.14,9.14,0,0,1-11.37-6.06L103,80.07a9.15,9.15,0,0,1,6.07-11.38h0a9.14,9.14,0,0,1,11.37,6.06l5.85,19.19A9.14,9.14,0,0,1,120.23,105.31Z"/><path fill="#18c5ff" d="M227.48,136.32,209.54,82.93l0,0a38.64,38.64,0,0,0-3.95-8.3,39.2,39.2,0,0,0-65-1.73h0l-56.44,17h0a39.1,39.1,0,0,0-50.39,46.34h0l13.51,54.68a28.26,28.26,0,0,0,56.51,0l4.94-43.5h0l16.93-6.63,10.32-3.25h20.37l23.51,29.1a28.25,28.25,0,0,0,47.69-30.31Z"/><rect width="23.75" height="3" x="115.86" y="126.7" fill="#00b5e5" transform="rotate(-16.61 127.693 128.17)"/><circle cx="108.19" cy="140.5" r="12.76" fill="#00b5e5"/><circle cx="149.29" cy="126.18" r="12.76" fill="#00b5e5"/><path fill="#00b5e5" d="M189.13,173.48l-34.45-43.07v5l25.11,31.24A28.09,28.09,0,0,0,192,177.2,28.18,28.18,0,0,1,189.13,173.48Z"/><path fill="#00b5e5" d="M56.55,197.76,43,143.08h0A38.67,38.67,0,0,1,42,134a39.2,39.2,0,0,1,51.5-37.22h0l56.45-17h0a39.2,39.2,0,0,1,50.17-11.92,39.2,39.2,0,0,0-59.51,5.07h0l-56.44,17h0a39.1,39.1,0,0,0-50.39,46.34h0l13.51,54.68a28.26,28.26,0,0,0,16.57,25.73A28.19,28.19,0,0,1,56.55,197.76Z"/><circle cx="111.01" cy="140.78" r="12.76" fill="#ffbb4e" transform="rotate(-20.06 111.014 140.8)"/><circle cx="147.47" cy="128.02" r="12.76" fill="#ffbb4e" transform="rotate(-76.64 147.477 128.014)"/><path fill="#fff" d="M72.39,147.94h0a6.29,6.29,0,0,1-7.66-4.48l-8-30.36a6.28,6.28,0,0,1,4.47-7.66h0a6.29,6.29,0,0,1,7.67,4.47l8,30.36A6.3,6.3,0,0,1,72.39,147.94Z"/><path fill="#fff" d="M45.56,132.27h0A6.31,6.31,0,0,1,50,124.6l30.36-8a6.28,6.28,0,0,1,7.66,4.48h0a6.28,6.28,0,0,1-4.48,7.66l-30.35,8A6.3,6.3,0,0,1,45.56,132.27Z"/><path fill="#fff" d="M185.75,80.62a7.29,7.29,0,1,1-7.29-7.29A7.29,7.29,0,0,1,185.75,80.62Z"/><circle cx="196.69" cy="91.56" r="7.29" fill="#fff"/><circle cx="185.75" cy="109.79" r="7.29" fill="#fff" transform="rotate(-22.39 185.797 109.808)"/><circle cx="167.52" cy="98.85" r="7.29" fill="#fff" transform="rotate(-76.68 167.507 98.854)"/><path fill="#a35d44" d="M91.41,144.33S75.35,132.91,70.14,152c-3.42,12.54-6.09,20.26-9.61,23.4a60.88,60.88,0,0,0-8,8.72l-5,6.58-12.75-55.3a1.88,1.88,0,0,0-3.21-.86c-14.83,15.36-22,42.54-25.33,54.07-3.47,12.16,3.48,32.14,6.08,44.3S33.2,295,33.2,295l45.18-3.86s0-2.61,8.69-33-6-61-6-61h0a13.37,13.37,0,0,1,1.61-11.14l7.86-12.07C101.83,156.49,91.41,144.33,91.41,144.33Z"/><path fill="#a35d44" d="M165.72,119.75s7.68-18.15,22.14-4.62c9.5,8.87,15.82,14,20.46,14.86a62.32,62.32,0,0,1,11.35,3.25l7.71,3L209.2,82.47A1.89,1.89,0,0,1,211.48,80c20.69,5.3,41.08,24.65,49.94,32.74,9.34,8.52,13.91,29.17,18.08,40.89s14.84,63.75,14.84,63.75l-40.49,20.43s-1.36-2.22-24.71-23.54-26.93-55.1-26.93-55.1h0a13.38,13.38,0,0,0-7.22-8.63l-13-6.15C163.23,135.57,165.72,119.75,165.72,119.75Z"/></g></svg>