<svg xmlns="http://www.w3.org/2000/svg" enable-background="new 0 0 3000 2500" viewBox="0 0 3000 2500"><switch><g><rect width="2947.3" height="2432.2" x="26.3" y="33.9" fill="none"/><g opacity=".27"><ellipse cx="1131.6" cy="1736.1" fill="#0f0a26" opacity="0" rx="603.6" ry="87.7" transform="matrix(1 -.00784 .00784 1 -13.58 8.928)"/><ellipse cx="1137.8" cy="1736.1" fill="#0f0a26" opacity=".02" rx="596.1" ry="86.6" transform="matrix(1 -.00786 .00786 1 -13.612 8.998)"/><ellipse cx="1144" cy="1736.1" fill="#0f0a26" opacity=".039" rx="588.5" ry="85.4" transform="matrix(1 -.00788 .00788 1 -13.646 9.069)"/><ellipse cx="1150.2" cy="1736.2" fill="#0f0a26" opacity=".059" rx="581" ry="84.3" transform="matrix(1 -.0079 .0079 1 -13.68 9.14)"/><ellipse cx="1156.3" cy="1736.2" fill="#0f0a26" opacity=".078" rx="573.5" ry="83.1" transform="matrix(1 -.00792 .00792 1 -13.715 9.213)"/><ellipse cx="1162.5" cy="1736.3" fill="#0f0a26" opacity=".098" rx="565.9" ry="82" transform="matrix(1 -.00794 .00794 1 -13.75 9.286)"/><ellipse cx="1168.7" cy="1736.3" fill="#0f0a26" opacity=".118" rx="558.4" ry="80.8" transform="matrix(1 -.00796 .00796 1 -13.787 9.36)"/><ellipse cx="1174.9" cy="1736.3" fill="#0f0a26" opacity=".137" rx="550.9" ry="79.7" transform="matrix(1 -.00798 .00798 1 -13.825 9.436)"/><ellipse cx="1181.1" cy="1736.4" fill="#0f0a26" opacity=".157" rx="543.3" ry="78.5" transform="translate(-13.864 9.512)"/><ellipse cx="1187.3" cy="1736.4" fill="#0f0a26" opacity=".176" rx="535.8" ry="77.4" transform="matrix(1 -.00803 .00803 1 -13.904 9.59)"/><ellipse cx="1193.5" cy="1736.5" fill="#0f0a26" opacity=".196" rx="528.2" ry="76.2" transform="matrix(1 -.00805 .00805 1 -13.945 9.668)"/><ellipse cx="1199.7" cy="1736.5" fill="#0f0a26" opacity=".216" rx="520.7" ry="75.1" transform="matrix(1 -.00808 .00808 1 -13.988 9.747)"/><ellipse cx="1205.9" cy="1736.5" fill="#0f0a26" opacity=".235" rx="513.2" ry="73.9" transform="matrix(1 -.0081 .0081 1 -14.031 9.828)"/><ellipse cx="1212.1" cy="1736.6" fill="#0f0a26" opacity=".255" rx="505.6" ry="72.8" transform="matrix(1 -.00813 .00813 1 -14.076 9.91)"/><ellipse cx="1218.2" cy="1736.6" fill="#0f0a26" opacity=".275" rx="498.1" ry="71.6" transform="matrix(1 -.00816 .00816 1 -14.122 9.993)"/><ellipse cx="1224.4" cy="1736.7" fill="#0f0a26" opacity=".294" rx="490.6" ry="70.5" transform="matrix(1 -.00818 .00818 1 -14.17 10.078)"/><ellipse cx="1230.6" cy="1736.7" fill="#0f0a26" opacity=".314" rx="483" ry="69.3" transform="matrix(1 -.00821 .00821 1 -14.22 10.164)"/><ellipse cx="1236.8" cy="1736.7" fill="#0f0a26" opacity=".333" rx="475.5" ry="68.2" transform="matrix(1 -.00824 .00824 1 -14.27 10.25)"/><ellipse cx="1243" cy="1736.8" fill="#0f0a26" opacity=".353" rx="468" ry="67" transform="matrix(1 -.00827 .00827 1 -14.322 10.34)"/><ellipse cx="1249.2" cy="1736.8" fill="#0f0a26" opacity=".372" rx="460.4" ry="65.9" transform="matrix(1 -.0083 .0083 1 -14.376 10.43)"/><ellipse cx="1255.4" cy="1736.9" fill="#0f0a26" opacity=".392" rx="452.9" ry="64.7" transform="matrix(1 -.00833 .00833 1 -14.432 10.523)"/><ellipse cx="1261.6" cy="1736.9" fill="#0f0a26" opacity=".412" rx="445.4" ry="63.6" transform="matrix(1 -.00837 .00837 1 -14.49 10.617)"/><ellipse cx="1267.8" cy="1737" fill="#0f0a26" opacity=".431" rx="437.8" ry="62.4" transform="matrix(1 -.0084 .0084 1 -14.549 10.713)"/><ellipse cx="1273.9" cy="1737" fill="#0f0a26" opacity=".451" rx="430.3" ry="61.3" transform="matrix(1 -.00844 .00844 1 -14.61 10.81)"/><ellipse cx="1280.1" cy="1737" fill="#0f0a26" opacity=".471" rx="422.8" ry="60.1" transform="matrix(1 -.00847 .00847 1 -14.674 10.91)"/><ellipse cx="1286.3" cy="1737.1" fill="#0f0a26" opacity=".49" rx="415.2" ry="59" transform="matrix(1 -.00851 .00851 1 -14.74 11.013)"/><ellipse cx="1292.5" cy="1737.1" fill="#0f0a26" opacity=".51" rx="407.7" ry="57.8" transform="matrix(1 -.00855 .00855 1 -14.809 11.117)"/><ellipse cx="1298.7" cy="1737.2" fill="#0f0a26" opacity=".529" rx="400.1" ry="56.7" transform="matrix(1 -.0086 .0086 1 -14.88 11.224)"/><ellipse cx="1304.9" cy="1737.2" fill="#0f0a26" opacity=".549" rx="392.6" ry="55.5" transform="matrix(1 -.00864 .00864 1 -14.954 11.334)"/><ellipse cx="1311.1" cy="1737.2" fill="#0f0a26" opacity=".569" rx="385.1" ry="54.4" transform="matrix(1 -.00868 .00868 1 -15.03 11.446)"/><ellipse cx="1317.3" cy="1737.3" fill="#0f0a26" opacity=".588" rx="377.5" ry="53.2" transform="matrix(1 -.00873 .00873 1 -15.11 11.561)"/><ellipse cx="1323.5" cy="1737.3" fill="#0f0a26" opacity=".608" rx="370" ry="52.1" transform="matrix(1 -.00877 .00877 1 -15.193 11.68)"/><ellipse cx="1329.6" cy="1737.4" fill="#0f0a26" opacity=".627" rx="362.5" ry="50.9" transform="matrix(1 -.00882 .00882 1 -15.279 11.8)"/><ellipse cx="1335.8" cy="1737.4" fill="#0f0a26" opacity=".647" rx="354.9" ry="49.8" transform="matrix(1 -.00888 .00888 1 -15.369 11.926)"/><ellipse cx="1342" cy="1737.4" fill="#0f0a26" opacity=".667" rx="347.4" ry="48.6" transform="matrix(1 -.00893 .00893 1 -15.463 12.054)"/><ellipse cx="1348.2" cy="1737.5" fill="#0f0a26" opacity=".686" rx="339.9" ry="47.5" transform="matrix(1 -.00899 .00899 1 -15.56 12.187)"/><ellipse cx="1354.4" cy="1737.5" fill="#0f0a26" opacity=".706" rx="332.3" ry="46.3" transform="matrix(1 -.00905 .00905 1 -15.663 12.323)"/><ellipse cx="1360.6" cy="1737.6" fill="#0f0a26" opacity=".726" rx="324.8" ry="45.2" transform="matrix(1 -.0091 .0091 1 -15.77 12.465)"/><ellipse cx="1366.8" cy="1737.6" fill="#0f0a26" opacity=".745" rx="317.3" ry="44" transform="matrix(1 -.00917 .00917 1 -15.882 12.61)"/><ellipse cx="1373" cy="1737.6" fill="#0f0a26" opacity=".765" rx="309.7" ry="42.9" transform="matrix(1 -.00924 .00924 1 -16 12.762)"/><ellipse cx="1379.2" cy="1737.7" fill="#0f0a26" opacity=".784" rx="302.2" ry="41.7" transform="matrix(1 -.00931 .00931 1 -16.122 12.919)"/><ellipse cx="1385.4" cy="1737.7" fill="#0f0a26" opacity=".804" rx="294.7" ry="40.6" transform="matrix(1 -.00939 .00939 1 -16.252 13.082)"/><ellipse cx="1391.5" cy="1737.8" fill="#0f0a26" opacity=".824" rx="287.1" ry="39.4" transform="matrix(1 -.00947 .00947 1 -16.388 13.25)"/><ellipse cx="1397.7" cy="1737.8" fill="#0f0a26" opacity=".843" rx="279.6" ry="38.3" transform="matrix(1 -.00955 .00955 1 -16.532 13.427)"/><ellipse cx="1403.9" cy="1737.9" fill="#0f0a26" opacity=".863" rx="272.1" ry="37.1" transform="matrix(1 -.00964 .00964 1 -16.683 13.61)"/><ellipse cx="1410.1" cy="1737.9" fill="#0f0a26" opacity=".882" rx="264.5" ry="36" transform="matrix(1 -.00973 .00973 1 -16.843 13.803)"/><ellipse cx="1416.3" cy="1737.9" fill="#0f0a26" opacity=".902" rx="257" ry="34.8" transform="matrix(1 -.00983 .00983 1 -17.012 14.003)"/><ellipse cx="1422.5" cy="1738" fill="#0f0a26" opacity=".922" rx="249.4" ry="33.7" transform="matrix(1 -.00993 .00993 1 -17.191 14.214)"/><ellipse cx="1428.7" cy="1738" fill="#0f0a26" opacity=".941" rx="241.9" ry="32.5" transform="matrix(.9999 -.01 .01 .9999 -17.308 14.375)"/><ellipse cx="1434.9" cy="1738.1" fill="#0f0a26" opacity=".961" rx="234.4" ry="31.4" transform="matrix(.9999 -.01 .01 .9999 -17.307 14.438)"/><ellipse cx="1441.1" cy="1738.1" fill="#0f0a26" opacity=".98" rx="226.8" ry="30.2" transform="matrix(.9999 -.01028 .01028 .9999 -17.8 14.913)"/><ellipse cx="1447.2" cy="1738.1" fill="#0f0a26" rx="219.3" ry="29.1" transform="matrix(.9999 -.01042 .01042 .9999 -18.03 15.172)"/></g><g opacity=".27"><ellipse cx="1414.7" cy="2015.2" fill="#0f0a26" opacity="0" rx="298.6" ry="43.4" transform="matrix(.9998 -.01826 .01826 .9998 -36.562 26.168)"/><ellipse cx="1417.7" cy="2015.2" fill="#0f0a26" opacity=".02" rx="294.8" ry="42.8" transform="matrix(.9998 -.01828 .01828 .9998 -36.598 26.251)"/><ellipse cx="1420.8" cy="2015.2" fill="#0f0a26" opacity=".039" rx="291.1" ry="42.3" transform="rotate(-1.049 1420.632 2014.968)"/><ellipse cx="1423.9" cy="2015.2" fill="#0f0a26" opacity=".059" rx="287.4" ry="41.7" transform="rotate(-1.057 1423.571 2015.29) scale(.99997)"/><ellipse cx="1426.9" cy="2015.2" fill="#0f0a26" opacity=".078" rx="283.6" ry="41.1" transform="rotate(-1.057 1426.678 2015.25) scale(.99997)"/><ellipse cx="1430" cy="2015.2" fill="#0f0a26" opacity=".098" rx="279.9" ry="40.6" transform="rotate(-1.057 1429.78 2015.21) scale(.99997)"/><ellipse cx="1433" cy="2015.1" fill="#0f0a26" opacity=".118" rx="276.2" ry="40" transform="rotate(-1.057 1432.885 2015.168) scale(.99997)"/><ellipse cx="1436.1" cy="2015.1" fill="#0f0a26" opacity=".137" rx="272.5" ry="39.4" transform="rotate(-1.057 1435.987 2015.123) scale(.99997)"/><ellipse cx="1439.2" cy="2015.1" fill="#0f0a26" opacity=".157" rx="268.7" ry="38.8" transform="rotate(-1.057 1439.094 2015.084) scale(.99997)"/><ellipse cx="1442.2" cy="2015.1" fill="#0f0a26" opacity=".176" rx="265" ry="38.3" transform="rotate(-1.057 1442.205 2015.035) scale(.99997)"/><ellipse cx="1445.3" cy="2015.1" fill="#0f0a26" opacity=".196" rx="261.3" ry="37.7" transform="rotate(-1.057 1445.315 2014.99) scale(.99997)"/><ellipse cx="1448.4" cy="2015.1" fill="#0f0a26" opacity=".216" rx="257.6" ry="37.1" transform="rotate(-1.057 1448.424 2014.947) scale(.99997)"/><ellipse cx="1451.4" cy="2015.1" fill="#0f0a26" opacity=".235" rx="253.8" ry="36.6" transform="rotate(-1.057 1451.538 2014.895) scale(.99997)"/><ellipse cx="1454.5" cy="2015.1" fill="#0f0a26" opacity=".255" rx="250.1" ry="36" transform="rotate(-1.057 1454.65 2014.85) scale(.99997)"/><ellipse cx="1457.5" cy="2015.1" fill="#0f0a26" opacity=".275" rx="246.4" ry="35.4" transform="rotate(-1.057 1457.769 2014.796) scale(.99997)"/><ellipse cx="1460.6" cy="2015" fill="#0f0a26" opacity=".294" rx="242.7" ry="34.9" transform="rotate(-1.066 1460.612 2015.09)"/><ellipse cx="1463.7" cy="2015" fill="#0f0a26" opacity=".314" rx="238.9" ry="34.3" transform="matrix(.9998 -.01863 .01863 .9998 -37.283 27.616)"/><ellipse cx="1466.7" cy="2015" fill="#0f0a26" opacity=".333" rx="235.2" ry="33.7" transform="matrix(.9998 -.01866 .01866 .9998 -37.34 27.717)"/><ellipse cx="1469.8" cy="2015" fill="#0f0a26" opacity=".353" rx="231.5" ry="33.2" transform="matrix(.9998 -.01869 .01869 .9998 -37.4 27.82)"/><ellipse cx="1472.8" cy="2015" fill="#0f0a26" opacity=".372" rx="227.7" ry="32.6" transform="matrix(.9998 -.01872 .01872 .9998 -37.461 27.924)"/><ellipse cx="1475.9" cy="2015" fill="#0f0a26" opacity=".392" rx="224" ry="32" transform="matrix(.9998 -.01875 .01875 .9998 -37.525 28.03)"/><ellipse cx="1479" cy="2015" fill="#0f0a26" opacity=".412" rx="220.3" ry="31.4" transform="matrix(.9998 -.01878 .01878 .9998 -37.59 28.138)"/><ellipse cx="1482" cy="2015" fill="#0f0a26" opacity=".431" rx="216.6" ry="30.9" transform="matrix(.9998 -.01882 .01882 .9998 -37.657 28.247)"/><ellipse cx="1485.1" cy="2014.9" fill="#0f0a26" opacity=".451" rx="212.8" ry="30.3" transform="rotate(-1.087 1484.82 2015.081) scale(.99998)"/><ellipse cx="1488.2" cy="2014.9" fill="#0f0a26" opacity=".471" rx="209.1" ry="29.7" transform="rotate(-1.146 1485.178 2015.716)"/><ellipse cx="1491.2" cy="2014.9" fill="#0f0a26" opacity=".49" rx="205.4" ry="29.2" transform="rotate(-1.087 1491.098 2014.947) scale(.99998)"/><ellipse cx="1494.3" cy="2014.9" fill="#0f0a26" opacity=".51" rx="201.7" ry="28.6" transform="rotate(-1.087 1494.237 2014.876) scale(.99998)"/><ellipse cx="1497.3" cy="2014.9" fill="#0f0a26" opacity=".529" rx="197.9" ry="28" transform="rotate(-1.087 1497.383 2014.806) scale(.99998)"/><ellipse cx="1500.4" cy="2014.9" fill="#0f0a26" opacity=".549" rx="194.2" ry="27.5" transform="rotate(-1.087 1500.529 2014.728) scale(.99998)"/><ellipse cx="1503.5" cy="2014.9" fill="#0f0a26" opacity=".569" rx="190.5" ry="26.9" transform="rotate(-1.087 1503.682 2014.653) scale(.99998)"/><ellipse cx="1506.5" cy="2014.9" fill="#0f0a26" opacity=".588" rx="186.7" ry="26.3" transform="matrix(.9998 -.01914 .01914 .9998 -38.296 29.21)"/><ellipse cx="1509.6" cy="2014.9" fill="#0f0a26" opacity=".608" rx="183" ry="25.8" transform="rotate(-1.146 1507.238 2015.18)"/><ellipse cx="1512.6" cy="2014.8" fill="#0f0a26" opacity=".627" rx="179.3" ry="25.2" transform="matrix(.9998 -.01924 .01924 .9998 -38.489 29.479)"/><ellipse cx="1515.7" cy="2014.8" fill="#0f0a26" opacity=".647" rx="175.6" ry="24.6" transform="rotate(-1.146 1513.728 2015.22)"/><ellipse cx="1518.8" cy="2014.8" fill="#0f0a26" opacity=".667" rx="171.8" ry="24.1" transform="matrix(.9998 -.01935 .01935 .9998 -38.698 29.762)"/><ellipse cx="1521.8" cy="2014.8" fill="#0f0a26" opacity=".686" rx="168.1" ry="23.5" transform="rotate(-1.117 1521.635 2014.92) scale(.99999)"/><ellipse cx="1524.9" cy="2014.8" fill="#0f0a26" opacity=".706" rx="164.4" ry="22.9" transform="rotate(-1.117 1524.816 2014.817) scale(.99999)"/><ellipse cx="1528" cy="2014.8" fill="#0f0a26" opacity=".726" rx="160.7" ry="22.3" transform="rotate(-1.117 1528.005 2014.715) scale(.99999)"/><ellipse cx="1531" cy="2014.8" fill="#0f0a26" opacity=".745" rx="156.9" ry="21.8" transform="rotate(-1.117 1531.195 2014.603) scale(.99999)"/><ellipse cx="1534.1" cy="2014.8" fill="#0f0a26" opacity=".765" rx="153.2" ry="21.2" transform="rotate(-1.126 1534.075 2014.757)"/><ellipse cx="1537.1" cy="2014.7" fill="#0f0a26" opacity=".784" rx="149.5" ry="20.6" transform="rotate(-1.131 1537.135 2014.75)"/><ellipse cx="1540.2" cy="2014.7" fill="#0f0a26" opacity=".804" rx="145.7" ry="20.1" transform="rotate(-1.135 1540.197 2014.734)"/><ellipse cx="1543.3" cy="2014.7" fill="#0f0a26" opacity=".824" rx="142" ry="19.5" transform="rotate(-1.146 1543.022 2014.898)"/><ellipse cx="1546.3" cy="2014.7" fill="#0f0a26" opacity=".843" rx="138.3" ry="18.9" transform="rotate(-1.146 1546.256 2014.761)"/><ellipse cx="1549.4" cy="2014.7" fill="#0f0a26" opacity=".863" rx="134.6" ry="18.4" transform="rotate(-1.146 1549.494 2014.615)"/><ellipse cx="1552.4" cy="2014.7" fill="#0f0a26" opacity=".882" rx="130.8" ry="17.8" transform="rotate(-1.154 1552.444 2014.688)"/><ellipse cx="1555.5" cy="2014.7" fill="#0f0a26" opacity=".902" rx="127.1" ry="17.2" transform="rotate(-1.16 1555.503 2014.678)"/><ellipse cx="1558.6" cy="2014.7" fill="#0f0a26" opacity=".922" rx="123.4" ry="16.7" transform="rotate(-1.166 1558.567 2014.663)"/><ellipse cx="1561.6" cy="2014.7" fill="#0f0a26" opacity=".941" rx="119.7" ry="16.1" transform="rotate(-1.174 1561.576 2014.726) scale(1.00001)"/><ellipse cx="1564.7" cy="2014.6" fill="#0f0a26" opacity=".961" rx="115.9" ry="15.5" transform="rotate(-1.174 1564.875 2014.535) scale(1.00001)"/><ellipse cx="1567.8" cy="2014.6" fill="#0f0a26" opacity=".98" rx="112.2" ry="15" transform="rotate(-1.146 1569.288 2013.713)"/><ellipse cx="1570.8" cy="2014.6" fill="#0f0a26" rx="108.5" ry="14.4" transform="matrix(.9998 -.02084 .02084 .9998 -41.635 33.166)"/></g><g opacity=".24"><linearGradient id="a" x1="829.088" x2="1149.371" y1="760.178" y2="760.178" gradientUnits="userSpaceOnUse"><stop offset="0" stop-color="#f58b21"/><stop offset="1" stop-color="#f5b419"/></linearGradient><path fill="url(#a)" d="M991.3,612.4c-88.4,0-161.1,66.1-162.2,147.7c-1.1,81.6,69.6,147.7,158.1,147.7
					c88.4,0,161.1-66.1,162.2-147.7C1150.5,678.6,1079.7,612.4,991.3,612.4z M987.6,877.9c-70.5,0-126.9-52.7-126-117.7
					c0.9-65,58.8-117.7,129.2-117.7s126.9,52.7,126,117.7C1115.9,825.2,1058.1,877.9,987.6,877.9z"/><linearGradient id="b" x1="890.019" x2="1088.44" y1="760.178" y2="760.178" gradientUnits="userSpaceOnUse"><stop offset="0" stop-color="#505faa"/><stop offset="1" stop-color="#8f92c7"/></linearGradient><path fill="url(#b)" d="M990.5,668.7c-54.8,0-99.8,41-100.5,91.5c-0.7,50.5,43.1,91.5,97.9,91.5c54.8,0,99.8-41,100.5-91.5
					C1089.1,709.6,1045.3,668.7,990.5,668.7z M988.4,819.5c-35.5,0-63.9-26.6-63.5-59.3c0.5-32.8,29.6-59.3,65.1-59.3
					c35.5,0,63.9,26.6,63.5,59.3C1053.1,792.9,1023.9,819.5,988.4,819.5z"/><linearGradient id="c" x1="950.522" x2="1027.938" y1="760.178" y2="760.178" gradientUnits="userSpaceOnUse"><stop offset="0" stop-color="#f58b21"/><stop offset="1" stop-color="#f5b419"/></linearGradient><path fill="url(#c)" d="M989.7,724.5c-21.4,0-38.9,16-39.2,35.7c-0.3,19.7,16.8,35.7,38.2,35.7c21.4,0,38.9-16,39.2-35.7
					C1028.2,740.5,1011.1,724.5,989.7,724.5z"/><path fill="#4b5ba7" d="M1198.4,760.8c-0.1,11.4-1.4,22.5-3.5,33.3l-92.7-9.7c2.4-8,3.7-16.3,3.8-24.9c0.5-25.5-9.7-50-28.4-69
						c-9.8-9.9-21.7-18-34.8-23.9l23-90.1c29.3,10.5,56,27.2,77.5,49.2C1179.6,662.5,1199.2,710.4,1198.4,760.8z" opacity=".81"/><path fill="#4b5ba7" d="M949.9,859l-25.7,88.5c-33.8-10-64.6-28.2-89.1-53c-36.1-36.6-55.6-84.4-55-134.4h92.3v0.7
						c-0.3,25.5,9.7,50,28.5,68.9C914.1,843.3,931.1,853.3,949.9,859z" opacity=".81"/><linearGradient id="d" x1="1044.032" x2="1052.01" y1="590.535" y2="590.535" gradientUnits="userSpaceOnUse"><stop offset="0" stop-color="#505faa"/><stop offset="1" stop-color="#2c3c91"/></linearGradient><polygon fill="url(#d)" points="1045.5 601.9 1044 601.4 1050.3 579.2 1052 579.7"/><linearGradient id="e" x1="786.654" x2="1046.736" y1="657.75" y2="657.75" gradientUnits="userSpaceOnUse"><stop offset="0" stop-color="#505faa"/><stop offset="1" stop-color="#2c3c91"/></linearGradient><path fill="url(#e)" d="M809.6,744.2l-22.9-2.7l0.5-3.7l22.9,3.2L809.6,744.2z M810.4,738l-22.8-3.9l0.6-3.5l22.7,4.1L810.4,738
							z M811.6,731.7l-22.6-4.7l0.7-3.5l22.5,5L811.6,731.7z M813,725.3l-22.4-5.4l0.9-3.6l22.3,5.9L813,725.3z M814.7,719.3
							l-22.1-6.6l1-3.4l22,6.9L814.7,719.3z M816.6,713.2l-21.8-7.5l1.2-3.4l21.7,7.7L816.6,713.2z M818.7,707.2l-21.5-8.4l1.3-3.3
							l21.4,8.7L818.7,707.2z M821.2,701.2l-21.2-9.1l1.5-3.4l21,9.5L821.2,701.2z M823.9,695.3l-20.9-9.8l1.7-3.4l20.6,10.4
							L823.9,695.3z M826.7,689.6l-20.4-10.9l1.7-3.2l20.2,11.1L826.7,689.6z M829.9,683.9l-20.1-11.4l1.9-3.3l19.7,12L829.9,683.9z
							 M833.1,678.5l-19.4-12.4l2-3l19.3,12.7L833.1,678.5z M836.7,673.1l-19-13.2l2.1-2.9l18.8,13.4L836.7,673.1z M840.5,667.9
							L822,654l2.3-2.9l18.2,14.2L840.5,667.9z M844.5,662.7l-18-14.5l2.4-2.9l17.6,14.9L844.5,662.7z M848.6,657.8l-17.4-15.1
							l2.4-2.7l17.2,15.4L848.6,657.8z M853,653l-16.9-15.7l2.6-2.7l16.5,16.1L853,653z M857.4,648.4L841.2,632l2.6-2.5l15.9,16.7
							L857.4,648.4z M862.1,643.9l-15.6-17l2.7-2.4l15.4,17.2L862.1,643.9z M867,639.6L852,622.1l2.8-2.4l14.7,17.8L867,639.6z
							 M872,635.5l-14.4-18.1l2.9-2.2l14,18.3L872,635.5z M877.1,631.5l-13.7-18.6l2.9-2.1l13.5,18.8L877.1,631.5z M882.4,627.8
							l-13-19l3-2l12.8,19.2L882.4,627.8z M887.9,624.2l-12.4-19.5l3.1-1.9l12.1,19.7L887.9,624.2z M893.5,620.8l-11.8-19.9l3.2-1.8
							l11.4,20.1L893.5,620.8z M899.1,617.6l-11-20.3l3.3-1.7l10.6,20.5L899.1,617.6z M904.8,614.6l-10.2-20.7l3.2-1.6l10,20.8
							L904.8,614.6z M910.7,611.8l-9.6-21l3.3-1.5l9.2,21.2L910.7,611.8z M916.7,609.2l-8.8-21.3l3.4-1.4l8.5,21.5L916.7,609.2z
							 M922.7,606.8l-8.2-21.6l3.4-1.3l7.8,21.7L922.7,606.8z M928.8,604.6l-7.4-21.9l3.4-1.1l7,22L928.8,604.6z M935,602.6
							l-6.7-22.1l3.5-1l6.2,22.2L935,602.6z M941.3,600.9l-6-22.3l3.6-0.9l5.5,22.4L941.3,600.9z M1040.9,600.6l-3.1-0.8l5.4-22.4
							l3.5,0.9L1040.9,600.6z M947.6,599.3l-5.2-22.5l3.6-0.8l4.7,22.6L947.6,599.3z M1034.6,599.1l-3.1-0.7l4.7-22.6l3.6,0.8
							L1034.6,599.1z M953.9,598l-4.4-22.7l3.5-0.7l4.1,22.7L953.9,598z M1028.3,597.7l-3.2-0.6l3.8-22.8l3.6,0.7L1028.3,597.7z
							 M960.3,596.8l-3.7-22.8l3.6-0.5l3.3,22.8L960.3,596.8z M1021.8,596.6l-3.2-0.5l3.2-22.9l3.6,0.5L1021.8,596.6z M966.8,595.9
							l-3-22.9l3.6-0.4l2.5,22.9L966.8,595.9z M1015.4,595.8l-3.2-0.4l2.4-23l3.6,0.4L1015.4,595.8z M973.2,595.2l-2.2-23l3.6-0.3
							l1.8,23L973.2,595.2z M1008.9,595.1l-3.2-0.3l1.6-23l3.7,0.3L1008.9,595.1z M979.7,594.7l-1.4-23l3.6-0.2l1,23.1L979.7,594.7z
							 M1002.5,594.6l-3.3-0.2l0.9-23.1l3.6,0.2L1002.5,594.6z M986.2,594.4l-0.7-23.1l3.7-0.1l0.2,23.1L986.2,594.4z M996,594.4
							l-3.3,0l0.1-23.1l3.6,0L996,594.4z"/><linearGradient id="f" x1="786.102" x2="809.158" y1="746.753" y2="746.753" gradientUnits="userSpaceOnUse"><stop offset="0" stop-color="#505faa"/><stop offset="1" stop-color="#2c3c91"/></linearGradient><polygon fill="url(#f)" points="809.2 748.3 797.6 748.1 786.1 747 786.3 745.2 797.7 746.4"/><linearGradient id="g" x1="931.514" x2="937.351" y1="931.003" y2="931.003" gradientUnits="userSpaceOnUse"><stop offset="0" stop-color="#f58b21"/><stop offset="1" stop-color="#f5b419"/></linearGradient><polygon fill="url(#g)" points="932.9 942.4 931.5 942 936.9 919.6 937.4 919.7"/><linearGradient id="h" x1="936.415" x2="1186.187" y1="874.653" y2="874.653" gradientUnits="userSpaceOnUse"><stop offset="0" stop-color="#f58b21"/><stop offset="1" stop-color="#f5b419"/></linearGradient><path fill="url(#h)" d="M987.4,949.1l-0.1-23.1l3.3,0L991,949L987.4,949.1z M983.6,949.1L980,949l0.7-23.1l3.4,0.1L983.6,949.1z
							 M994.7,948.9l-0.8-23.1l3.2-0.1l1.2,23L994.7,948.9z M976.3,948.8l-3.6-0.2l1.5-23l3.3,0.2L976.3,948.8z M1002,948.6l-1.6-23
							l3.3-0.3l1.9,23L1002,948.6z M969.1,948.4l-3.7-0.3l2.3-23l3.2,0.3L969.1,948.4z M1009.3,947.9l-2.3-23l3.3-0.4l2.7,22.9
							L1009.3,947.9z M961.7,947.7l-3.7-0.5l3-22.9l3.2,0.4L961.7,947.7z M1016.6,947.1l-3.1-22.9l3.3-0.5l3.5,22.8L1016.6,947.1z
							 M954.4,946.7l-3.7-0.6l3.8-22.8l3.2,0.5L954.4,946.7z M1023.9,946l-3.9-22.8l3.2-0.6l4.3,22.7L1023.9,946z M947.2,945.5
							l-3.6-0.7l4.5-22.6l3.2,0.6L947.2,945.5z M1031.1,944.6l-4.6-22.6l3.2-0.7l5.1,22.5L1031.1,944.6z M940,944.1l-3.6-0.8
							l5.3-22.5l3.2,0.7L940,944.1z M1038.3,943l-5.4-22.4l3.2-0.8l5.8,22.3L1038.3,943z M1045.4,941.2l-6.2-22.2l3.2-0.9l6.5,22.1
							L1045.4,941.2z M1052.5,939.1l-7-22l3.2-1l7.3,21.9L1052.5,939.1z M1059.4,936.8l-7.6-21.8l3.1-1.1l8,21.6L1059.4,936.8z
							 M1066.3,934.2l-8.4-21.5l3-1.2l8.9,21.3L1066.3,934.2z M1073.2,931.4l-9.2-21.2l3-1.3l9.5,21L1073.2,931.4z M1079.8,928.4
							l-9.8-20.9l2.9-1.4l10.2,20.7L1079.8,928.4z M1086.5,925.1l-10.6-20.5l2.9-1.5l10.9,20.3L1086.5,925.1z M1093,921.6
							l-11.3-20.1l2.9-1.7l11.6,20L1093,921.6z M1099.4,917.9l-12-19.7l2.8-1.7l12.3,19.5L1099.4,917.9z M1105.6,914l-12.7-19.3
							l2.7-1.8l13,19.1L1105.6,914z M1111.8,909.8l-13.4-18.8l2.7-1.9l13.7,18.6L1111.8,909.8z M1117.7,905.4l-14-18.4l2.6-2
							l14.3,18.1L1117.7,905.4z M1123.5,900.8l-14.6-17.9l2.5-2.1l15,17.5L1123.5,900.8z M1129.1,896l-15.3-17.2l2.4-2.2l15.6,17
							L1129.1,896z M1134.5,891l-15.9-16.8l2.3-2.2l16.3,16.4L1134.5,891z M1139.8,885.8l-16.5-16.1l2.3-2.4l16.8,15.8L1139.8,885.8
							z M1144.9,880.4l-17.1-15.5l2.1-2.3l17.5,15.1L1144.9,880.4z M1149.7,874.8L1132,860l1.9-2.3L1152,872L1149.7,874.8z
							 M1154.4,869l-18.3-14.1l2-2.6l18.5,13.9L1154.4,869z M1158.8,863.1l-18.8-13.4l1.9-2.7l18.9,13.2L1158.8,863.1z M1163,857
							l-19.2-12.7l1.7-2.6l19.6,12.2L1163,857z M1167,850.7l-19.8-11.9l1.7-2.8l19.9,11.6L1167,850.7z M1170.6,844.3l-20.2-11.2
							l1.5-2.7l20.5,10.5C1171.9,842.1,1171.3,843.2,1170.6,844.3z M1174.1,837.7l-20.6-10.3l1.4-2.9l20.9,9.9L1174.1,837.7z
							 M1177.3,831l-21-9.5l1.3-2.9l21.3,9L1177.3,831z M1180.2,824.2l-21.4-8.5l1.2-3.1l21.5,8.3L1180.2,824.2z M1182.8,817.2
							l-21.8-7.6l1.1-3.2l21.9,7.4L1182.8,817.2z M1185.2,810.2l-22.1-6.7l1-3.2l22.2,6.5L1185.2,810.2z"/><g><linearGradient id="i" x1="1164.878" x2="1187.652" y1="799.339" y2="799.339" gradientUnits="userSpaceOnUse"><stop offset="0" stop-color="#f58b21"/><stop offset="1" stop-color="#f5b419"/></linearGradient><polygon fill="url(#i)" points="1187.2 803 1164.9 797.1 1165.2 795.7 1187.7 801.3"/></g><linearGradient id="j" x1="761.668" x2="996.259" y1="607.719" y2="607.719" gradientUnits="userSpaceOnUse"><stop offset="0" stop-color="#f58b21"/><stop offset="1" stop-color="#f5b419"/></linearGradient><path fill="url(#j)" d="M996.3,524.8l-2.7,69.1H992c-73.7,0-138.1,39.7-168.1,96.9l-62.2-30.1c41.2-80.2,129.2-136,230.3-136
					C993.4,524.6,994.9,524.6,996.3,524.8z" opacity=".82"/><g><path fill="#4b5ba7" d="M1175.9,599.6c-46.2-46.7-111.2-73.9-179.7-74.9l-2.7,69.1c50.9,0.5,99.2,20.1,133,54.3
						c9.8,9.9,18,20.7,24.8,32.2l58.8-36.3C1200.8,628.1,1189.3,613.3,1175.9,599.6z M806,760.6c0.3-24.9,6.7-48.6,17.9-69.8
						l-62.2-30.1c-15.6,30.1-24.5,63.7-24.9,99c-0.8,60,22.6,117.2,65.8,161.1c14.1,14.2,29.9,26.7,47.1,37
						c9.7-18.7,21-40.5,32.1-61.6c-10.8-6.9-20.9-15-29.9-24.1C821.7,841.6,805.4,801.9,806,760.6z"/></g><linearGradient id="k" x1="849.596" x2="1241.718" y1="819.925" y2="819.925" gradientUnits="userSpaceOnUse"><stop offset="0" stop-color="#f58b21"/><stop offset="1" stop-color="#f5b419"/></linearGradient><path fill="url(#k)" d="M1241.7,760.6c-1.8,129.7-116.3,235.2-255.2,235.2c-48.9,0-96.6-13.4-136.9-38c9.7-18.7,21-40.5,32.1-61.6
					c30.3,19.6,66.9,30.3,104.8,30.3c101.2,0,184.7-74.9,186-166.9c0.3-27.9-6.9-55.2-21-79.3l58.8-36.3
					C1231.3,679.3,1242.3,719.3,1241.7,760.6z" opacity=".82"/><linearGradient id="l" x1="730.655" x2="995.557" y1="588.016" y2="588.016" gradientUnits="userSpaceOnUse"><stop offset="0" stop-color="#f58b21"/><stop offset="1" stop-color="#f5b419"/></linearGradient><path fill="url(#l)" d="M995.6,494.3l-3,78.1h-1.8c-83.3,0-156,44.8-189.8,109.5l-70.2-34c46.5-90.6,145.9-153.6,260.1-153.6
					C992.3,494.2,994,494.2,995.6,494.3z" opacity=".61"/><path fill="#4b5ba7" d="M1272.7,760.6c-0.7,51-16.8,98.5-44.3,139l-70.4-35.4c22.5-30,36-66,36.5-104.7
					c0.5-31.5-7.8-62.2-23.7-89.4l66.5-41.1C1261,668.8,1273.3,714,1272.7,760.6z" opacity=".49"/><path fill="#4b5ba7" d="M1222.8,912.2c-51,75.9-141.6,126.6-243.9,126.6c-20.8,0-41.3-2.2-61.2-6.2l18.2-76.2
					c14,2.8,28.4,4.2,42.9,4.2c71.7,0,135.5-33.3,173.5-83.8L1222.8,912.2z"/></g><linearGradient id="m" x1="1682.644" x2="2264.708" y1="1133.405" y2="235.644" gradientUnits="userSpaceOnUse"><stop offset="0" stop-color="#f58b21"/><stop offset="1" stop-color="#bc6208"/></linearGradient><path fill="url(#m)" d="M1403.1,460.6l962.5,108.3c34.6,3.9,59.1,35.8,54,70.2l-99.9,668.1c-4.9,32.7-34.8,55.7-67.7,52
					L1289.4,1251c-34.6-3.9-59.1-35.8-54-70.2l99.9-668.1C1340.3,479.9,1370.2,456.9,1403.1,460.6z"/><linearGradient id="n" x1="1219.379" x2="2404.859" y1="890.777" y2="890.777" gradientUnits="userSpaceOnUse"><stop offset="0" stop-color="#f58b21"/><stop offset="1" stop-color="#f5b419"/></linearGradient><path fill="url(#n)" d="M2404.1,619.9l-7.1,48.4l-92.8,619.8c-4.8,32.6-34.7,55.8-67.5,52l-962.6-108.3
					c-34.7-3.8-59.1-35.7-54-70.1l92-615.5l7.9-52.8c5.1-32.6,34.9-55.8,67.8-52l962.6,108.3C2385,553.6,2409.5,585.5,2404.1,619.9z
					"/><path fill="#fff" d="M2243.6,1318.9c-1.5,0-3-0.1-4.5-0.3l-962.5-108.3c-10.8-1.2-20.5-6.7-27.1-15.3
					c-6.6-8.7-9.4-19.4-7.8-30.2l99.9-668.1c2.9-19.4,19.8-34,39.3-34c1.5,0,3,0.1,4.5,0.3l962.5,108.3c10.9,1.2,20.5,6.7,27.2,15.3
					c6.6,8.7,9.4,19.4,7.8,30.2l-99.9,668.1C2280,1304.3,2263.1,1318.9,2243.6,1318.9z"/><linearGradient id="o" x1="1312.055" x2="2404.859" y1="554.667" y2="554.667" gradientUnits="userSpaceOnUse"><stop offset="0" stop-color="#f58b21"/><stop offset="1" stop-color="#f5b419"/></linearGradient><path fill="url(#o)" d="M2404.1,619.9l-7.1,48.4L1312.1,546.2l7.9-52.8c5.1-32.6,34.9-55.8,67.8-52l962.6,108.3
					C2385,553.6,2409.5,585.5,2404.1,619.9z"/><path fill="#c9cce2" d="M1503.3,1220.8l-236-26.8c-8.4-1-14.2-8.2-13-16.3l89.7-596c1.2-8,9-13.8,17.4-12.8l236,26.8
						c8.4,1,14.2,8.2,13,16.3l-89.7,596C1519.4,1216,1511.7,1221.7,1503.3,1220.8z"/><path fill="#e1e4ef" d="M2291.7,914.4L1617,837.8c-8.4-1-14.2-8.2-13-16.3l31.1-206.7c1.2-8,9-13.8,17.4-12.8l674.7,76.7
						c8.4,1,14.2,8.2,13,16.3l-31.1,206.7C2307.9,909.7,2300.1,915.4,2291.7,914.4z"/><path fill="#e1e4ef" d="M2233.1,1303.7l-674.7-76.7c-8.4-1-14.2-8.2-13-16.3l11.8-78.5c1.2-8,9-13.8,17.4-12.8l674.7,76.7
						c8.4,1,14.2,8.2,13,16.3l-11.8,78.5C2249.3,1299,2241.5,1304.7,2233.1,1303.7z"/><path fill="#e1e4ef" d="M1860.9,1133.1l-283.5-32.2c-8.4-1-14.2-8.2-13-16.3l31.1-206.7c1.2-8,9-13.8,17.4-12.8l283.5,32.2
						c8.4,1,14.2,8.2,13,16.3l-31.1,206.7C1877,1128.3,1869.2,1134.1,1860.9,1133.1z"/><path fill="#e1e4ef" d="M2252.1,1177.6l-333.3-37.9c-8.4-1-14.2-8.2-13-16.3l31.1-206.7c1.2-8,9-13.8,17.4-12.8l333.3,37.9
						c8.4,1,14.2,8.2,13,16.3l-31.1,206.7C2268.2,1172.8,2260.5,1178.6,2252.1,1177.6z"/><path fill="#fff" d="M1855.3,843.1L1652.2,820c-8.6-1-14.6-8.5-13.4-16.8l23.1-153.3c1.2-8.3,9.3-14.2,17.9-13.2l203.1,23.1
						c8.6,1,14.6,8.5,13.4,16.8l-23.1,153.3C1872,838.1,1863.9,844,1855.3,843.1z"/><linearGradient id="p" x1="1603.694" x2="1810.357" y1="797.537" y2="797.537" gradientTransform="matrix(.9871 .1183 -.1421 .9917 195.797 -253.055)" gradientUnits="userSpaceOnUse"><stop offset="0" stop-color="#505faa"/><stop offset="1" stop-color="#8f92c7"/></linearGradient><path fill="url(#p)" d="M1655.3,799l20.2-140.5c0.6-3.9,4.3-6.7,8.3-6.2l189.6,20.6c4,0.4,6.9,3.9,6.3,7.8l-21.2,147.5l-1.2,0.9
						l-195.8-22.3C1657.6,806.4,1654.8,802.9,1655.3,799z"/><path fill="#e1e4ef" d="M1683.7,793.9l64.4,7.3c4.4,0.5,7.7-3.8,6-7.6l-24.7-53.6c-1.7-3.6-6.8-4.2-9.5-1.1l-39.7,46.2
						C1677.4,788.5,1679.3,793.5,1683.7,793.9z"/><path fill="#bec2cc" d="M1742.8,800.7l103.5,11.8c4.2,0.5,7.6-3.6,6.1-7.3l-38-97.3c-1.6-4-7.1-4.6-9.8-1.1l-65.5,85.5
						C1736.5,795.5,1738.6,800.2,1742.8,800.7z"/><ellipse cx="1727" cy="692.2" fill="#bec2cc" rx="13.1" ry="12.4" transform="rotate(-14.511 1727.256 692.382)"/><linearGradient id="q" x1="1859.357" x2="2149.739" y1="715.291" y2="715.291" gradientTransform="matrix(.9871 .1183 -.1421 .9917 195.797 -253.055)" gradientUnits="userSpaceOnUse"><stop offset="0" stop-color="#f58b21"/><stop offset="1" stop-color="#f5b419"/></linearGradient><path fill="url(#q)" d="M2212.3,713l-279.9-31.8c-1.9-0.2-3.3-1.9-3-3.8l0.1-0.5c0.3-1.9,2.1-3.2,4-3l279.9,31.8
							c1.9,0.2,3.3,1.9,3,3.8l-0.1,0.5C2216.1,711.9,2214.3,713.3,2212.3,713z"/><path fill="#b0b5c1" d="M2304.3,745.2l-374.8-42.6c-2.1-0.2-3.5-2.1-3.2-4l0,0c0.3-2,2.2-3.4,4.3-3.2l374.8,42.6
							c2.1,0.2,3.5,2.1,3.2,4l0,0C2308.3,744,2306.4,745.4,2304.3,745.2z"/><path fill="#b0b5c1" d="M2301.1,766.5l-374.8-42.6c-2.1-0.2-3.5-2.1-3.2-4l0,0c0.3-2,2.2-3.4,4.3-3.2l374.8,42.6
							c2.1,0.2,3.5,2.1,3.2,4l0,0C2305.1,765.3,2303.2,766.7,2301.1,766.5z"/><path fill="#b0b5c1" d="M2297.9,787.8l-374.8-42.6c-2.1-0.2-3.5-2.1-3.2-4l0,0c0.3-2,2.2-3.4,4.3-3.2l374.8,42.6
							c2.1,0.2,3.5,2.1,3.2,4l0,0C2301.9,786.6,2300,788,2297.9,787.8z"/><path fill="#b0b5c1" d="M2294.7,809.1l-374.8-42.6c-2.1-0.2-3.5-2.1-3.2-4l0,0c0.3-2,2.2-3.4,4.3-3.2l374.8,42.6
							c2.1,0.2,3.5,2.1,3.2,4l0,0C2298.7,807.9,2296.7,809.3,2294.7,809.1z"/><path fill="#b0b5c1" d="M2291.5,830.4l-374.8-42.6c-2.1-0.2-3.5-2.1-3.2-4l0,0c0.3-2,2.2-3.4,4.3-3.2l374.8,42.6
							c2.1,0.2,3.5,2.1,3.2,4l0,0C2295.5,829.2,2293.5,830.6,2291.5,830.4z"/><path fill="#b0b5c1" d="M2288.3,851.7l-374.8-42.6c-2.1-0.2-3.5-2.1-3.2-4l0,0c0.3-2,2.2-3.4,4.3-3.2l374.8,42.6
							c2.1,0.2,3.5,2.1,3.2,4l0,0C2292.3,850.5,2290.3,851.9,2288.3,851.7z"/><path fill="#b0b5c1" d="M2285.1,873l-374.8-42.6c-2.1-0.2-3.5-2.1-3.2-4l0,0c0.3-2,2.2-3.4,4.3-3.2l374.8,42.6
							c2.1,0.2,3.5,2.1,3.2,4v0C2289.1,871.8,2287.1,873.2,2285.1,873z"/><g><linearGradient id="r" x1="1585.067" x2="1709.246" y1="1214.411" y2="1214.411" gradientTransform="matrix(.9871 .1183 -.1421 .9917 195.797 -253.055)" gradientUnits="userSpaceOnUse"><stop offset="0" stop-color="#f58b21"/><stop offset="1" stop-color="#f5b419"/></linearGradient><path fill="url(#r)" d="M1707.7,1156.5l-118.1-13.4c-1.3-0.1-2.1-1.3-2-2.5l0.4-2.8c0.2-1.2,1.4-2.1,2.6-1.9l118.1,13.4
							c1.3,0.1,2.1,1.3,2,2.5l-0.4,2.8C1710.2,1155.8,1709,1156.7,1707.7,1156.5z"/><path fill="#b0b5c1" d="M1745.2,1182.5l-158.5-18c-1.4-0.2-2.3-1.3-2.1-2.6l0.4-2.5c0.2-1.3,1.5-2.2,2.8-2.1l158.5,18
							c1.4,0.2,2.3,1.3,2.1,2.6l-0.4,2.5C1747.8,1181.7,1746.5,1182.6,1745.2,1182.5z"/><path fill="#b0b5c1" d="M1742,1203.8l-158.5-18c-1.4-0.2-2.3-1.3-2.1-2.6l0.4-2.5c0.2-1.3,1.5-2.2,2.8-2.1l158.5,18
							c1.4,0.2,2.3,1.3,2.1,2.6l-0.4,2.5C1744.6,1203,1743.3,1203.9,1742,1203.8z"/><path fill="#b0b5c1" d="M1738.7,1225.1l-158.5-18c-1.4-0.2-2.3-1.3-2.1-2.6l0.4-2.5c0.2-1.3,1.5-2.2,2.8-2.1l158.5,18
							c1.4,0.2,2.3,1.3,2.1,2.6l-0.4,2.5C1741.4,1224.3,1740.1,1225.2,1738.7,1225.1z"/></g><g><linearGradient id="s" x1="1307.705" x2="1431.883" y1="938.292" y2="938.292" gradientTransform="matrix(.9871 .1183 -.1421 .9917 195.797 -253.055)" gradientUnits="userSpaceOnUse"><stop offset="0" stop-color="#f58b21"/><stop offset="1" stop-color="#f5b419"/></linearGradient><path fill="url(#s)" d="M1473.2,849.9l-118.1-13.4c-1.3-0.1-2.1-1.3-2-2.5l0.4-2.8c0.2-1.2,1.4-2.1,2.6-1.9l118.1,13.4
							c1.3,0.1,2.1,1.3,2,2.5l-0.4,2.8C1475.6,849.2,1474.4,850,1473.2,849.9z"/><path fill="#b0b5c1" d="M1510.6,875.8l-158.5-18c-1.4-0.2-2.3-1.3-2.1-2.6l0.4-2.5c0.2-1.3,1.5-2.2,2.8-2.1l158.5,18
							c1.4,0.2,2.3,1.3,2.1,2.6l-0.4,2.5C1513.2,875,1512,876,1510.6,875.8z"/><path fill="#b0b5c1" d="M1507.4,897.1l-158.5-18c-1.4-0.2-2.3-1.3-2.1-2.6l0.4-2.5c0.2-1.3,1.5-2.2,2.8-2.1l158.5,18
							c1.4,0.2,2.3,1.3,2.1,2.6l-0.4,2.5C1510,896.3,1508.7,897.3,1507.4,897.1z"/><path fill="#b0b5c1" d="M1504.2,918.4l-158.5-18c-1.4-0.2-2.3-1.3-2.1-2.6l0.4-2.5c0.2-1.3,1.5-2.2,2.8-2.1l158.5,18
							c1.4,0.2,2.3,1.3,2.1,2.6l-0.4,2.5C1506.8,917.6,1505.5,918.6,1504.2,918.4z"/></g><g><linearGradient id="t" x1="1306.926" x2="1431.105" y1="1046.148" y2="1046.148" gradientTransform="matrix(.9871 .1183 -.1421 .9917 195.797 -253.055)" gradientUnits="userSpaceOnUse"><stop offset="0" stop-color="#f58b21"/><stop offset="1" stop-color="#f5b419"/></linearGradient><path fill="url(#t)" d="M1457.1,956.8L1339,943.3c-1.3-0.1-2.1-1.3-2-2.5l0.4-2.8c0.2-1.2,1.4-2.1,2.6-1.9l118.1,13.4
							c1.3,0.1,2.1,1.3,2,2.5l-0.4,2.8C1459.5,956,1458.3,956.9,1457.1,956.8z"/><path fill="#b0b5c1" d="M1494.5,982.7l-158.5-18c-1.4-0.2-2.3-1.3-2.1-2.6l0.4-2.5c0.2-1.3,1.5-2.2,2.8-2.1l158.5,18
							c1.4,0.2,2.3,1.3,2.1,2.6l-0.4,2.5C1497.1,981.9,1495.9,982.8,1494.5,982.7z"/><path fill="#b0b5c1" d="M1491.3,1004l-158.5-18c-1.4-0.2-2.3-1.3-2.1-2.6l0.4-2.5c0.2-1.3,1.5-2.2,2.8-2.1l158.5,18
							c1.4,0.2,2.3,1.3,2.1,2.6l-0.4,2.5C1493.9,1003.2,1492.7,1004.1,1491.3,1004z"/><path fill="#b0b5c1" d="M1488.1,1025.3l-158.5-18c-1.4-0.2-2.3-1.3-2.1-2.6l0.4-2.5c0.2-1.3,1.5-2.2,2.8-2.1l158.5,18
							c1.4,0.2,2.3,1.3,2.1,2.6l-0.4,2.5C1490.7,1024.5,1489.4,1025.4,1488.1,1025.3z"/></g><g><linearGradient id="u" x1="1306.147" x2="1430.326" y1="1154.005" y2="1154.005" gradientTransform="matrix(.9871 .1183 -.1421 .9917 195.797 -253.055)" gradientUnits="userSpaceOnUse"><stop offset="0" stop-color="#f58b21"/><stop offset="1" stop-color="#f5b419"/></linearGradient><path fill="url(#u)" d="M1441,1063.6l-118.1-13.4c-1.3-0.1-2.1-1.3-2-2.5l0.4-2.8c0.2-1.2,1.4-2.1,2.6-1.9l118.1,13.4
							c1.3,0.1,2.1,1.3,2,2.5l-0.4,2.8C1443.4,1062.9,1442.3,1063.8,1441,1063.6z"/><path fill="#b0b5c1" d="M1478.4,1089.5l-158.5-18c-1.4-0.2-2.3-1.3-2.1-2.6l0.4-2.5c0.2-1.3,1.5-2.2,2.8-2.1l158.5,18
							c1.4,0.2,2.3,1.3,2.1,2.6l-0.4,2.5C1481,1088.8,1479.8,1089.7,1478.4,1089.5z"/><path fill="#b0b5c1" d="M1475.2,1110.9l-158.5-18c-1.4-0.2-2.3-1.3-2.1-2.6l0.4-2.5c0.2-1.3,1.5-2.2,2.8-2.1l158.5,18
							c1.4,0.2,2.3,1.3,2.1,2.6l-0.4,2.5C1477.8,1110.1,1476.6,1111,1475.2,1110.9z"/><path fill="#b0b5c1" d="M1472,1132.2l-158.5-18c-1.4-0.2-2.3-1.3-2.1-2.6l0.4-2.5c0.2-1.3,1.5-2.2,2.8-2.1l158.5,18
							c1.4,0.2,2.3,1.3,2.1,2.6l-0.4,2.5C1474.6,1131.4,1473.4,1132.3,1472,1132.2z"/></g><g><linearGradient id="v" x1="2071.402" x2="2195.581" y1="1211.447" y2="1211.447" gradientTransform="matrix(.9871 .1183 -.1421 .9917 195.797 -253.055)" gradientUnits="userSpaceOnUse"><stop offset="0" stop-color="#f58b21"/><stop offset="1" stop-color="#f5b419"/></linearGradient><path fill="url(#v)" d="M2188.2,1211.2l-118.1-13.4c-1.3-0.1-2.1-1.3-2-2.5l0.4-2.8c0.2-1.2,1.4-2.1,2.6-1.9l118.1,13.4
							c1.3,0.1,2.1,1.3,2,2.5l-0.4,2.8C2190.7,1210.4,2189.5,1211.3,2188.2,1211.2z"/><path fill="#b0b5c1" d="M2225.7,1237.1l-158.5-18c-1.4-0.2-2.3-1.3-2.1-2.6l0.4-2.5c0.2-1.3,1.5-2.2,2.8-2.1l158.5,18
							c1.4,0.2,2.3,1.3,2.1,2.6l-0.4,2.5C2228.3,1236.3,2227,1237.2,2225.7,1237.1z"/><path fill="#b0b5c1" d="M2222.5,1258.4l-158.5-18c-1.4-0.2-2.3-1.3-2.1-2.6l0.4-2.5c0.2-1.3,1.5-2.2,2.8-2.1l158.5,18
							c1.4,0.2,2.3,1.3,2.1,2.6l-0.4,2.5C2225.1,1257.6,2223.8,1258.5,2222.5,1258.4z"/><path fill="#b0b5c1" d="M2219.2,1279.7l-158.5-18c-1.4-0.2-2.3-1.3-2.1-2.6l0.4-2.5c0.2-1.3,1.5-2.2,2.8-2.1l158.5,18
							c1.4,0.2,2.3,1.3,2.1,2.6l-0.4,2.5C2221.9,1278.9,2220.6,1279.8,2219.2,1279.7z"/></g><g><linearGradient id="w" x1="1590.321" x2="1780.236" y1="983.086" y2="983.086" gradientTransform="matrix(.9871 .1183 -.1421 .9917 195.797 -253.055)" gradientUnits="userSpaceOnUse"><stop offset="0" stop-color="#f58b21"/><stop offset="1" stop-color="#f5b419"/></linearGradient><path fill="url(#w)" d="M1810.2,935.3l-181.9-20.7c-1.6-0.2-2.7-1.5-2.4-3l0.3-1.8c0.2-1.5,1.7-2.6,3.3-2.4l181.9,20.7
							c1.6,0.2,2.7,1.5,2.4,3l-0.3,1.8C1813.2,934.4,1811.7,935.5,1810.2,935.3z"/><path fill="#b0b5c1" d="M1869.2,963.6l-243.9-27.7c-1.7-0.2-2.9-1.7-2.6-3.3l0.2-1.4c0.2-1.6,1.8-2.8,3.5-2.6l243.9,27.7
							c1.7,0.2,2.9,1.7,2.6,3.3l-0.2,1.4C1872.4,962.7,1870.8,963.8,1869.2,963.6z"/><path fill="#b0b5c1" d="M1865.9,985L1622,957.2c-1.7-0.2-2.9-1.7-2.6-3.3l0.2-1.4c0.2-1.6,1.8-2.8,3.5-2.6l243.9,27.7
							c1.7,0.2,2.9,1.7,2.6,3.3l-0.2,1.4C1869.2,984,1867.6,985.1,1865.9,985z"/><path fill="#b0b5c1" d="M1862.7,1006.3l-243.9-27.7c-1.7-0.2-2.9-1.7-2.6-3.3l0.2-1.4c0.2-1.6,1.8-2.8,3.5-2.6l243.9,27.7
							c1.7,0.2,2.9,1.7,2.6,3.3l-0.2,1.4C1866,1005.3,1864.4,1006.5,1862.7,1006.3z"/><path fill="#b0b5c1" d="M1859.5,1027.6l-243.9-27.7c-1.7-0.2-2.9-1.7-2.6-3.3l0.2-1.4c0.2-1.6,1.8-2.8,3.5-2.6l243.9,27.7
							c1.7,0.2,2.9,1.7,2.6,3.3l-0.2,1.4C1862.8,1026.6,1861.2,1027.8,1859.5,1027.6z"/><path fill="#b0b5c1" d="M1856.3,1048.9l-243.9-27.7c-1.7-0.2-2.9-1.7-2.6-3.3l0.2-1.4c0.2-1.6,1.8-2.8,3.5-2.6l243.9,27.7
							c1.7,0.2,2.9,1.7,2.6,3.3l-0.2,1.4C1859.6,1047.9,1858,1049.1,1856.3,1048.9z"/><path fill="#b0b5c1" d="M1853.1,1070.2l-243.9-27.7c-1.7-0.2-2.9-1.7-2.6-3.3l0.2-1.4c0.2-1.6,1.8-2.8,3.5-2.6l243.9,27.7
							c1.7,0.2,2.9,1.7,2.6,3.3l-0.2,1.4C1856.4,1069.2,1854.8,1070.4,1853.1,1070.2z"/><path fill="#b0b5c1" d="M1849.9,1091.5l-243.9-27.7c-1.7-0.2-2.9-1.7-2.6-3.3l0.2-1.4c0.2-1.6,1.8-2.8,3.5-2.6l243.9,27.7
							c1.7,0.2,2.9,1.7,2.6,3.3l-0.2,1.4C1853.2,1090.5,1851.6,1091.7,1849.9,1091.5z"/></g><g><linearGradient id="x" x1="1929.106" x2="2165.711" y1="980.88" y2="980.88" gradientTransform="matrix(.9871 .1183 -.1421 .9917 195.797 -253.055)" gradientUnits="userSpaceOnUse"><stop offset="0" stop-color="#f58b21"/><stop offset="1" stop-color="#f5b419"/></linearGradient><path fill="url(#x)" d="M2190.7,978.5l-227.4-25.8c-1.7-0.2-3-1.7-2.7-3.4l0.2-1.2c0.3-1.7,1.9-2.9,3.6-2.7l227.4,25.8
							c1.7,0.2,3,1.7,2.7,3.4l-0.2,1.2C2194.1,977.5,2192.4,978.7,2190.7,978.5z"/><path fill="#b0b5c1" d="M2265.6,1008.7l-208-23.6c-1.6-0.2-2.6-1.5-2.4-3l0.3-1.8c0.2-1.5,1.7-2.6,3.2-2.4l208,23.6
							c1.6,0.2,2.6,1.5,2.4,3l-0.3,1.8C2268.6,1007.8,2267.1,1008.9,2265.6,1008.7z"/><path fill="#b0b5c1" d="M2262.4,1030l-208-23.6c-1.6-0.2-2.6-1.5-2.4-3l0.3-1.8c0.2-1.5,1.7-2.6,3.2-2.4l208,23.6
							c1.6,0.2,2.6,1.5,2.4,3l-0.3,1.8C2265.4,1029.1,2263.9,1030.2,2262.4,1030z"/><path fill="#b0b5c1" d="M2259.2,1051.3l-208-23.6c-1.6-0.2-2.6-1.5-2.4-3l0.3-1.8c0.2-1.5,1.7-2.6,3.2-2.4l208,23.6
							c1.6,0.2,2.6,1.5,2.4,3l-0.3,1.8C2262.2,1050.4,2260.7,1051.5,2259.2,1051.3z"/><path fill="#b0b5c1" d="M2255.4,1072.6l-304.7-34.6c-1.9-0.2-3.2-1.9-2.9-3.7l0.1-0.7c0.3-1.8,2-3.1,3.9-2.9l304.7,34.6
							c1.9,0.2,3.2,1.9,2.9,3.7l-0.1,0.7C2259,1071.5,2257.3,1072.8,2255.4,1072.6z"/><path fill="#b0b5c1" d="M2252.2,1093.9l-304.7-34.6c-1.9-0.2-3.2-1.9-2.9-3.7l0.1-0.7c0.3-1.8,2-3.1,3.9-2.9l304.7,34.6
							c1.9,0.2,3.2,1.9,2.9,3.7l-0.1,0.7C2255.8,1092.8,2254,1094.1,2252.2,1093.9z"/><path fill="#b0b5c1" d="M2249,1115.2l-304.7-34.6c-1.9-0.2-3.2-1.9-2.9-3.7l0.1-0.7c0.3-1.8,2-3.1,3.9-2.9l304.7,34.6
							c1.9,0.2,3.2,1.9,2.9,3.7l-0.1,0.7C2252.6,1114.1,2250.8,1115.4,2249,1115.2z"/><path fill="#b0b5c1" d="M2245.8,1136.5l-304.7-34.6c-1.9-0.2-3.2-1.9-2.9-3.7l0.1-0.7c0.3-1.8,2-3.1,3.9-2.9l304.7,34.6
							c1.9,0.2,3.2,1.9,2.9,3.7l-0.1,0.7C2249.4,1135.4,2247.6,1136.7,2245.8,1136.5z"/><path fill="#b0b5c1" d="M1967.6,1026.2l-10.3-59.8l9.7,1.1l5.2,39.1c0.6,4.1,1,8.1,1.2,12.1c2.8-6,4.4-9.4,4.8-10.3l19.5-37.4
								l11.4,1.3l5.9,30.4c1.5,7.5,2.3,14.6,2.5,21.1c1.5-3.5,3.3-7.6,5.5-12.2l16.8-35.8l9.5,1.1l-28.3,55.5l-9.1-1l-8.5-45.7
								c-0.7-3.8-1.1-6.2-1.2-7c-1.2,2.6-2.2,4.8-3.1,6.5l-21.8,42.2L1967.6,1026.2z"/></g><g><linearGradient id="y" x1="3019.211" x2="2939.675" y1="892.871" y2="688.349" gradientTransform="matrix(-.9871 -.1183 -.1421 .9917 4518.248 265.147)" gradientUnits="userSpaceOnUse"><stop offset="0" stop-color="#f58b21"/><stop offset="1" stop-color="#f5b419"/></linearGradient><path fill="url(#y)" d="M1368.6,706.3c-3.4,22.7,3.3,44.5,16.7,61.1c13.2,16.4,33.2,27.7,56.5,30.4c23.3,2.6,45.7-3.9,63.4-16.8
							c17.9-13,30.8-32.6,34.2-55.3c6.8-45.3-25.9-86.3-72.9-91.6C1419.3,628.7,1375.5,661.1,1368.6,706.3z"/><linearGradient id="z" x1="3012.836" x2="2949.242" y1="876.47" y2="712.941" gradientTransform="matrix(-.9871 -.1183 -.1421 .9917 4518.248 265.147)" gradientUnits="userSpaceOnUse"><stop offset="0" stop-color="#f9fcff"/><stop offset="1" stop-color="#e7edf7"/></linearGradient><path fill="url(#z)" d="M1385.8,708.2c-2.7,18.2,2.6,35.6,13.3,48.8c10.6,13.1,26.6,22.2,45.2,24.3c18.6,2.1,36.6-3.1,50.7-13.4
							c14.3-10.4,24.6-26,27.4-44.2c5.4-36.2-20.7-69-58.3-73.3C1426.2,646.2,1391.2,672.1,1385.8,708.2z"/><linearGradient id="A" x1="2996.702" x2="2967.935" y1="880.725" y2="806.751" gradientTransform="matrix(-.9871 -.1183 -.1421 .9917 4518.248 265.147)" gradientUnits="userSpaceOnUse"><stop offset="0" stop-color="#f58b21"/><stop offset="1" stop-color="#f5b419"/></linearGradient><path fill="url(#A)" d="M1399.1,757.1c10.6,13.1,26.6,22.2,45.2,24.3c18.6,2.1,36.6-3.1,50.7-13.4
								c-2.3-21.3-19.3-38.8-42.6-41.5C1429.2,723.9,1407.6,737,1399.1,757.1z"/><path fill="#fccaca" d="M1430.7,682.5c0,0-3.6,8.3-3.4,9.7s1.5,2.8,1.5,2.8s-3.8,4.1-4,6c-0.1,2,1.1,14.2,1.7,15.9
									c0.6,1.8,11,4.2,11,4.2l-1.2,7.7c-0.7,4.6,2.6,8.8,7.4,9.3l14.1,1.6c4.1,0.5,7.6-2.9,7-6.8c-0.6-4.4-1.1-9.5-0.6-11.9
									c1-4.5,9.8-15.9,9.7-28.2C1473.9,680.7,1438.4,665.4,1430.7,682.5z"/><path fill="#131535" d="M1464.2,687.9c0,0-4.1,3.1-18.1,0.8c-14.1-2.3-15.7-5.5-15.7-5.5l-1.1,2.8c0,0-1.3-8.7,2.1-14.2
									s9.6-11.1,23.3-8.8s19.3,11.2,19.3,11.2s15.9,4.3,10.9,20.7c-5,16.3-17.2,25.3-21.1,23.7c-3.9-1.6,5.3-17.6-1.1-17.9
									s-3.8,8-7.3,7.6c-3.5-0.4-0.2-9.8,2.8-13.7C1461.2,690.8,1464.2,687.9,1464.2,687.9z"/></g><g><linearGradient id="B" x1="1496.498" x2="2078.562" y1="1224.664" y2="326.904" gradientUnits="userSpaceOnUse"><stop offset="0" stop-color="#505faa"/><stop offset="1" stop-color="#8f92c7"/></linearGradient><path fill="url(#B)" d="M1217,551.8l962.5,108.3c34.6,3.9,59.1,35.8,54,70.2l-99.9,668.1c-4.9,32.7-34.8,55.7-67.7,52
					l-962.5-108.3c-34.6-3.9-59.1-35.8-54-70.2l99.9-668.1C1154.1,571.1,1184.1,548.1,1217,551.8z"/><linearGradient id="C" x1="1033.233" x2="2218.713" y1="982.037" y2="982.037" gradientUnits="userSpaceOnUse"><stop offset="0" stop-color="#505faa"/><stop offset="1" stop-color="#8f92c7"/></linearGradient><path fill="url(#C)" d="M2218,711.1l-7.1,48.4l-92.8,619.8c-4.8,32.6-34.7,55.8-67.5,52L1087.9,1323c-34.7-3.8-59.1-35.7-54-70.1
					l92-615.5l7.9-52.8c5.1-32.6,34.9-55.8,67.8-52L2164.2,641C2198.9,644.9,2223.3,676.7,2218,711.1z"/><path fill="#fff" d="M2057.4,1410.1c-1.5,0-3-0.1-4.5-0.3l-962.5-108.3c-10.8-1.2-20.5-6.7-27.1-15.3
					c-6.6-8.7-9.4-19.4-7.8-30.2l99.9-668.1c2.9-19.4,19.8-34,39.3-34c1.5,0,3,0.1,4.5,0.3l962.5,108.3c10.9,1.2,20.5,6.7,27.2,15.3
					c6.6,8.7,9.4,19.4,7.8,30.2l-99.9,668.1C2093.8,1395.5,2076.9,1410.1,2057.4,1410.1z"/><linearGradient id="D" x1="1125.909" x2="2218.713" y1="645.926" y2="645.926" gradientUnits="userSpaceOnUse"><stop offset="0" stop-color="#505faa"/><stop offset="1" stop-color="#8f92c7"/></linearGradient><path fill="url(#D)" d="M2218,711.1l-7.1,48.4L1125.9,637.5l7.9-52.8c5.1-32.6,34.9-55.8,67.8-52L2164.2,641
					C2198.9,644.9,2223.3,676.7,2218,711.1z"/><path fill="#c9cce2" d="M1317.1,1312l-236-26.8c-8.4-1-14.2-8.2-13-16.3l89.7-596c1.2-8,9-13.8,17.4-12.8l236,26.8
						c8.4,1,14.2,8.2,13,16.3l-89.7,596C1333.3,1307.3,1325.5,1313,1317.1,1312z"/><path fill="#e1e4ef" d="M2105.6,1005.7L1430.8,929c-8.4-1-14.2-8.2-13-16.3L1449,706c1.2-8,9-13.8,17.4-12.8l674.7,76.7
						c8.4,1,14.2,8.2,13,16.3l-31.1,206.7C2121.7,1000.9,2114,1006.7,2105.6,1005.7z"/><path fill="#e1e4ef" d="M2047,1395l-674.7-76.7c-8.4-1-14.2-8.2-13-16.3l11.8-78.5c1.2-8,9-13.8,17.4-12.8l674.7,76.7
						c8.4,1,14.2,8.2,13,16.3l-11.8,78.5C2063.1,1390.2,2055.3,1396,2047,1395z"/><path fill="#e1e4ef" d="M1674.7,1224.4l-283.5-32.2c-8.4-1-14.2-8.2-13-16.3l31.1-206.7c1.2-8,9-13.8,17.4-12.8l283.5,32.2
						c8.4,1,14.2,8.2,13,16.3l-31.1,206.7C1690.9,1219.6,1683.1,1225.3,1674.7,1224.4z"/><path fill="#e1e4ef" d="M2065.9,1268.9l-333.3-37.9c-8.4-1-14.2-8.2-13-16.3l31.1-206.7c1.2-8,9-13.8,17.4-12.8l333.3,37.9
						c8.4,1,14.2,8.2,13,16.3l-31.1,206.7C2082.1,1264.1,2074.3,1269.8,2065.9,1268.9z"/><path fill="#fff" d="M1669.2,934.3l-203.1-23.1c-8.6-1-14.6-8.5-13.4-16.8l23.1-153.3c1.2-8.3,9.3-14.2,17.9-13.2l203.1,23.1
						c8.6,1,14.6,8.5,13.4,16.8l-23.1,153.3C1685.8,929.4,1677.8,935.3,1669.2,934.3z"/><linearGradient id="E" x1="1431.326" x2="1637.989" y1="910.129" y2="910.129" gradientTransform="matrix(.9871 .1183 -.1421 .9917 195.797 -253.055)" gradientUnits="userSpaceOnUse"><stop offset="0" stop-color="#505faa"/><stop offset="1" stop-color="#8f92c7"/></linearGradient><path fill="url(#E)" d="M1469.2,890.3l20.2-140.5c0.6-3.9,4.3-6.7,8.3-6.2l189.6,20.6c4,0.4,6.9,3.9,6.3,7.8l-21.2,147.5
						l-1.2,0.9l-195.8-22.3C1471.4,897.6,1468.6,894.2,1469.2,890.3z"/><path fill="#e1e4ef" d="M1497.6,885.2l64.4,7.3c4.4,0.5,7.7-3.8,6-7.6l-24.7-53.6c-1.7-3.6-6.8-4.2-9.5-1.1l-39.7,46.2
						C1491.2,879.8,1493.2,884.7,1497.6,885.2z"/><path fill="#bec2cc" d="M1556.7,891.9l103.5,11.8c4.2,0.5,7.6-3.6,6.1-7.3l-38-97.3c-1.6-4-7.1-4.6-9.8-1.1l-65.5,85.5
						C1550.4,886.8,1552.4,891.4,1556.7,891.9z"/><ellipse cx="1540.9" cy="783.5" fill="#bec2cc" rx="13.1" ry="12.4" transform="rotate(-14.511 1541.076 783.647)"/><linearGradient id="F" x1="1686.989" x2="1977.372" y1="827.883" y2="827.883" gradientTransform="matrix(.9871 .1183 -.1421 .9917 195.797 -253.055)" gradientUnits="userSpaceOnUse"><stop offset="0" stop-color="#f58b21"/><stop offset="1" stop-color="#f5b419"/></linearGradient><path fill="url(#F)" d="M2026.2,804.3l-279.9-31.8c-1.9-0.2-3.3-1.9-3-3.8l0.1-0.5c0.3-1.9,2.1-3.2,4-3l279.9,31.8
							c1.9,0.2,3.3,1.9,3,3.8l-0.1,0.5C2029.9,803.2,2028.1,804.5,2026.2,804.3z"/><path fill="#b0b5c1" d="M2118.2,836.4l-374.8-42.6c-2.1-0.2-3.5-2.1-3.2-4l0,0c0.3-2,2.2-3.4,4.3-3.2l374.8,42.6
							c2.1,0.2,3.5,2.1,3.2,4l0,0C2122.2,835.2,2120.2,836.7,2118.2,836.4z"/><path fill="#b0b5c1" d="M2114.9,857.7l-374.8-42.6c-2.1-0.2-3.5-2.1-3.2-4l0,0c0.3-2,2.2-3.4,4.3-3.2l374.8,42.6
							c2.1,0.2,3.5,2.1,3.2,4l0,0C2119,856.5,2117,858,2114.9,857.7z"/><path fill="#b0b5c1" d="M2111.7,879L1737,836.4c-2.1-0.2-3.5-2.1-3.2-4l0,0c0.3-2,2.2-3.4,4.3-3.2l374.8,42.6
							c2.1,0.2,3.5,2.1,3.2,4l0,0C2115.8,877.8,2113.8,879.3,2111.7,879z"/><path fill="#b0b5c1" d="M2108.5,900.4l-374.8-42.6c-2.1-0.2-3.5-2.1-3.2-4l0,0c0.3-2,2.2-3.4,4.3-3.2l374.8,42.6
							c2.1,0.2,3.5,2.1,3.2,4l0,0C2112.5,899.2,2110.6,900.6,2108.5,900.4z"/><path fill="#b0b5c1" d="M2105.3,921.7l-374.8-42.6c-2.1-0.2-3.5-2.1-3.2-4l0,0c0.3-2,2.2-3.4,4.3-3.2l374.8,42.6
							c2.1,0.2,3.5,2.1,3.2,4l0,0C2109.3,920.5,2107.4,921.9,2105.3,921.7z"/><path fill="#b0b5c1" d="M2102.1,943l-374.8-42.6c-2.1-0.2-3.5-2.1-3.2-4l0,0c0.3-2,2.2-3.4,4.3-3.2l374.8,42.6
							c2.1,0.2,3.5,2.1,3.2,4l0,0C2106.1,941.8,2104.2,943.2,2102.1,943z"/><path fill="#b0b5c1" d="M2098.9,964.3l-374.8-42.6c-2.1-0.2-3.5-2.1-3.2-4v0c0.3-2,2.2-3.4,4.3-3.2L2100,957
							c2.1,0.2,3.5,2.1,3.2,4l0,0C2102.9,963.1,2101,964.5,2098.9,964.3z"/><g><linearGradient id="G" x1="1412.7" x2="1536.879" y1="1327.003" y2="1327.003" gradientTransform="matrix(.9871 .1183 -.1421 .9917 195.797 -253.055)" gradientUnits="userSpaceOnUse"><stop offset="0" stop-color="#f58b21"/><stop offset="1" stop-color="#f5b419"/></linearGradient><path fill="url(#G)" d="M1521.6,1247.8l-118.1-13.4c-1.3-0.1-2.1-1.3-2-2.5l0.4-2.8c0.2-1.2,1.4-2.1,2.6-1.9l118.1,13.4
							c1.3,0.1,2.1,1.3,2,2.5l-0.4,2.8C1524,1247.1,1522.9,1247.9,1521.6,1247.8z"/><path fill="#b0b5c1" d="M1559,1273.7l-158.5-18c-1.4-0.2-2.3-1.3-2.1-2.6l0.4-2.5c0.2-1.3,1.5-2.2,2.8-2.1l158.5,18
							c1.4,0.2,2.3,1.3,2.1,2.6l-0.4,2.5C1561.6,1272.9,1560.4,1273.9,1559,1273.7z"/><path fill="#b0b5c1" d="M1555.8,1295l-158.5-18c-1.4-0.2-2.3-1.3-2.1-2.6l0.4-2.5c0.2-1.3,1.5-2.2,2.8-2.1l158.5,18
							c1.4,0.2,2.3,1.3,2.1,2.6l-0.4,2.5C1558.4,1294.2,1557.2,1295.2,1555.8,1295z"/><path fill="#b0b5c1" d="M1552.6,1316.3l-158.5-18c-1.4-0.2-2.3-1.3-2.1-2.6l0.4-2.5c0.2-1.3,1.5-2.2,2.8-2.1l158.5,18
							c1.4,0.2,2.3,1.3,2.1,2.6l-0.4,2.5C1555.2,1315.6,1554,1316.5,1552.6,1316.3z"/></g><g><linearGradient id="H" x1="1135.337" x2="1259.516" y1="1050.884" y2="1050.884" gradientTransform="matrix(.9871 .1183 -.1421 .9917 195.797 -253.055)" gradientUnits="userSpaceOnUse"><stop offset="0" stop-color="#f58b21"/><stop offset="1" stop-color="#f5b419"/></linearGradient><path fill="url(#H)" d="M1287,941.1l-118.1-13.4c-1.3-0.1-2.1-1.3-2-2.5l0.4-2.8c0.2-1.2,1.4-2.1,2.6-1.9l118.1,13.4
							c1.3,0.1,2.1,1.3,2,2.5l-0.4,2.8C1289.5,940.4,1288.3,941.3,1287,941.1z"/><path fill="#b0b5c1" d="M1324.4,967.1l-158.5-18c-1.4-0.2-2.3-1.3-2.1-2.6l0.4-2.5c0.2-1.3,1.5-2.2,2.8-2.1l158.5,18
							c1.4,0.2,2.3,1.3,2.1,2.6l-0.4,2.5C1327.1,966.3,1325.8,967.2,1324.4,967.1z"/><path fill="#b0b5c1" d="M1321.2,988.4l-158.5-18c-1.4-0.2-2.3-1.3-2.1-2.6l0.4-2.5c0.2-1.3,1.5-2.2,2.8-2.1l158.5,18
							c1.4,0.2,2.3,1.3,2.1,2.6l-0.4,2.5C1323.9,987.6,1322.6,988.5,1321.2,988.4z"/><path fill="#b0b5c1" d="M1318,1009.7l-158.5-18c-1.4-0.2-2.3-1.3-2.1-2.6l0.4-2.5c0.2-1.3,1.5-2.2,2.8-2.1l158.5,18
							c1.4,0.2,2.3,1.3,2.1,2.6l-0.4,2.5C1320.7,1008.9,1319.4,1009.8,1318,1009.7z"/></g><g><linearGradient id="I" x1="1134.558" x2="1258.737" y1="1158.741" y2="1158.741" gradientTransform="matrix(.9871 .1183 -.1421 .9917 195.797 -253.055)" gradientUnits="userSpaceOnUse"><stop offset="0" stop-color="#f58b21"/><stop offset="1" stop-color="#f5b419"/></linearGradient><path fill="url(#I)" d="M1270.9,1048l-118.1-13.4c-1.3-0.1-2.1-1.3-2-2.5l0.4-2.8c0.2-1.2,1.4-2.1,2.6-1.9l118.1,13.4
							c1.3,0.1,2.1,1.3,2,2.5l-0.4,2.8C1273.4,1047.3,1272.2,1048.2,1270.9,1048z"/><path fill="#b0b5c1" d="M1308.4,1073.9l-158.5-18c-1.4-0.2-2.3-1.3-2.1-2.6l0.4-2.5c0.2-1.3,1.5-2.2,2.8-2.1l158.5,18
							c1.4,0.2,2.3,1.3,2.1,2.6l-0.4,2.5C1311,1073.2,1309.7,1074.1,1308.4,1073.9z"/><path fill="#b0b5c1" d="M1305.1,1095.2l-158.5-18c-1.4-0.2-2.3-1.3-2.1-2.6l0.4-2.5c0.2-1.3,1.5-2.2,2.8-2.1l158.5,18
							c1.4,0.2,2.3,1.3,2.1,2.6l-0.4,2.5C1307.8,1094.5,1306.5,1095.4,1305.1,1095.2z"/><path fill="#b0b5c1" d="M1301.9,1116.6l-158.5-18c-1.4-0.2-2.3-1.3-2.1-2.6l0.4-2.5c0.2-1.3,1.5-2.2,2.8-2.1l158.5,18
							c1.4,0.2,2.3,1.3,2.1,2.6l-0.4,2.5C1304.6,1115.8,1303.3,1116.7,1301.9,1116.6z"/></g><g><linearGradient id="J" x1="1133.78" x2="1257.958" y1="1266.597" y2="1266.597" gradientTransform="matrix(.9871 .1183 -.1421 .9917 195.797 -253.055)" gradientUnits="userSpaceOnUse"><stop offset="0" stop-color="#f58b21"/><stop offset="1" stop-color="#f5b419"/></linearGradient><path fill="url(#J)" d="M1254.8,1154.9l-118.1-13.4c-1.3-0.1-2.1-1.3-2-2.5l0.4-2.8c0.2-1.2,1.4-2.1,2.6-1.9l118.1,13.4
							c1.3,0.1,2.1,1.3,2,2.5l-0.4,2.8C1257.3,1154.2,1256.1,1155,1254.8,1154.9z"/><path fill="#b0b5c1" d="M1292.3,1180.8l-158.5-18c-1.4-0.2-2.3-1.3-2.1-2.6l0.4-2.5c0.2-1.3,1.5-2.2,2.8-2.1l158.5,18
							c1.4,0.2,2.3,1.3,2.1,2.6l-0.4,2.5C1294.9,1180,1293.6,1181,1292.3,1180.8z"/><path fill="#b0b5c1" d="M1289.1,1202.1l-158.5-18c-1.4-0.2-2.3-1.3-2.1-2.6l0.4-2.5c0.2-1.3,1.5-2.2,2.8-2.1l158.5,18
							c1.4,0.2,2.3,1.3,2.1,2.6l-0.4,2.5C1291.7,1201.3,1290.4,1202.3,1289.1,1202.1z"/><path fill="#b0b5c1" d="M1285.9,1223.4l-158.5-18c-1.4-0.2-2.3-1.3-2.1-2.6l0.4-2.5c0.2-1.3,1.5-2.2,2.8-2.1l158.5,18
							c1.4,0.2,2.3,1.3,2.1,2.6l-0.4,2.5C1288.5,1222.6,1287.2,1223.6,1285.9,1223.4z"/></g><g><linearGradient id="K" x1="1899.034" x2="2023.213" y1="1324.04" y2="1324.04" gradientTransform="matrix(.9871 .1183 -.1421 .9917 195.797 -253.055)" gradientUnits="userSpaceOnUse"><stop offset="0" stop-color="#f58b21"/><stop offset="1" stop-color="#f5b419"/></linearGradient><path fill="url(#K)" d="M2002.1,1302.4L1884,1289c-1.3-0.1-2.1-1.3-2-2.5l0.4-2.8c0.2-1.2,1.4-2.1,2.6-1.9l118.1,13.4
							c1.3,0.1,2.1,1.3,2,2.5l-0.4,2.8C2004.5,1301.7,2003.4,1302.6,2002.1,1302.4z"/><path fill="#b0b5c1" d="M2039.5,1328.3l-158.5-18c-1.4-0.2-2.3-1.3-2.1-2.6l0.4-2.5c0.2-1.3,1.5-2.2,2.8-2.1l158.5,18
							c1.4,0.2,2.3,1.3,2.1,2.6l-0.4,2.5C2042.1,1327.6,2040.9,1328.5,2039.5,1328.3z"/><path fill="#b0b5c1" d="M2036.3,1349.6l-158.5-18c-1.4-0.2-2.3-1.3-2.1-2.6l0.4-2.5c0.2-1.3,1.5-2.2,2.8-2.1l158.5,18
							c1.4,0.2,2.3,1.3,2.1,2.6l-0.4,2.5C2038.9,1348.9,2037.7,1349.8,2036.3,1349.6z"/><path fill="#b0b5c1" d="M2033.1,1371l-158.5-18c-1.4-0.2-2.3-1.3-2.1-2.6l0.4-2.5c0.2-1.3,1.5-2.2,2.8-2.1l158.5,18
							c1.4,0.2,2.3,1.3,2.1,2.6l-0.4,2.5C2035.7,1370.2,2034.5,1371.1,2033.1,1371z"/></g><g><linearGradient id="L" x1="1417.953" x2="1607.868" y1="1095.678" y2="1095.678" gradientTransform="matrix(.9871 .1183 -.1421 .9917 195.797 -253.055)" gradientUnits="userSpaceOnUse"><stop offset="0" stop-color="#f58b21"/><stop offset="1" stop-color="#f5b419"/></linearGradient><path fill="url(#L)" d="M1624,1026.5l-181.9-20.7c-1.6-0.2-2.7-1.5-2.4-3l0.3-1.8c0.2-1.5,1.7-2.6,3.3-2.4l181.9,20.7
							c1.6,0.2,2.7,1.5,2.4,3l-0.3,1.8C1627,1025.6,1625.6,1026.7,1624,1026.5z"/><path fill="#b0b5c1" d="M1683,1054.9l-243.9-27.7c-1.7-0.2-2.9-1.7-2.6-3.3l0.2-1.4c0.2-1.6,1.8-2.8,3.5-2.6l243.9,27.7
							c1.7,0.2,2.9,1.7,2.6,3.3l-0.2,1.4C1686.3,1053.9,1684.7,1055.1,1683,1054.9z"/><path fill="#b0b5c1" d="M1679.8,1076.2l-243.9-27.7c-1.7-0.2-2.9-1.7-2.6-3.3l0.2-1.4c0.2-1.6,1.8-2.8,3.5-2.6l243.9,27.7
							c1.7,0.2,2.9,1.7,2.6,3.3l-0.2,1.4C1683.1,1075.2,1681.5,1076.4,1679.8,1076.2z"/><path fill="#b0b5c1" d="M1676.6,1097.5l-243.9-27.7c-1.7-0.2-2.9-1.7-2.6-3.3l0.2-1.4c0.2-1.6,1.8-2.8,3.5-2.6l243.9,27.7
							c1.7,0.2,2.9,1.7,2.6,3.3l-0.2,1.4C1679.8,1096.6,1678.3,1097.7,1676.6,1097.5z"/><path fill="#b0b5c1" d="M1673.4,1118.8l-243.9-27.7c-1.7-0.2-2.9-1.7-2.6-3.3l0.2-1.4c0.2-1.6,1.8-2.8,3.5-2.6l243.9,27.7
							c1.7,0.2,2.9,1.7,2.6,3.3l-0.2,1.4C1676.6,1117.9,1675.1,1119,1673.4,1118.8z"/><path fill="#b0b5c1" d="M1670.2,1140.1l-243.9-27.7c-1.7-0.2-2.9-1.7-2.6-3.3l0.2-1.4c0.2-1.6,1.8-2.8,3.5-2.6l243.9,27.7
							c1.7,0.2,2.9,1.7,2.6,3.3l-0.2,1.4C1673.4,1139.2,1671.9,1140.3,1670.2,1140.1z"/><path fill="#b0b5c1" d="M1667,1161.4l-243.9-27.7c-1.7-0.2-2.9-1.7-2.6-3.3l0.2-1.4c0.2-1.6,1.8-2.8,3.5-2.6l243.9,27.7
							c1.7,0.2,2.9,1.7,2.6,3.3l-0.2,1.4C1670.2,1160.5,1668.6,1161.6,1667,1161.4z"/><path fill="#b0b5c1" d="M1663.8,1182.7l-243.9-27.7c-1.7-0.2-2.9-1.7-2.6-3.3l0.2-1.4c0.2-1.6,1.8-2.8,3.5-2.6l243.9,27.7
							c1.7,0.2,2.9,1.7,2.6,3.3l-0.2,1.4C1667,1181.8,1665.4,1182.9,1663.8,1182.7z"/></g><g><linearGradient id="M" x1="1756.738" x2="1993.344" y1="1093.472" y2="1093.472" gradientTransform="matrix(.9871 .1183 -.1421 .9917 195.797 -253.055)" gradientUnits="userSpaceOnUse"><stop offset="0" stop-color="#f58b21"/><stop offset="1" stop-color="#f5b419"/></linearGradient><path fill="url(#M)" d="M2004.5,1069.8l-227.4-25.8c-1.7-0.2-3-1.7-2.7-3.4l0.2-1.2c0.3-1.7,1.9-2.9,3.6-2.7l227.4,25.8
							c1.7,0.2,3,1.7,2.7,3.4l-0.2,1.2C2007.9,1068.8,2006.3,1070,2004.5,1069.8z"/><path fill="#b0b5c1" d="M2079.4,1100l-208-23.6c-1.6-0.2-2.6-1.5-2.4-3l0.3-1.8c0.2-1.5,1.7-2.6,3.2-2.4l208,23.6
							c1.6,0.2,2.6,1.5,2.4,3l-0.3,1.8C2082.4,1099.1,2081,1100.1,2079.4,1100z"/><path fill="#b0b5c1" d="M2076.2,1121.3l-208-23.6c-1.6-0.2-2.6-1.5-2.4-3l0.3-1.8c0.2-1.5,1.7-2.6,3.2-2.4l208,23.6
							c1.6,0.2,2.6,1.5,2.4,3l-0.3,1.8C2079.2,1120.4,2077.8,1121.5,2076.2,1121.3z"/><path fill="#b0b5c1" d="M2073,1142.6l-208-23.6c-1.6-0.2-2.6-1.5-2.4-3l0.3-1.8c0.2-1.5,1.7-2.6,3.2-2.4l208,23.6
							c1.6,0.2,2.6,1.5,2.4,3l-0.3,1.8C2076,1141.7,2074.6,1142.8,2073,1142.6z"/><path fill="#b0b5c1" d="M2069.2,1163.8l-304.7-34.6c-1.9-0.2-3.2-1.9-2.9-3.7l0.1-0.7c0.3-1.8,2-3.1,3.9-2.9l304.7,34.6
							c1.9,0.2,3.2,1.9,2.9,3.7l-0.1,0.7C2072.9,1162.7,2071.1,1164,2069.2,1163.8z"/><path fill="#b0b5c1" d="M2066,1185.1l-304.7-34.6c-1.9-0.2-3.2-1.9-2.9-3.7l0.1-0.7c0.3-1.8,2-3.1,3.9-2.9l304.7,34.6
							c1.9,0.2,3.2,1.9,2.9,3.7l-0.1,0.7C2069.6,1184,2067.9,1185.3,2066,1185.1z"/><path fill="#b0b5c1" d="M2062.8,1206.4l-304.7-34.6c-1.9-0.2-3.2-1.9-2.9-3.7l0.1-0.7c0.3-1.8,2-3.1,3.9-2.9l304.7,34.6
							c1.9,0.2,3.2,1.9,2.9,3.7l-0.1,0.7C2066.4,1205.4,2064.7,1206.6,2062.8,1206.4z"/><path fill="#b0b5c1" d="M2059.6,1227.7l-304.7-34.6c-1.9-0.2-3.2-1.9-2.9-3.7l0.1-0.7c0.3-1.8,2-3.1,3.9-2.9l304.7,34.6
							c1.9,0.2,3.2,1.9,2.9,3.7l-0.1,0.7C2063.2,1226.7,2061.5,1228,2059.6,1227.7z"/><path fill="#b0b5c1" d="M1781.5,1117.4l-10.3-59.8l9.7,1.1l5.2,39.1c0.6,4.1,1,8.1,1.2,12.1c2.8-6,4.4-9.4,4.8-10.3l19.5-37.4
								l11.4,1.3l5.9,30.4c1.5,7.5,2.3,14.6,2.5,21.1c1.5-3.5,3.3-7.6,5.5-12.2l16.8-35.8l9.5,1.1l-28.3,55.5l-9.1-1l-8.5-45.7
								c-0.7-3.8-1.1-6.2-1.2-7c-1.2,2.6-2.2,4.8-3.1,6.5l-21.8,42.2L1781.5,1117.4z"/></g><g><linearGradient id="N" x1="3191.579" x2="3112.043" y1="1005.464" y2="800.942" gradientTransform="matrix(-.9871 -.1183 -.1421 .9917 4518.248 265.147)" gradientUnits="userSpaceOnUse"><stop offset="0" stop-color="#f58b21"/><stop offset="1" stop-color="#f5b419"/></linearGradient><path fill="url(#N)" d="M1182.5,797.6c-3.4,22.7,3.3,44.5,16.7,61.1c13.2,16.4,33.2,27.7,56.5,30.4
							c23.3,2.6,45.7-3.9,63.4-16.8c17.9-13,30.8-32.6,34.2-55.3c6.8-45.3-25.9-86.3-72.9-91.6
							C1233.1,720,1189.3,752.3,1182.5,797.6z"/><linearGradient id="O" x1="3185.204" x2="3121.609" y1="989.062" y2="825.533" gradientTransform="matrix(-.9871 -.1183 -.1421 .9917 4518.248 265.147)" gradientUnits="userSpaceOnUse"><stop offset="0" stop-color="#f9fcff"/><stop offset="1" stop-color="#e7edf7"/></linearGradient><path fill="url(#O)" d="M1199.6,799.5c-2.7,18.2,2.6,35.6,13.3,48.8c10.6,13.1,26.6,22.2,45.2,24.3
							c18.6,2.1,36.6-3.1,50.7-13.4c14.3-10.4,24.6-26,27.4-44.2c5.4-36.2-20.7-69-58.3-73.3
							C1240.1,737.4,1205.1,763.3,1199.6,799.5z"/><linearGradient id="P" x1="3169.07" x2="3140.302" y1="993.317" y2="919.344" gradientTransform="matrix(-.9871 -.1183 -.1421 .9917 4518.248 265.147)" gradientUnits="userSpaceOnUse"><stop offset="0" stop-color="#f58b21"/><stop offset="1" stop-color="#f5b419"/></linearGradient><path fill="url(#P)" d="M1213,848.3c10.6,13.1,26.6,22.2,45.2,24.3c18.6,2.1,36.6-3.1,50.7-13.4
								c-2.3-21.3-19.3-38.8-42.6-41.5C1243.1,815.1,1221.5,828.3,1213,848.3z"/><path fill="#fccaca" d="M1244.5,773.8c0,0-3.6,8.3-3.4,9.7s1.5,2.8,1.5,2.8s-3.8,4.1-4,6c-0.1,2,1.1,14.2,1.7,15.9
									c0.6,1.8,11,4.2,11,4.2l-1.2,7.7c-0.7,4.6,2.6,8.8,7.4,9.3l14.1,1.6c4.1,0.5,7.6-2.9,7-6.8c-0.6-4.4-1.1-9.5-0.6-11.9
									c1-4.5,9.8-15.9,9.7-28.2C1287.8,772,1252.2,756.7,1244.5,773.8z"/><path fill="#131535" d="M1278,779.2c0,0-4.1,3.1-18.1,0.8c-14.1-2.3-15.7-5.5-15.7-5.5l-1.1,2.8c0,0-1.3-8.7,2.1-14.2
									c3.4-5.5,9.6-11.1,23.3-8.8s19.3,11.2,19.3,11.2s15.9,4.3,10.9,20.7c-5,16.3-17.2,25.3-21.1,23.7
									c-3.9-1.6,5.3-17.6-1.1-17.9c-6.4-0.4-3.8,8-7.3,7.6c-3.5-0.4-0.2-9.8,2.8-13.7C1275.1,782.1,1278,779.2,1278,779.2z"/></g></g><g><linearGradient id="Q" x1="1030.022" x2="1612.086" y1="1531.967" y2="634.207" gradientUnits="userSpaceOnUse"><stop offset="0" stop-color="#505faa"/><stop offset="1" stop-color="#8f92c7"/></linearGradient><path fill="url(#Q)" d="M750.5,859.2L1713,967.5c34.6,3.9,59.1,35.8,54,70.2l-99.9,668.1c-4.9,32.7-34.8,55.7-67.7,52
					l-962.5-108.3c-34.6-3.9-59.1-35.8-54-70.2l99.9-668.1C687.7,878.4,717.6,855.4,750.5,859.2z"/><linearGradient id="R" x1="566.823" x2="1752.289" y1="1289.338" y2="1289.338" gradientUnits="userSpaceOnUse"><stop offset="0" stop-color="#505faa"/><stop offset="1" stop-color="#8f92c7"/></linearGradient><path fill="url(#R)" d="M735.2,840l962.5,108.3c34.6,3.9,59.1,35.8,54,70.2l-99.9,668.1c-4.9,32.7-34.8,55.7-67.7,52
					l-962.5-108.3c-34.6-3.9-59.1-35.8-54-70.2L667.4,892C672.3,859.3,702.3,836.3,735.2,840z"/><linearGradient id="S" x1="588.492" x2="1730.63" y1="1289.334" y2="1289.334" gradientUnits="userSpaceOnUse"><stop offset="0" stop-color="#f9fcff"/><stop offset="1" stop-color="#e7edf7"/></linearGradient><path fill="url(#S)" d="M1590.9,1717.4c-1.5,0-3-0.1-4.5-0.3l-962.5-108.3c-10.8-1.2-20.5-6.7-27.1-15.3
					c-6.6-8.7-9.4-19.4-7.8-30.2l99.9-668.1c2.9-19.4,19.8-34,39.3-34c1.5,0,3,0.1,4.5,0.3l962.5,108.3c10.9,1.2,20.5,6.7,27.2,15.3
					c6.6,8.7,9.4,19.4,7.8,30.2l-99.9,668.1C1627.3,1702.8,1610.4,1717.4,1590.9,1717.4z"/><linearGradient id="T" x1="930.724" x2="1203.877" y1="1423.571" y2="1002.267" gradientTransform="matrix(1.0045 .09155 -.1336 .991 149.003 -189.751)" gradientUnits="userSpaceOnUse"><stop offset="0" stop-color="#505faa"/><stop offset="1" stop-color="#8f92c7"/></linearGradient><path fill="url(#T)" d="M1206,1033l-12,88.9c-164.6-15-315.7,104.4-337.6,266.8c-0.9,6.3-1.2,12.4-1.5,18.5l-90.1-8.2
							c0.3-6.1,0.6-12.2,1.5-18.5C794.8,1169.2,991.7,1013.5,1206,1033z"/><linearGradient id="U" x1="1332.324" x2="1463.52" y1="1420.895" y2="1218.543" gradientTransform="matrix(1.0045 .09155 -.1336 .991 149.003 -189.751)" gradientUnits="userSpaceOnUse"><stop offset="0" stop-color="#f58b21"/><stop offset="1" stop-color="#f5b419"/></linearGradient><path fill="url(#U)" d="M1542.5,1451.3c-0.9,6.3-2.4,12.3-3.5,18.3l-90.1-8.2c1.3-6,2.7-12,3.5-18.3
							c21.9-162.4-93.7-306.2-258.4-321.2l12-88.9C1420.3,1052.6,1571,1239.9,1542.5,1451.3z"/><g><path d="M1041,1367.1l11.5,0.1c0.1,5.6,1.5,9.9,4.2,12.9c2.7,3,6.2,4.8,10.6,5.1c5.2,0.5,9.9-1.1,14.1-4.6
							c4.2-3.6,6.6-8.6,7.5-15c0.8-6.1-0.3-11.1-3.3-14.9c-3-3.9-7.3-6-13-6.5c-3.5-0.3-6.8,0.2-9.8,1.5c-3,1.3-5.5,3.1-7.4,5.5
							l-10-2.2l14.6-44l44,4l-1.4,10.2l-35.3-3.2l-7.9,23c5.8-3.2,11.6-4.5,17.4-4c7.7,0.7,13.9,3.9,18.5,9.7
							c4.6,5.7,6.3,12.8,5.2,21.1c-1.1,7.9-4.3,14.5-9.8,19.8c-6.6,6.5-14.8,9.4-24.7,8.5c-8-0.7-14.3-3.6-18.8-8.5
							C1042.8,1380.7,1040.7,1374.5,1041,1367.1z"/><path d="M1112.4,1353.2c1.4-10.3,3.6-18.5,6.6-24.6s6.9-10.6,11.6-13.7c4.7-3,10.3-4.2,16.7-3.7c4.8,0.4,8.8,1.8,12.1,4
							c3.3,2.2,5.9,5.2,7.8,9c1.9,3.8,3.1,8.3,3.8,13.5c0.6,5.2,0.4,12.2-0.8,20.8c-1.4,10.2-3.6,18.4-6.5,24.5
							c-3,6.1-6.8,10.7-11.5,13.7c-4.7,3.1-10.3,4.3-16.8,3.7c-8.5-0.8-14.8-4.4-18.9-10.9
							C1111.5,1381.7,1110.2,1369.6,1112.4,1353.2z M1123.6,1354.2c-1.9,14.3-1.5,24,1.2,29.1c2.8,5,6.6,7.8,11.6,8.2
							c5,0.5,9.5-1.5,13.5-6c4-4.5,7-13.8,9-28.1c1.9-14.4,1.5-24.1-1.2-29.1c-2.8-5-6.7-7.8-11.7-8.2c-5-0.5-9.2,1.3-12.8,5.2
							C1128.7,1330.3,1125.5,1339.9,1123.6,1354.2z"/><path d="M1186.3,1336.4c0.8-6.2,3.2-11.4,6.9-15.5c3.8-4.1,8.7-5.8,14.7-5.3c5.6,0.5,9.9,2.9,13,7.1
							c3.1,4.2,4.2,10.1,3.2,17.7c-1,7.4-3.6,12.9-7.8,16.5c-4.2,3.6-9,5.2-14.4,4.7c-5.3-0.5-9.5-2.9-12.6-7.1
							C1186.2,1350.4,1185.2,1344.3,1186.3,1336.4z M1207.2,1323.1c-2.7-0.2-5.1,0.7-7.2,2.8c-2.1,2.1-3.6,6.3-4.4,12.4
							c-0.8,5.6-0.4,9.6,1.1,12c1.5,2.4,3.6,3.8,6.2,4c2.8,0.3,5.2-0.7,7.3-2.8c2.1-2.1,3.6-6.3,4.4-12.4c0.8-5.6,0.4-9.7-1.1-12.1
							C1212,1324.7,1209.9,1323.3,1207.2,1323.1z M1195.9,1407.6l60.8-87.5l8.8,0.8l-60.6,87.5L1195.9,1407.6z M1237.3,1387.4
							c0.8-6.3,3.2-11.4,6.9-15.5c3.8-4.1,8.7-5.8,14.8-5.2c5.6,0.5,9.9,2.9,13,7.1s4.1,10.2,3.1,17.7c-1,7.4-3.6,12.9-7.8,16.6
							c-4.2,3.6-9.1,5.2-14.5,4.7c-5.3-0.5-9.5-2.9-12.6-7.1C1237.2,1401.4,1236.2,1395.3,1237.3,1387.4z M1258.3,1374.1
							c-2.8-0.3-5.2,0.7-7.3,2.8c-2.1,2.1-3.6,6.3-4.4,12.4c-0.7,5.5-0.4,9.6,1.1,12c1.5,2.5,3.6,3.8,6.2,4.1
							c2.8,0.3,5.2-0.7,7.3-2.8c2.1-2.1,3.6-6.3,4.4-12.4c0.8-5.6,0.4-9.7-1.1-12.1C1263.1,1375.7,1261,1374.4,1258.3,1374.1z"/></g><g><linearGradient id="V" x1="1062.683" x2="1090.829" y1="1643.911" y2="1643.911" gradientTransform="matrix(1.0045 .09155 -.1336 .991 149.003 -189.751)" gradientUnits="userSpaceOnUse"><stop offset="0" stop-color="#505faa"/><stop offset="1" stop-color="#8f92c7"/></linearGradient><path fill="url(#V)" d="M1025.1,1539.3c-1,7.7-8.2,13.4-16,12.7c-7.8-0.7-13.3-7.5-12.3-15.2c1-7.7,8.2-13.4,16-12.7
								C1020.7,1524.8,1026.1,1531.6,1025.1,1539.3z"/><path fill="#b7b7b7" d="M1270.4,1566.5l-223.3-20.4c-2.7-0.2-4.6-2.6-4.2-5.2l0,0c0.4-2.6,2.8-4.6,5.5-4.3l223.3,20.4
								c2.7,0.2,4.6,2.6,4.2,5.2l0,0C1275.6,1564.8,1273.1,1566.7,1270.4,1566.5z"/><path fill="#b7b7b7" d="M1022.9,960.8l-223.3-20.4c-2.7-0.2-4.6-2.6-4.2-5.2v0c0.4-2.6,2.8-4.6,5.5-4.3l223.3,20.4
								c2.7,0.2,4.6,2.6,4.2,5.2l0,0C1028.1,959.1,1025.6,961,1022.9,960.8z"/><g><linearGradient id="W" x1="1062.683" x2="1090.829" y1="1691.358" y2="1691.358" gradientTransform="matrix(1.0045 .09155 -.1336 .991 149.003 -189.751)" gradientUnits="userSpaceOnUse"><stop offset="0" stop-color="#f58b21"/><stop offset="1" stop-color="#f5b419"/></linearGradient><path fill="url(#W)" d="M1018.8,1586.3c-1,7.7-8.2,13.4-16,12.7c-7.8-0.7-13.3-7.5-12.3-15.2s8.2-13.4,16-12.7
								C1014.3,1571.8,1019.8,1578.6,1018.8,1586.3z"/><path fill="#b7b7b7" d="M1264.1,1613.5l-223.3-20.4c-2.7-0.2-4.6-2.6-4.2-5.2l0,0c0.4-2.6,2.8-4.6,5.5-4.3l223.3,20.4
								c2.7,0.2,4.6,2.6,4.2,5.2v0C1269.2,1611.8,1266.8,1613.8,1264.1,1613.5z"/></g></g><g><path d="M772.7,1440.4c0.5-5,1.4-8.9,2.7-11.8c1.3-2.9,3.1-5.1,5.3-6.6c2.2-1.4,4.8-2,7.8-1.7c2.3,0.2,4.2,0.9,5.8,2
						c1.6,1.1,2.9,2.5,3.8,4.3s1.6,4,2,6.5c0.4,2.5,0.4,5.9,0,10c-0.5,4.9-1.4,8.9-2.7,11.8c-1.3,2.9-3.1,5.1-5.2,6.6
						c-2.2,1.4-4.8,2-7.9,1.7c-4.1-0.4-7.1-2.2-9.1-5.3C772.8,1454.1,772,1448.3,772.7,1440.4z M778,1440.9c-0.7,6.9-0.3,11.6,1,14
						c1.4,2.5,3.2,3.8,5.6,4c2.4,0.2,4.5-0.7,6.3-2.8c1.8-2.1,3.1-6.6,3.8-13.5c0.7-6.9,0.3-11.6-1-14c-1.4-2.4-3.3-3.8-5.7-4
						c-2.4-0.2-4.4,0.6-6,2.4C780.1,1429.4,778.7,1434,778,1440.9z"/><path d="M807.5,1432.6c0.3-3,1.3-5.5,3-7.4c1.7-2,4-2.8,6.9-2.5c2.6,0.3,4.7,1.4,6.3,3.5c1.5,2.1,2.1,4.9,1.7,8.6
						c-0.4,3.5-1.5,6.2-3.4,7.9c-2,1.7-4.2,2.5-6.8,2.2c-2.6-0.3-4.6-1.4-6.1-3.5C807.6,1439.3,807.1,1436.4,807.5,1432.6z
						 M817.1,1426.2c-1.3-0.1-2.4,0.3-3.3,1.3c-1,1-1.6,3-1.9,6c-0.3,2.7,0,4.6,0.7,5.8c0.8,1.2,1.8,1.8,3,2
						c1.3,0.1,2.4-0.3,3.4-1.3c1-1,1.6-3,1.9-6c0.3-2.7,0-4.6-0.7-5.8C819.4,1427,818.4,1426.3,817.1,1426.2z M813.1,1466.9
						l27.4-41.9l4.2,0.4l-27.3,42L813.1,1466.9z M832.4,1457.3c0.3-3,1.3-5.5,3-7.4c1.7-1.9,4-2.8,6.9-2.5c2.6,0.3,4.7,1.4,6.3,3.5
						c1.5,2,2.1,4.9,1.8,8.5c-0.4,3.6-1.5,6.2-3.4,7.9c-2,1.7-4.2,2.5-6.8,2.2c-2.6-0.3-4.6-1.4-6.1-3.5
						C832.6,1464.1,832,1461.1,832.4,1457.3z M842.1,1451c-1.3-0.1-2.4,0.3-3.4,1.3c-1,1-1.6,3-1.9,6c-0.3,2.7,0,4.6,0.7,5.8
						c0.8,1.2,1.8,1.9,3,2c1.3,0.1,2.5-0.3,3.4-1.3c1-1,1.6-3,1.9-5.9c0.3-2.7,0-4.7-0.7-5.8C844.4,1451.8,843.4,1451.1,842.1,1451z
						"/></g><g><path d="M1428.3,1529.1l-5.2-0.5l3.3-32.8c-1.4,1.1-3.1,2.1-5.2,3.1c-2.1,1-4,1.7-5.7,2.1l0.5-5c3-1.1,5.7-2.5,8-4.2
						c2.3-1.7,4.1-3.4,5.1-5.2l3.3,0.3L1428.3,1529.1z"/><path d="M1443.6,1509.7c0.5-5,1.4-8.9,2.7-11.8c1.3-2.9,3.1-5.1,5.3-6.6c2.2-1.4,4.8-2,7.8-1.7c2.3,0.2,4.2,0.9,5.8,2
						c1.6,1.1,2.9,2.5,3.8,4.3c0.9,1.8,1.6,4,2,6.5c0.4,2.5,0.4,5.9,0,10c-0.5,4.9-1.4,8.9-2.7,11.8c-1.3,2.9-3.1,5.1-5.2,6.6
						c-2.2,1.4-4.8,2-7.9,1.7c-4.1-0.4-7.1-2.2-9.1-5.3C1443.6,1523.4,1442.8,1517.6,1443.6,1509.7z M1448.9,1510.2
						c-0.7,6.9-0.3,11.6,1,14c1.4,2.5,3.2,3.8,5.6,4c2.4,0.2,4.5-0.7,6.3-2.8s3.1-6.6,3.8-13.5c0.7-6.9,0.3-11.6-1-14
						c-1.4-2.4-3.3-3.8-5.7-4c-2.4-0.2-4.4,0.6-6,2.4C1450.9,1498.7,1449.5,1503.3,1448.9,1510.2z"/><path d="M1476.2,1513c0.5-5,1.4-8.9,2.7-11.8c1.3-2.9,3.1-5.1,5.3-6.6c2.2-1.4,4.8-2,7.8-1.7c2.3,0.2,4.2,0.9,5.8,2
						c1.6,1.1,2.9,2.5,3.8,4.3s1.6,4,2,6.5c0.4,2.5,0.4,5.9,0,10c-0.5,4.9-1.4,8.9-2.7,11.8c-1.3,2.9-3.1,5.1-5.2,6.6
						c-2.2,1.4-4.8,2-7.9,1.7c-4.1-0.4-7.1-2.2-9.1-5.3C1476.2,1526.7,1475.4,1520.8,1476.2,1513z M1481.5,1513.5
						c-0.7,6.9-0.3,11.6,1,14c1.4,2.5,3.2,3.8,5.6,4c2.4,0.2,4.5-0.7,6.3-2.8c1.8-2.1,3.1-6.6,3.8-13.5c0.7-6.9,0.3-11.6-1-14
						c-1.4-2.4-3.3-3.8-5.7-4c-2.4-0.2-4.4,0.6-6,2.4C1483.5,1502,1482.2,1506.6,1481.5,1513.5z"/><path d="M1510.9,1505.1c0.3-3,1.3-5.5,3-7.4c1.7-2,4-2.8,6.9-2.5c2.6,0.3,4.7,1.4,6.3,3.5c1.5,2.1,2.1,4.9,1.7,8.6
						c-0.4,3.5-1.5,6.2-3.4,7.9c-2,1.7-4.2,2.5-6.8,2.2s-4.6-1.4-6.1-3.5C1511,1511.9,1510.5,1509,1510.9,1505.1z M1520.5,1498.8
						c-1.3-0.1-2.4,0.3-3.3,1.3c-1,1-1.6,3-1.9,6c-0.3,2.7,0,4.6,0.7,5.8c0.8,1.2,1.8,1.8,3,2c1.3,0.1,2.4-0.3,3.4-1.3
						c1-1,1.6-3,1.9-6c0.3-2.7,0-4.6-0.7-5.8C1522.8,1499.6,1521.8,1498.9,1520.5,1498.8z M1516.5,1539.5l27.4-41.9l4.2,0.4
						l-27.3,42L1516.5,1539.5z M1535.8,1529.9c0.3-3,1.3-5.5,3-7.4c1.7-1.9,4-2.8,6.9-2.5c2.6,0.3,4.7,1.4,6.3,3.5
						c1.5,2,2.1,4.9,1.8,8.5c-0.4,3.6-1.5,6.2-3.4,7.9c-2,1.7-4.2,2.5-6.8,2.2c-2.6-0.3-4.6-1.4-6.1-3.5
						C1536,1536.6,1535.4,1533.7,1535.8,1529.9z M1545.5,1523.5c-1.3-0.1-2.4,0.3-3.4,1.3c-1,1-1.6,3-1.9,6c-0.3,2.7,0,4.6,0.7,5.8
						c0.8,1.2,1.8,1.9,3,2c1.3,0.1,2.5-0.3,3.4-1.3c1-1,1.6-3,1.9-5.9c0.3-2.7,0-4.7-0.7-5.8
						C1547.8,1524.3,1546.8,1523.7,1545.5,1523.5z"/></g></g><g><linearGradient id="X" x1="734.011" x2="474.968" y1="994.604" y2="1167.299" gradientUnits="userSpaceOnUse"><stop offset="0" stop-color="#505faa"/><stop offset="1" stop-color="#8f92c7"/></linearGradient><path fill="url(#X)" d="M724.2,1232.7c-0.4,0-0.8,0-1.2-0.1l-355-43c-2.9-0.3-5.5-1.8-7.3-4.1c-1.8-2.3-8.6-10.5-8.2-13.4
						l33-174.5c0.8-5.2,5.3-9.1,10.6-9.1c0.4,0,0.8,0,1.2,0.1l355,43c2.9,0.3-0.8-7.4,1-5.1c1.8,2.3,8.8,14.4,8.4,17.3l-26.9,179.8
						C734,1228.8,729.4,1232.7,724.2,1232.7z"/><linearGradient id="Y" x1="352.17" x2="755.485" y1="1101.35" y2="1101.35" gradientUnits="userSpaceOnUse"><stop offset="0" stop-color="#505faa"/><stop offset="1" stop-color="#8f92c7"/></linearGradient><path fill="url(#Y)" d="M717.9,1223.5c-0.4,0-0.8,0-1.2-0.1l-355-43c-2.9-0.3-5.5-1.8-7.3-4.1c-1.8-2.3-2.5-5.2-2.1-8.1
						l26.9-179.8c0.8-5.2,5.3-9.1,10.6-9.1c0.4,0,0.8,0,1.2,0.1l355,43c2.9,0.3,5.5,1.8,7.3,4.1c1.8,2.3,2.5,5.2,2.1,8.1
						l-26.9,179.8C727.7,1219.6,723.1,1223.5,717.9,1223.5z"/><linearGradient id="Z" x1="367.159" x2="740.513" y1="1101.345" y2="1101.345" gradientUnits="userSpaceOnUse"><stop offset="0" stop-color="#f9fcff"/><stop offset="1" stop-color="#e7edf7"/></linearGradient><polygon fill="url(#Z)" points="367.2 1166.5 392.9 994 740.5 1036.2 714.7 1208.6"/><g><path fill="#b8becc" d="M614.9,1050.6L437,1030.3c-1.4-0.2-2.3-1.4-2.2-2.8l0-0.1c0.2-1.4,1.5-2.4,2.9-2.2l177.9,20.3
									c1.4,0.2,2.3,1.4,2.2,2.8l0,0.1C617.6,1049.8,616.3,1050.8,614.9,1050.6z"/><path fill="#b8becc" d="M580.1,1062.3l-145.5-16.6c-1.2-0.1-2.1-1.3-1.9-2.5l0.1-0.6c0.2-1.3,1.3-2.2,2.6-2l145.5,16.6
									c1.2,0.1,2.1,1.3,1.9,2.5l-0.1,0.6C582.5,1061.5,581.4,1062.4,580.1,1062.3z"/><path fill="#b8becc" d="M642.8,1070.9c-6.1-0.7-10.3-6.5-9.4-12.9c1.1-7.6,6.8-12.2,12.8-11.5l49.5,5.6
								c6.1,0.7,10.3,6.5,9.4,12.9c-1.1,7.6-6.8,12.2-12.9,11.5L642.8,1070.9z"/><path fill="#fff" d="M692.3,1075.1l-49.1-5.6c-5.4-0.6-9.3-5.6-8.5-11.1l0.2-1.6c0.8-5.5,5.9-9.4,11.3-8.8l49.1,5.6
								c5.4,0.6,9.3,5.6,8.5,11.1l-0.2,1.6C702.8,1071.7,697.7,1075.7,692.3,1075.1z"/><linearGradient id="aa" x1="624.684" x2="662.106" y1="1232.553" y2="1232.553" gradientTransform="matrix(.9865 .1125 -.1401 .9901 195.11 -232.674)" gradientUnits="userSpaceOnUse"><stop offset="0" stop-color="#505faa"/><stop offset="1" stop-color="#8f92c7"/></linearGradient><path fill="url(#aa)" d="M666.8,1069.2l-21.6-2.5c-4.2-0.5-7.2-4.3-6.6-8.6l0-0.3c0.6-4.2,4.5-7.3,8.8-6.8l21.6,2.5
								c4.2,0.5,7.2,4.3,6.6,8.6l0,0.3C674.9,1066.6,671,1069.7,666.8,1069.2z"/><ellipse cx="413.7" cy="1033.6" fill="#b8becc" rx="11.2" ry="10.9" transform="rotate(-45.049 413.698 1033.57)"/><g><path fill="#b8becc" d="M608,1099.4l-177.9-20.3c-1.4-0.2-2.3-1.4-2.2-2.8l0-0.1c0.2-1.4,1.5-2.4,2.9-2.2l177.9,20.3
									c1.4,0.2,2.3,1.4,2.2,2.8l0,0.1C610.7,1098.5,609.4,1099.5,608,1099.4z"/><path fill="#b8becc" d="M573.2,1111l-145.5-16.6c-1.2-0.1-2.1-1.3-1.9-2.5l0.1-0.6c0.2-1.3,1.3-2.2,2.6-2l145.5,16.6
									c1.2,0.1,2.1,1.3,1.9,2.5l-0.1,0.6C575.6,1110.2,574.5,1111.2,573.2,1111z"/><path fill="#b8becc" d="M635.9,1119.6c-6.1-0.7-10.3-6.5-9.4-12.9c1.1-7.6,6.8-12.2,12.8-11.5l49.5,5.6
								c6.1,0.7,10.3,6.5,9.4,12.9c-1.1,7.6-6.8,12.2-12.9,11.5L635.9,1119.6z"/><path fill="#fff" d="M685.4,1123.8l-49.1-5.6c-5.4-0.6-9.3-5.6-8.5-11.1l0.2-1.6c0.8-5.5,5.9-9.4,11.3-8.8l49.1,5.6
								c5.4,0.6,9.3,5.6,8.5,11.1l-0.2,1.6C695.9,1120.5,690.8,1124.4,685.4,1123.8z"/><linearGradient id="ab" x1="624.684" x2="662.106" y1="1281.787" y2="1281.787" gradientTransform="matrix(.9865 .1125 -.1401 .9901 195.11 -232.674)" gradientUnits="userSpaceOnUse"><stop offset="0" stop-color="#505faa"/><stop offset="1" stop-color="#8f92c7"/></linearGradient><path fill="url(#ab)" d="M659.9,1117.9l-21.6-2.5c-4.2-0.5-7.2-4.3-6.6-8.6l0-0.3c0.6-4.2,4.5-7.3,8.8-6.8l21.6,2.5
								c4.2,0.5,7.2,4.3,6.6,8.6l0,0.3C668,1115.3,664.1,1118.4,659.9,1117.9z"/><ellipse cx="406.8" cy="1082.4" fill="#b8becc" rx="11.2" ry="10.9" transform="rotate(-45.049 406.797 1082.317)"/></g><g><path fill="#b8becc" d="M601.1,1148.1l-177.9-20.3c-1.4-0.2-2.3-1.4-2.2-2.8l0-0.1c0.2-1.4,1.5-2.4,2.9-2.2l177.9,20.3
									c1.4,0.2,2.3,1.4,2.2,2.8l0,0.1C603.8,1147.3,602.5,1148.3,601.1,1148.1z"/><path fill="#b8becc" d="M566.3,1159.8l-145.5-16.6c-1.2-0.1-2.1-1.3-1.9-2.5l0.1-0.6c0.2-1.3,1.3-2.2,2.6-2l145.5,16.6
									c1.2,0.1,2.1,1.3,1.9,2.5l-0.1,0.6C568.7,1159,567.6,1159.9,566.3,1159.8z"/><path fill="#b8becc" d="M629,1168.4c-6.1-0.7-10.3-6.5-9.4-12.9c1.1-7.6,6.8-12.2,12.8-11.5l49.5,5.6
								c6.1,0.7,10.3,6.5,9.4,12.9c-1.1,7.6-6.8,12.2-12.9,11.5L629,1168.4z"/><path fill="#fff" d="M678.5,1172.5l-49.1-5.6c-5.4-0.6-9.3-5.6-8.5-11.1l0.2-1.6c0.8-5.5,5.9-9.4,11.3-8.8l49.1,5.6
								c5.4,0.6,9.3,5.6,8.5,11.1l-0.2,1.6C689,1169.2,683.9,1173.2,678.5,1172.5z"/><linearGradient id="ac" x1="624.684" x2="662.106" y1="1331.021" y2="1331.021" gradientTransform="matrix(.9865 .1125 -.1401 .9901 195.11 -232.674)" gradientUnits="userSpaceOnUse"><stop offset="0" stop-color="#505faa"/><stop offset="1" stop-color="#8f92c7"/></linearGradient><path fill="url(#ac)" d="M653,1166.7l-21.6-2.5c-4.2-0.5-7.2-4.3-6.6-8.6l0-0.3c0.6-4.2,4.5-7.3,8.8-6.8l21.6,2.5
								c4.2,0.5,7.2,4.3,6.6,8.6l0,0.3C661.1,1164.1,657.2,1167.2,653,1166.7z"/><ellipse cx="399.9" cy="1131.1" fill="#b8becc" rx="11.2" ry="10.9" transform="rotate(-45.049 399.896 1131.063)"/></g></g></g><g><linearGradient id="ad" x1="1616.847" x2="1276.433" y1="1744.379" y2="1971.322" gradientUnits="userSpaceOnUse"><stop offset="0" stop-color="#505faa"/><stop offset="1" stop-color="#8f92c7"/></linearGradient><path fill="url(#ad)" d="M1637.4,2029c-0.4,0-0.8,0-1.2-0.1l-525.2-63.1c-2.9-0.3-5.5-1.8-7.3-4.1c-1.8-2.3-8.6-10.5-8.2-13.4
							l33-174.5c0.8-5.2,5.3-9.1,10.6-9.1c0.4,0,0.8,0,1.2,0.1l525.2,63.1c2.9,0.3-0.8-7.4,1-5.1c1.8,2.3,8.8,14.4,8.4,17.3
							l-26.9,179.8C1647.2,2025,1642.7,2029,1637.4,2029z"/><linearGradient id="ae" x1="1095.186" x2="1668.729" y1="1887.596" y2="1887.596" gradientUnits="userSpaceOnUse"><stop offset="0" stop-color="#505faa"/><stop offset="1" stop-color="#8f92c7"/></linearGradient><path fill="url(#ae)" d="M1631.1,2019.8c-0.4,0-0.8,0-1.2-0.1l-525.2-63.1c-2.9-0.3-5.5-1.8-7.3-4.1c-1.8-2.3-2.5-5.2-2.1-8.1
							l26.9-179.8c0.8-5.2,5.3-9.1,10.6-9.1c0.4,0,0.8,0,1.2,0.1l525.2,63.1c2.9,0.3,5.5,1.8,7.3,4.1c1.8,2.3,2.5,5.2,2.1,8.1
							l-26.9,179.8C1640.9,2015.9,1636.4,2019.8,1631.1,2019.8z"/><linearGradient id="af" x1="1110.175" x2="1653.756" y1="1887.591" y2="1887.591" gradientUnits="userSpaceOnUse"><stop offset="0" stop-color="#f9fcff"/><stop offset="1" stop-color="#e7edf7"/></linearGradient><polygon fill="url(#af)" points="1110.2 1942.7 1136 1770.2 1653.8 1832.5 1627.9 2004.9"/><g><linearGradient id="ag" x1="1247.095" x2="1343.24" y1="1985.4" y2="1985.4" gradientTransform="matrix(.9925 .1219 -.1321 .9912 177.067 -258.796)" gradientUnits="userSpaceOnUse"><stop offset="0" stop-color="#f58b21"/><stop offset="1" stop-color="#f5b419"/></linearGradient><path fill="url(#ag)" d="M1247.9,1873c-3.5,26.3-27.7,45-54.1,41.8c-26.4-3.2-44.9-27.2-41.4-53.5c3.5-26.3,27.7-45,54.1-41.8
							S1251.4,1846.7,1247.9,1873z"/><polygon fill="#fff" points="1175.3 1851.3 1186.6 1888.8 1229.3 1870.7 1225.9 1861 1193.5 1874.8 1186.1 1847.7"/><g><path fill="#b8becc" d="M1587,1879.5l-259.9-31.9c-2.1-0.3-3.6-2.2-3.3-4.3l0.1-0.5c0.3-2.1,2.2-3.6,4.4-3.4l259.9,31.9
							c2.1,0.3,3.6,2.2,3.3,4.3l-0.1,0.5C1591.1,1878.2,1589.2,1879.7,1587,1879.5z"/><path fill="#b8becc" d="M1584.2,1898.8l-296.4-36.4c-2.3-0.3-3.9-2.4-3.6-4.6l0,0c0.3-2.3,2.4-3.9,4.7-3.6l296.4,36.4
							c2.3,0.3,3.9,2.4,3.6,4.6l0,0C1588.6,1897.5,1586.5,1899.1,1584.2,1898.8z"/><path fill="#b8becc" d="M1581.6,1918.2l-296.4-36.4c-2.3-0.3-3.9-2.4-3.6-4.6l0,0c0.3-2.3,2.4-3.9,4.7-3.6l296.4,36.4
							c2.3,0.3,3.9,2.4,3.6,4.6l0,0C1586,1916.8,1583.9,1918.4,1581.6,1918.2z"/><path fill="#b8becc" d="M1579,1937.5l-296.4-36.4c-2.3-0.3-3.9-2.4-3.6-4.6v0c0.3-2.3,2.4-3.9,4.7-3.6l296.4,36.4
							c2.3,0.3,3.9,2.4,3.6,4.6l0,0C1583.4,1936.2,1581.3,1937.8,1579,1937.5z"/><path fill="#b8becc" d="M1533.7,1951.6l-253.9-31.2c-2.1-0.3-3.6-2.2-3.3-4.3l0.1-0.6c0.3-2.1,2.2-3.6,4.3-3.3l253.9,31.2
							c2.1,0.3,3.6,2.2,3.3,4.3l-0.1,0.6C1537.7,1950.4,1535.8,1951.9,1533.7,1951.6z"/></g></g></g><g opacity=".81"><linearGradient id="ah" x1="1893.684" x2="2438.1" y1="1555.753" y2="1555.753" gradientUnits="userSpaceOnUse"><stop offset="0" stop-color="#f58b21"/><stop offset="1" stop-color="#f5b419"/></linearGradient><path fill="url(#ah)" d="M2169.4,1304.6c-150.3,0-273.8,112.4-275.7,251.1c-1.9,138.7,118.3,251.1,268.7,251.1
					c150.3,0,273.8-112.4,275.7-251.1C2440,1417.1,2319.7,1304.6,2169.4,1304.6z M2163.1,1755.9c-119.8,0-215.6-89.6-214.1-200.1
					c1.5-110.5,99.9-200.1,219.7-200.1s215.6,89.6,214.1,200.1C2381.2,1666.3,2282.9,1755.9,2163.1,1755.9z"/><linearGradient id="ai" x1="1997.254" x2="2334.529" y1="1555.753" y2="1555.753" gradientUnits="userSpaceOnUse"><stop offset="0" stop-color="#505faa"/><stop offset="1" stop-color="#8f92c7"/></linearGradient><path fill="url(#ai)" d="M2168.1,1400.2c-93.1,0-169.6,69.7-170.8,155.6c-1.2,85.9,73.3,155.6,166.4,155.6
					c93.1,0,169.6-69.7,170.8-155.6C2335.7,1469.8,2261.2,1400.2,2168.1,1400.2z M2164.5,1656.6c-60.4,0-108.6-45.1-107.9-100.8
					c0.8-55.7,50.3-100.8,110.7-100.8s108.6,45.1,107.9,100.8C2274.4,1611.4,2224.8,1656.6,2164.5,1656.6z"/><linearGradient id="aj" x1="2100.096" x2="2231.688" y1="1555.753" y2="1555.753" gradientUnits="userSpaceOnUse"><stop offset="0" stop-color="#f58b21"/><stop offset="1" stop-color="#f5b419"/></linearGradient><path fill="url(#aj)" d="M2166.7,1495.1c-36.3,0-66.2,27.2-66.6,60.7c-0.5,33.5,28.6,60.7,64.9,60.7c36.3,0,66.2-27.2,66.6-60.7
					C2232.2,1522.2,2203.1,1495.1,2166.7,1495.1z"/><path fill="#4b5ba7" d="M2521.5,1556.9c-0.2,19.4-2.4,38.2-5.9,56.7l-157.5-16.5c4.1-13.5,6.3-27.7,6.5-42.4
						c0.8-43.3-16.5-84.9-48.3-117.3c-16.7-16.9-36.9-30.6-59.2-40.6l39-153.2c49.8,17.8,95.1,46.3,131.8,83.6
						C2489.5,1389.8,2522.9,1471.2,2521.5,1556.9z" opacity=".81"/><path fill="#4b5ba7" d="M2099,1723.8l-43.7,150.4c-57.5-17.1-109.8-47.9-151.4-90c-61.4-62.2-94.5-143.4-93.6-228.5h156.9v1.2
						c-0.6,43.3,16.5,84.9,48.4,117.1C2038.2,1697.1,2067,1714,2099,1723.8z" opacity=".81"/><linearGradient id="ak" x1="2259.044" x2="2272.605" y1="1267.394" y2="1267.394" gradientUnits="userSpaceOnUse"><stop offset="0" stop-color="#505faa"/><stop offset="1" stop-color="#2c3c91"/></linearGradient><polygon fill="url(#ak)" points="2261.6 1286.6 2259 1285.9 2269.7 1248.1 2272.6 1249"/><linearGradient id="al" x1="1821.554" x2="2263.641" y1="1381.646" y2="1381.646" gradientUnits="userSpaceOnUse"><stop offset="0" stop-color="#505faa"/><stop offset="1" stop-color="#2c3c91"/></linearGradient><path fill="url(#al)" d="M1860.5,1528.7l-39-4.6l0.8-6.2l38.8,5.4L1860.5,1528.7z M1862,1518.1l-38.7-6.6l1-6l38.6,7
							L1862,1518.1z M1864,1507.3l-38.4-8.1l1.3-5.9l38.3,8.5L1864,1507.3z M1866.4,1496.5l-38.1-9.3l1.6-6.1l37.9,10.1
							L1866.4,1496.5z M1869.2,1486.2l-37.6-11.2l1.8-5.8l37.5,11.6L1869.2,1486.2z M1872.4,1475.9l-37.1-12.8l2-5.7l37,13.2
							L1872.4,1475.9z M1876.1,1465.6l-36.5-14.2l2.2-5.7l36.4,14.7L1876.1,1465.6z M1880.3,1455.4l-36-15.4l2.5-5.7l35.7,16.2
							L1880.3,1455.4z M1884.8,1445.4l-35.5-16.7l2.8-5.8l35,17.7L1884.8,1445.4z M1889.6,1435.8l-34.6-18.5l2.9-5.4l34.4,18.9
							L1889.6,1435.8z M1895.1,1426.1l-34.1-19.4l3.3-5.5l33.5,20.4L1895.1,1426.1z M1900.6,1416.9l-33.1-21.1l3.3-5.1l32.8,21.6
							L1900.6,1416.9z M1906.6,1407.8l-32.2-22.4l3.5-5l32,22.7L1906.6,1407.8z M1913,1398.9l-31.4-23.5l3.8-5l30.9,24.2
							L1913,1398.9z M1919.8,1390.1l-30.6-24.6l4-4.9l30,25.3L1919.8,1390.1z M1926.8,1381.7l-29.6-25.7l4.1-4.6l29.2,26.3
							L1926.8,1381.7z M1934.3,1373.6l-28.7-26.8l4.3-4.5l28.1,27.4L1934.3,1373.6z M1941.9,1365.7l-27.5-27.9l4.5-4.3l27,28.4
							L1941.9,1365.7z M1949.9,1358.1l-26.5-28.9l4.5-4.1l26.2,29.2L1949.9,1358.1z M1958.2,1350.7l-25.6-29.7l4.8-4.1l24.9,30.3
							L1958.2,1350.7z M1966.6,1343.8l-24.4-30.7l4.9-3.8l23.8,31.1L1966.6,1343.8z M1975.4,1337.1l-23.3-31.6l5-3.6l22.9,31.9
							L1975.4,1337.1z M1984.4,1330.7l-22.1-32.4l5.1-3.4l21.7,32.7L1984.4,1330.7z M1993.6,1324.6l-21-33.1l5.2-3.2l20.5,33.4
							L1993.6,1324.6z M2003.1,1318.8l-20-33.8l5.4-3.1l19.3,34.1L2003.1,1318.8z M2012.7,1313.3l-18.8-34.4l5.6-3l18,34.9
							L2012.7,1313.3z M2022.4,1308.3l-17.4-35.2l5.5-2.7l16.9,35.4L2022.4,1308.3z M2032.5,1303.5l-16.3-35.7l5.7-2.5l15.7,36
							L2032.5,1303.5z M2042.6,1299.1l-15-36.2l5.7-2.3l14.4,36.5L2042.6,1299.1z M2052.8,1295l-13.9-36.7l5.8-2.1l13.3,36.9
							L2052.8,1295z M2063.2,1291.3l-12.6-37.2l5.9-1.9l12,37.4L2063.2,1291.3z M2073.8,1287.9l-11.4-37.5l6-1.8l10.6,37.8
							L2073.8,1287.9z M2084.4,1284.9l-10.2-37.9l6.1-1.6l9.4,38.1L2084.4,1284.9z M2253.8,1284.5l-5.3-1.4l9.2-38.1l6,1.5
							L2253.8,1284.5z M2095.1,1282.3l-8.9-38.2l6.1-1.4l8,38.4L2095.1,1282.3z M2243,1281.9l-5.3-1.2l8-38.4l6.1,1.3L2243,1281.9z
							 M2105.9,1280l-7.5-38.5l6-1.1l6.9,38.6L2105.9,1280z M2232.2,1279.7l-5.4-1l6.5-38.7l6.2,1.1L2232.2,1279.7z M2116.7,1278.1
							l-6.2-38.7l6.1-0.9l5.6,38.8L2116.7,1278.1z M2221.3,1277.8l-5.5-0.8l5.4-38.9l6.1,0.9L2221.3,1277.8z M2127.7,1276.5l-5-38.9
							l6.2-0.7l4.3,39L2127.7,1276.5z M2210.4,1276.3l-5.5-0.6l4-39l6.1,0.7L2210.4,1276.3z M2138.7,1275.3l-3.7-39.1l6.1-0.5
							l3.1,39.1L2138.7,1275.3z M2199.4,1275.1l-5.4-0.4l2.6-39.1l6.3,0.5L2199.4,1275.1z M2149.7,1274.5l-2.3-39.2l6.1-0.3
							l1.7,39.2L2149.7,1274.5z M2188.4,1274.4l-5.5-0.3l1.5-39.2l6.1,0.3L2188.4,1274.4z M2160.8,1274l-1.1-39.2l6.2-0.1l0.4,39.2
							L2160.8,1274z M2177.4,1273.9l-5.6-0.1l0.2-39.2l6.1,0.1L2177.4,1273.9z"/><linearGradient id="am" x1="1820.615" x2="1859.805" y1="1532.933" y2="1532.933" gradientUnits="userSpaceOnUse"><stop offset="0" stop-color="#505faa"/><stop offset="1" stop-color="#2c3c91"/></linearGradient><polygon fill="url(#am)" points="1859.8 1535.5 1840.1 1535.2 1820.6 1533.3 1820.9 1530.4 1840.4 1532.3"/><linearGradient id="an" x1="2067.785" x2="2077.707" y1="1846.12" y2="1846.12" gradientUnits="userSpaceOnUse"><stop offset="0" stop-color="#f58b21"/><stop offset="1" stop-color="#f5b419"/></linearGradient><polygon fill="url(#an)" points="2070.1 1865.5 2067.8 1864.9 2077 1826.8 2077.7 1826.9"/><linearGradient id="ao" x1="2076.118" x2="2500.678" y1="1750.337" y2="1750.337" gradientUnits="userSpaceOnUse"><stop offset="0" stop-color="#f58b21"/><stop offset="1" stop-color="#f5b419"/></linearGradient><path fill="url(#ao)" d="M2162.8,1876.9l-0.2-39.2l5.6-0.1l0.8,39.2L2162.8,1876.9z M2156.4,1876.8l-6.1-0.1l1.1-39.2l5.7,0.1
							L2156.4,1876.8z M2175.2,1876.6l-1.3-39.2l5.5-0.2l2.1,39.2L2175.2,1876.6z M2144,1876.5l-6.2-0.3l2.5-39.2l5.6,0.3
							L2144,1876.5z M2187.6,1876l-2.6-39.1l5.6-0.4l3.3,39.1L2187.6,1876z M2131.6,1875.7l-6.3-0.6l3.8-39l5.5,0.5L2131.6,1875.7z
							 M2200.1,1874.9l-4-39l5.6-0.6l4.6,39L2200.1,1874.9z M2119.2,1874.5l-6.3-0.8l5.1-38.9l5.5,0.7L2119.2,1874.5z
							 M2212.5,1873.4l-5.3-38.9l5.5-0.8l5.9,38.8L2212.5,1873.4z M2106.8,1872.8l-6.2-1l6.5-38.7l5.4,0.9L2106.8,1872.8z
							 M2224.8,1871.6l-6.6-38.7l5.5-1l7.2,38.6L2224.8,1871.6z M2094.4,1870.8l-6.1-1.2l7.6-38.5l5.5,1.1L2094.4,1870.8z
							 M2237.1,1869.3l-7.8-38.4l5.4-1.1l8.6,38.3L2237.1,1869.3z M2082.2,1868.3l-6.1-1.4l9-38.2l5.5,1.2L2082.2,1868.3z
							 M2249.3,1866.5l-9.2-38.1l5.4-1.4l9.9,38L2249.3,1866.5z M2261.4,1863.4l-10.5-37.8l5.4-1.6l11,37.6L2261.4,1863.4z
							 M2273.4,1859.9l-11.8-37.4l5.4-1.7l12.3,37.2L2273.4,1859.9z M2285.2,1855.9l-13-37l5.2-1.9l13.6,36.8L2285.2,1855.9z
							 M2297,1851.6l-14.3-36.5l5.1-2l15.1,36.2L2297,1851.6z M2308.6,1846.8l-15.6-36l5.1-2.3l16.2,35.7L2308.6,1846.8z
							 M2319.9,1841.7l-16.6-35.5l5-2.4l17.4,35.2L2319.9,1841.7z M2331.3,1836.1l-18-34.9l5-2.6l18.6,34.5L2331.3,1836.1z
							 M2342.3,1830.2l-19.2-34.2l4.9-2.8l19.7,34L2342.3,1830.2z M2353.1,1823.8l-20.4-33.5l4.8-2.9l21,33.2L2353.1,1823.8z
							 M2363.8,1817.1l-21.5-32.8l4.6-3.1l22.1,32.4L2363.8,1817.1z M2374.2,1810l-22.8-31.9l4.6-3.3l23.2,31.6L2374.2,1810z
							 M2384.2,1802.6l-23.8-31.2l4.4-3.4l24.3,30.8L2384.2,1802.6z M2394,1794.8l-24.9-30.4l4.2-3.5l25.6,29.8L2394,1794.8z
							 M2403.7,1786.6l-26.1-29.3l4.2-3.7l26.6,28.8L2403.7,1786.6z M2412.9,1778.2l-27-28.5l3.9-3.8l27.7,27.8L2412.9,1778.2z
							 M2421.9,1769.3l-28.1-27.4l3.9-4.1l28.6,26.9L2421.9,1769.3z M2430.5,1760.1l-29.1-26.3l3.5-4l29.7,25.7L2430.5,1760.1z
							 M2438.7,1750.6l-30.1-25.2l3.2-3.9l30.8,24.3L2438.7,1750.6z M2446.6,1740.8l-31-24l3.4-4.5l31.4,23.6L2446.6,1740.8z
							 M2454.1,1730.7l-31.9-22.8l3.3-4.7l32.2,22.4L2454.1,1730.7z M2461.3,1720.4l-32.7-21.7l2.9-4.5l33.3,20.7L2461.3,1720.4z
							 M2468,1709.6l-33.6-20.2l2.9-4.8l33.9,19.7L2468,1709.6z M2474.2,1698.8l-34.3-19.1l2.5-4.6l34.9,17.9
							C2476.4,1695,2475.3,1696.9,2474.2,1698.8z M2480.1,1687.6L2445,1670l2.4-4.9l35.5,16.8L2480.1,1687.6z M2485.5,1676.2
							l-35.8-16.1l2.2-5l36.2,15.2L2485.5,1676.2z M2490.5,1664.5l-36.4-14.5l2-5.3l36.6,14L2490.5,1664.5z M2495,1652.7l-37-13
							l1.8-5.4l37.2,12.6L2495,1652.7z M2498.9,1640.7l-37.5-11.4l1.6-5.5l37.7,11L2498.9,1640.7z"/><g><linearGradient id="ap" x1="2464.457" x2="2503.169" y1="1622.318" y2="1622.318" gradientUnits="userSpaceOnUse"><stop offset="0" stop-color="#f58b21"/><stop offset="1" stop-color="#f5b419"/></linearGradient><polygon fill="url(#ap)" points="2502.4 1628.5 2464.5 1618.6 2465.1 1616.2 2503.2 1625.6"/></g><linearGradient id="aq" x1="1779.082" x2="2177.84" y1="1296.603" y2="1296.603" gradientUnits="userSpaceOnUse"><stop offset="0" stop-color="#f58b21"/><stop offset="1" stop-color="#f5b419"/></linearGradient><path fill="url(#aq)" d="M2177.8,1155.6l-4.5,117.5h-2.7c-125.3,0-234.8,67.5-285.8,164.8l-105.7-51.2
					c70-136.3,219.7-231.3,391.5-231.3C2172.9,1155.4,2175.5,1155.4,2177.8,1155.6z" opacity=".82"/><g><path fill="#4b5ba7" d="M2483.2,1282.9c-78.5-79.4-189.1-125.5-305.4-127.3l-4.5,117.5c86.5,0.8,168.7,34.1,226.2,92.4
						c16.7,16.9,30.6,35.1,42.2,54.7l100-61.8C2525.6,1331.3,2506,1306,2483.2,1282.9z M1854.4,1556.5
						c0.6-42.4,11.4-82.6,30.4-118.7l-105.7-51.2c-26.5,51.2-41.6,108.3-42.4,168.3c-1.4,102,38.4,199.3,111.8,273.8
						c23.9,24.1,50.8,45.3,80,63c16.5-31.8,35.7-68.8,54.5-104.7c-18.4-11.8-35.5-25.5-50.8-41
						C1881.1,1694.2,1853.4,1626.7,1854.4,1556.5z"/></g><linearGradient id="ar" x1="1928.542" x2="2595.071" y1="1657.31" y2="1657.31" gradientUnits="userSpaceOnUse"><stop offset="0" stop-color="#f58b21"/><stop offset="1" stop-color="#f5b419"/></linearGradient><path fill="url(#ar)" d="M2595,1556.5c-3.1,220.5-197.7,399.7-433.9,399.7c-83.2,0-164.2-22.8-232.6-64.5
					c16.5-31.8,35.7-68.8,54.5-104.7c51.6,33.3,113.8,51.6,178.1,51.6c172,0,314-127.3,316.2-283.6c0.6-47.5-11.8-93.8-35.7-134.7
					l100-61.8C2577.4,1418.2,2596,1486.3,2595,1556.5z" opacity=".82"/><linearGradient id="as" x1="1726.367" x2="2176.647" y1="1263.113" y2="1263.113" gradientUnits="userSpaceOnUse"><stop offset="0" stop-color="#f58b21"/><stop offset="1" stop-color="#f5b419"/></linearGradient><path fill="url(#as)" d="M2176.6,1103.9l-5.1,132.7h-3.1c-141.5,0-265.1,76.2-322.7,186l-119.4-57.8
					c79.1-153.9,248.1-261.1,442.1-261.1C2171.1,1103.6,2174,1103.6,2176.6,1103.9z" opacity=".61"/><path fill="#4b5ba7" d="M2647.8,1556.5c-1.2,86.7-28.6,167.5-75.3,236.4l-119.6-60.2c38.2-51,61.2-112.2,62-177.9
					c0.8-53.5-13.3-105.7-40.2-152l113-69.8C2627.8,1400.4,2648.8,1477.3,2647.8,1556.5z" opacity=".49"/><path fill="#4b5ba7" d="M2563,1814.2c-86.7,129.1-240.7,215.2-414.6,215.2c-35.3,0-70.2-3.7-104-10.6l31-129.5
					c23.7,4.7,48.3,7.1,73,7.1c121.8,0,230.3-56.7,295-142.4L2563,1814.2z"/></g></g></switch></svg>