<svg xmlns="http://www.w3.org/2000/svg" enable-background="new 0 0 28 28" viewBox="0 0 28 28"><path fill="#ffa0c6" d="m8.559 22.73c-4.149-1.332-6.967-7.234-4.555-13.397s12.057-8.072 17.148-4.337 5.091 19.677-1.541 19.544-4.153-6.967-2.412-9.177-.603-5.225-3.818-5.158-4.288 4.965-1.374 6.669-.399 6.835-3.448 5.856z"/><path d="m15.12 17.81c-.209 0-.404-.132-.474-.342-.087-.262.054-.545.316-.632 1.219-.407 2.038-1.546 2.038-2.836 0-1.654-1.346-3-3-3s-3 1.346-3 3c0 1.29.819 2.429 2.038 2.836.262.087.403.37.316.632s-.369.403-.632.316c-1.628-.542-2.722-2.063-2.722-3.784 0-2.206 1.794-4 4-4s4 1.794 4 4c0 1.721-1.094 3.242-2.722 3.784-.052.018-.106.026-.158.026z"/><path d="m17.93 25.31c-.205 0-.396-.126-.47-.33-.094-.259.04-.546.3-.641 4.33-1.57 7.24-5.726 7.24-10.339 0-6.065-4.935-11-11-11s-11 4.935-11 11c0 4.613 2.91 8.769 7.24 10.34.26.094.394.381.3.641s-.382.393-.641.3c-4.725-1.716-7.899-6.248-7.899-11.281 0-6.617 5.383-12 12-12s12 5.383 12 12c0 5.033-3.174 9.565-7.899 11.28-.057.02-.114.03-.171.03z"/><path d="M10.07 25.31c-.059 0-.118-.01-.175-.032-.259-.097-.39-.385-.293-.644l2.81-7.5c.097-.258.387-.389.644-.293.259.097.39.385.293.644l-2.81 7.5c-.076.201-.267.325-.469.325zM17.93 25.31c-.203 0-.393-.124-.468-.325l-2.81-7.5c-.097-.258.034-.546.293-.644.257-.096.546.033.644.293l2.81 7.5c.097.258-.034.546-.293.644-.058.022-.117.032-.176.032z"/></svg>