<svg xmlns="http://www.w3.org/2000/svg" enable-background="new 0 0 3710 3710" viewBox="0 0 3710 3710"><path fill="#f4f7fa" d="M1096.5,594.2c-96.3,140.4,16.6,368.1-126.3,473.7c-139.1,102.8-310.1-65.7-441.2,22.8
		c-194.5,131.3-159,732,125.4,1105.2c85.5,112.2,157,155.9,188.7,282.9c68,272.6-170.9,434.7-125.4,569.5
		c102.4,303.5,1676.4,558.2,2308-354c295-426.1,339.1-1041.3,75.6-1508.6C2624.9,341.4,1312.6,279.1,1096.5,594.2z"/><linearGradient id="a" x1="765.809" x2="1219.639" y1="1916.756" y2="1869.341" gradientUnits="userSpaceOnUse"><stop offset=".004" stop-color="#26264f"/><stop offset="1" stop-color="#444b8c"/></linearGradient><path fill="url(#a)" d="M578.8,2860.3c-54.2,3.2-98.5-34.7-98.5-84.5V982.1c0-49.8,44.3-88.6,98.5-86.7l2559.1,92.9
			c41.5,1.5,75.1,37.9,75.1,81.1V2628c0,43.2-33.6,80.4-75.1,82.8L578.8,2860.3z"/><linearGradient id="b" x1="1733.234" x2="1829.387" y1="3303.225" y2="3165.492" gradientUnits="userSpaceOnUse"><stop offset="0" stop-color="#444b8c"/><stop offset=".996" stop-color="#26264f"/></linearGradient><path fill="url(#b)" d="M2247.3,3058.8c-40.9-14.2-71.5-50.7-80.1-95.4l-59.5-309.1l-509.3,19l-62.7,322.1
			c-8.8,45.1,26.4,90.4,66.8,107l213.1,87.5c39.6,16.3,82.2,22.7,124.6,18.9l450.3-40.4c13.2-1.2,23.7-12,25.3-26
			c1.5-13.9,10.8-29.6-1.8-33.9L2247.3,3058.8z"/><linearGradient id="c" x1="2024.305" x2="1877.145" y1="3267.918" y2="2469.052" gradientUnits="userSpaceOnUse"><stop offset="0" stop-color="#444b8c"/><stop offset=".996" stop-color="#26264f"/></linearGradient><path fill="url(#c)" d="M2252.3,3040c-40.9-14.1-71.4-50-80-94.2l-59.5-305.3l-496.9,18.8l-62.6,318c-8.8,44.5,14.4,89.2,54.9,105.6
			l212.9,86.4c39.6,16.1,82.1,22.5,124.4,18.7l449.8-39.9c13.1-1.2,23.7-11.9,25.2-25.6c1.5-13.8-6.4-26.7-18.9-31L2252.3,3040z"/><linearGradient id="d" x1="2387.327" x2="3123.759" y1="1062.597" y2="11.538" gradientUnits="userSpaceOnUse"><stop offset="0" stop-color="#444b8c"/><stop offset=".996" stop-color="#26264f"/></linearGradient><path fill="url(#d)" d="M599.1,2860.3c-54.2,3.2-98.5-34.7-98.5-84.5V982.1c0-49.8,44.3-88.6,98.5-86.7l2559.1,92.9
					c41.5,1.5,75.1,37.9,75.1,81.1V2628c0,43.2-33.6,80.4-75.1,82.8L599.1,2860.3z"/><linearGradient id="e" x1="2067.471" x2="1146.292" y1="1187.393" y2="4113.185" gradientUnits="userSpaceOnUse"><stop offset="0" stop-color="#444b8c"/><stop offset=".996" stop-color="#26264f"/></linearGradient><path fill="url(#e)" d="M3158.2,1025L599.1,937.3c-29-1-52.6,19.7-52.6,46.3v1395.5v394.2c0,26.6,23.6,46.8,52.6,45.2l2559.1-144.4
					c22.2-1.3,40.2-21.1,40.2-44.3v-356.2V1068.3C3198.4,1045.1,3180.4,1025.7,3158.2,1025z"/><linearGradient id="f" x1="2513.575" x2="332.566" y1="698.628" y2="4310.194" gradientUnits="userSpaceOnUse"><stop offset="0" stop-color="#ff9085"/><stop offset="1" stop-color="#fb6fbb"/></linearGradient><path fill="url(#f)" d="M599.1,2666c-11.3,0.6-20.5-7.4-20.5-17.8V984.6c0-10.3,9.2-18.5,20.5-18.1l2559.1,84.1
					c8.7,0.3,15.7,7.9,15.7,16.9v1455.7c0,9-7,16.8-15.7,17.2L599.1,2666z"/><g><polygon fill="#fff" points="3071.1 2450.7 711.3 2554.4 711.3 1215.2 3071.1 1264.7" opacity=".68"/><linearGradient id="g" x1="1889.357" x2="1838.398" y1="1154.784" y2="1576.604" gradientUnits="userSpaceOnUse"><stop offset="0" stop-color="#444b8c"/><stop offset=".996" stop-color="#26264f"/></linearGradient><polygon fill="url(#g)" points="3071.1 1224.2 711.3 1169.4 711.3 1055 3071.1 1122.9"/><linearGradient id="h" x1="2992.187" x2="2887.004" y1="929.054" y2="1151.795" gradientUnits="userSpaceOnUse"><stop offset="0" stop-color="#ff9085"/><stop offset="1" stop-color="#fb6fbb"/></linearGradient><path fill="url(#h)" d="M2891.8,1168.9c0,7.2-5.7,13-12.7,12.8c-7-0.2-12.7-6.2-12.7-13.4c0-7.2,5.7-13,12.7-12.8
						C2886.1,1155.6,2891.8,1161.6,2891.8,1168.9z"/><linearGradient id="i" x1="3034.446" x2="2929.608" y1="951.671" y2="1173.68" gradientUnits="userSpaceOnUse"><stop offset="0" stop-color="#ff9085"/><stop offset="1" stop-color="#fb6fbb"/></linearGradient><path fill="url(#i)" d="M2944.1,1170.2c0,7.2-5.7,12.9-12.7,12.7c-7-0.2-12.7-6.2-12.7-13.4c0-7.2,5.7-12.9,12.7-12.7
						C2938.4,1157,2944.1,1163,2944.1,1170.2z"/><linearGradient id="j" x1="3076.475" x2="2971.98" y1="974.139" y2="1195.424" gradientUnits="userSpaceOnUse"><stop offset="0" stop-color="#ff9085"/><stop offset="1" stop-color="#fb6fbb"/></linearGradient><path fill="url(#j)" d="M2996,1171.6c0,7.2-5.6,12.9-12.6,12.7c-7-0.2-12.6-6.2-12.6-13.4c0-7.2,5.6-12.9,12.6-12.7
						C2990.4,1158.4,2996,1164.4,2996,1171.6z"/><g><polygon fill="#fff" points="2593.5 2237 762.8 2294.5 762.8 1249.9 2593.5 1285.4" opacity=".68"/></g><g><polygon fill="#fff" points="3045.9 1562 2625.5 1560 2625.5 1286 3045.9 1294.1" opacity=".68"/><polygon fill="#fff" points="3045.9 1611.1 2625.5 1610.2 2625.5 1589.7 3045.9 1591"/><polygon fill="#fff" points="2889.4 1645.7 2625.5 1645.7 2625.5 1625.2 2889.4 1625.5"/></g><g><polygon fill="#fff" points="3045.9 1955 2625.5 1962.1 2625.5 1688 3045.9 1687.1" opacity=".68"/><polygon fill="#fff" points="3045.9 2004.1 2625.5 2012.3 2625.5 1991.7 3045.9 1984"/><polygon fill="#fff" points="2889.4 2042.1 2625.5 2047.7 2625.5 2027.2 2889.4 2021.8"/></g><g><polygon fill="#fff" points="3045.9 2348 2625.5 2364.1 2625.5 2090 3045.9 2080.1" opacity=".68"/><polygon fill="#fff" points="3045.9 2397.1 2625.5 2414.3 2625.5 2393.7 3045.9 2377"/><polygon fill="#fff" points="2889.4 2438.4 2625.5 2449.7 2625.5 2429.2 2889.4 2418.2"/></g><g><polygon fill="#fff" points="2029.7 2365.1 762.8 2412.1 762.8 2343.5 2029.7 2300.7"/><polygon fill="#fff" points="2593.5 2344.2 2412.7 2350.9 2412.7 2287.7 2593.5 2281.6"/><polygon fill="#fff" points="2384.8 2351.9 2200 2358.8 2200 2294.9 2384.8 2288.7"/><polygon fill="#fff" points="1342.4 2471.3 762.8 2495.1 762.8 2460.8 1342.4 2437.9"/></g></g><g><linearGradient id="k" x1="1428.441" x2="2789.033" y1="391.494" y2="2031.558" gradientUnits="userSpaceOnUse"><stop offset=".004" stop-color="#e38ddd"/><stop offset="1" stop-color="#9571f6"/></linearGradient><path fill="url(#k)" d="M2792.5,593.3L1086,569.5c-67.3-0.9-122,50.1-122,113.9v612.1c0,63.9,54.7,115.1,122,114.4l1706.5-17.3
					c60.6-0.6,109.6-50,109.6-110.3V704C2902.1,643.7,2853.1,594.1,2792.5,593.3z" opacity=".5"/><linearGradient id="l" x1="2925.266" x2="-367.561" y1="-76.252" y2="3456.455" gradientUnits="userSpaceOnUse"><stop offset=".004" stop-color="#e38ddd"/><stop offset="1" stop-color="#9571f6"/></linearGradient><path fill="url(#l)" d="M1086,1330.2c-20.7,0.2-37.5-15.7-37.5-35.3V684.3c0-19.6,16.8-35.4,37.5-35.1l1706.5,19.9
					c18.7,0.2,33.9,15.5,33.9,34.2v579.5c0,18.6-15.2,33.9-33.9,34L1086,1330.2z" opacity=".5"/><path fill="#fff" d="M1646.1,709.8l-482.8-4.9c-24.3-0.2-44,18.3-44,41.4V1212c0,23.1,19.7,41.7,44,41.5l482.8-2.7
				c23.6-0.1,42.7-18.7,42.7-41.4V751.3C1688.7,728.6,1669.6,710,1646.1,709.8z" opacity=".61"/><polygon fill="#fff" points="2715.3 918.1 1850.4 914.5 1850.4 859.9 2715.3 864.9"/><polygon fill="#fff" points="2715.3 1009.2 1850.4 1008 1850.4 953.5 2715.3 956.1"/><polygon fill="#fff" points="2474.1 1100.7 1850.4 1101.6 1850.4 1047 2474.1 1047.2"/><g><linearGradient id="m" x1="3006.881" x2="3148.986" y1="1553.72" y2="2132.663" gradientUnits="userSpaceOnUse"><stop offset="0" stop-color="#aa80f9"/><stop offset=".996" stop-color="#6165d7"/></linearGradient><path fill="url(#m)" d="M2935.3,1262.8c-9.7,13.6-19.4,27.1-29.1,40.7c42.6,31.7,93.9,80.5,93,139.6
				c-1.3,89.2-120.3,118.1-127.9,209.3c-7.7,92.4,102.5,205.8,174.5,191.9c91.7-17.7,173.2-252.3,87.2-418.7
				C3078.3,1319.8,2973.9,1276.6,2935.3,1262.8z"/><linearGradient id="n" x1="3004.538" x2="2897.926" y1="1466.541" y2="1251.379" gradientUnits="userSpaceOnUse"><stop offset=".004" stop-color="#f36f56"/><stop offset="1" stop-color="#ffc444"/></linearGradient><path fill="url(#n)" d="M2928.2,1298.4c0,0-31.3-10.8-40.4-21.4c-9.1-10.6-1.4-47.5-1-76.9c0.4-29.4,13.9,13.2,17,22.8
				c3.1,9.6,0.9,32,24.9,49.4L2928.2,1298.4z"/><linearGradient id="o" x1="1708.135" x2="1694.503" y1="1469.215" y2="1305.629" gradientTransform="rotate(3.078 1672.207 23561.525)" gradientUnits="userSpaceOnUse"><stop offset="0" stop-color="#ab316d"/><stop offset="1" stop-color="#792d3d"/></linearGradient><path fill="url(#o)" d="M2855.4,1478.4c-11.3-22.3-16-22.2-18.8-34c-6.3-26.8,10-60.9,23.9-61.4c8.9-0.3,9.7,13.6,28.6,35.3
				c23.2,26.6,37.3,23.1,50.9,46.1c3.2,5.4,17.6,29.7,8.7,47.8c-11.3,23.1-55.8,26.8-74.4,8.9
				C2865.6,1512.7,2869.3,1505.9,2855.4,1478.4z"/><linearGradient id="p" x1="1659.595" x2="1672.625" y1="1228.041" y2="1710.134" gradientTransform="rotate(3.078 1672.207 23561.525)" gradientUnits="userSpaceOnUse"><stop offset=".004" stop-color="#f36f56"/><stop offset="1" stop-color="#ffc444"/></linearGradient><path fill="url(#p)" d="M2888.7,1502.4c0,0-7.9,42.4-2.3,76.9c5.1,31.2,62.8,63.5,73.9,72.8c11.1,9.3-29.3,19.4-66.4,14.5
				c-37.1-4.8-138.6-37.3-154-55.4c-15.4-18.1,18-9.2,46-12.6c28.1-3.4,54.9-50.5,55.7-74.5
				C2842.5,1500.1,2888.7,1502.4,2888.7,1502.4z"/><linearGradient id="q" x1="885.498" x2="1014.068" y1="1296.039" y2="1431.559" gradientTransform="scale(-1 1) rotate(-14.976 -554.629 16084.027)" gradientUnits="userSpaceOnUse"><stop offset=".004" stop-color="#f36f56"/><stop offset="1" stop-color="#ffc444"/></linearGradient><path fill="url(#q)" d="M2876.6,1534.1c0,0-28.4,12.5-53.5-7.6c-22.5-18,11-73.3,33.8-74c7.6-0.2,18.8,5.2,25.4,13.2
					c3.9,4.7,4.1,7.9,10.6,15.5c6,7,8.6,7.6,9.5,11c1.1,4.3-0.8,11.4-16.2,23.6c7.7-1.4,14.3,0.6,16.9,5.1c0.4,0.7,1.3,2.9,1,5.2
					C2903.2,1534.5,2892.3,1538.4,2876.6,1534.1z"/><linearGradient id="r" x1="2088.346" x2="2008.871" y1="1523.418" y2="1395.484" gradientUnits="userSpaceOnUse"><stop offset=".004" stop-color="#f36f56"/><stop offset="1" stop-color="#ffc444"/></linearGradient><path fill="url(#r)" d="M2049.8,1413.1c0,0-17,3.4-22.8-29.4c-4.5-25.7-10.4-32.8-14.6-26.5c-4.2,6.3-0.1,20.6-0.1,20.6
				s-27.1-10.5-43.9-30.9c-16.8-20.4-15.4,1.2-13.2,13.6c2.2,12.3,29,43.7,39.4,47.7c10.4,4,32.4,29.7,32.4,29.7L2049.8,1413.1z"/><linearGradient id="s" x1="1446.469" x2="1360.073" y1="3365.248" y2="3080.376" gradientTransform="scale(-1 1) rotate(.791 -883.884 -284143.865)" gradientUnits="userSpaceOnUse"><stop offset="0" stop-color="#444b8c"/><stop offset=".996" stop-color="#26264f"/></linearGradient><path fill="url(#s)" d="M2603.7,3230.8c8.8,18,6.4,25.8,4.2,29.2c-6.5,10-22,0.6-62.5,5.4c-4.8,0.6-13.8,1.8-25.2-0.9
				c-9.7-2.3-21.1-7.5-20.7-10.1c0.2-0.9,1.9-1.3,2.6-1.5c11.3-2.4,81.7-24,81.7-24L2603.7,3230.8z"/><linearGradient id="t" x1="-66.19" x2="-66.19" y1="2761.132" y2="2303.501" gradientTransform="scale(-1 1) rotate(-10.923 1555.49 16183.763)" gradientUnits="userSpaceOnUse"><stop offset="0" stop-color="#ffc444"/><stop offset=".996" stop-color="#f36f56"/></linearGradient><path fill="url(#t)" d="M2618.9,3194.7l-11.9,31.8c-1.8,4.9-6.3,8.3-11.5,8.7c-5.3,0.4-11-1.1-11.8-9.3c-1-11.1,4.9-39.3,4.9-39.3
				L2618.9,3194.7z"/><linearGradient id="u" x1="852.186" x2="852.186" y1="3249.743" y2="2792.073" gradientTransform="scale(-1 1) rotate(.791 -883.884 -284143.865)" gradientUnits="userSpaceOnUse"><stop offset="0" stop-color="#ffc444"/><stop offset=".996" stop-color="#f36f56"/></linearGradient><polygon fill="url(#u)" points="3092 3141.6 3109 3188 3133.7 3184.1 3128 3141.1"/><linearGradient id="v" x1="884.006" x2="797.612" y1="3267.043" y2="2982.176" gradientTransform="scale(-1 1) rotate(.791 -883.884 -284143.865)" gradientUnits="userSpaceOnUse"><stop offset="0" stop-color="#444b8c"/><stop offset=".996" stop-color="#26264f"/></linearGradient><path fill="url(#v)" d="M3116.7,3213.6c12-14.2,22.6-12.9,24.8-22.7c1.7-7.7-3-17.1-10.1-20.6c-9.9-5-22,2.8-24.7,4.6
				c-18.5,12-13.5,30.8-30.9,39c-3.5,1.6-9.1,3.4-14.9,8.9c-2.5,2.3-8.7,8.1-7.2,12.1c1.7,4.6,12.7,4.4,23.1,4.3
				c12.5-0.2,18.8-0.3,24.8-4C3110,3229.9,3107.5,3224.5,3116.7,3213.6z"/><linearGradient id="w" x1="2339.606" x2="2297.577" y1="2619.919" y2="3565.588" gradientTransform="scale(-1 1) rotate(12.416 1192.987 -21882.29)" gradientUnits="userSpaceOnUse"><stop offset="0" stop-color="#311944"/><stop offset="1" stop-color="#893976"/></linearGradient><path fill="url(#w)" d="M3053.1,2172.4c14.4,92.8,17.4,173.9,15.6,240.9c-1.9,72.1-8.3,85.6-4.1,134.4
				c9.2,106.2,45.6,115,73.4,231.9c30.7,129,15.1,239,8.7,281c-5.6,36.7-12.9,66.9-18.7,88c-10,12.6-29,12-49,11.6
				c-28.8-116.9-58-226.5-86.8-343.4c-55.5-173.6-111-347.2-166.5-520.8C2901.5,2254.8,2977.3,2213.6,3053.1,2172.4z"/><linearGradient id="x" x1="2339.606" x2="2297.577" y1="2619.919" y2="3565.587" gradientTransform="scale(-1 1) rotate(12.416 1192.987 -21882.29)" gradientUnits="userSpaceOnUse"><stop offset="0" stop-color="#aa80f9"/><stop offset=".996" stop-color="#6165d7"/></linearGradient><path fill="url(#x)" d="M3079,3160.2c-28.8-116.9-58-226.5-86.8-343.4c-55.5-173.6-111-347.2-166.5-520.8
				c75.8-41.2,151.6-82.4,227.4-123.6c1,6.1,1.7,12.1,2.6,18.1c-95.1,119-103,200.9-92.1,253.8c13.2,64.2,54.2,89.6,64.5,184.2
				c7.3,67.7-10.6,83.1,0.5,143.3c14.2,77.6,55.5,115.1,80,156.9c23.6,40.4,40.5,100.8,26.2,193.6c-2.3,9.7-4.6,18.5-6.7,26
				C3118,3161.2,3099,3160.5,3079,3160.2z" opacity=".3"/><linearGradient id="y" x1="1778.741" x2="846.33" y1="2703.106" y2="2660.723" gradientTransform="scale(-1 1) rotate(.791 -883.884 -284143.865)" gradientUnits="userSpaceOnUse"><stop offset="0" stop-color="#311944"/><stop offset="1" stop-color="#893976"/></linearGradient><path fill="url(#y)" d="M2921.1,2285.3c-1.8,44.5-9.2,111.8-38.1,187.1c-38.8,100.9-81.3,125-98.9,209.3
				c-18.4,88,15.3,122.5,17,203.6c1.6,75.9-25,184.5-156.6,319.8c-21.3-1.9-42.6-3.9-64-5.8c17.1-65.6,39.8-167.9,51.3-296
				c5.7-64.1,6.5-111,6.9-128.5c2.4-106.4,17.6-287.4,74-613.9C2782.1,2202.3,2851.6,2243.8,2921.1,2285.3z"/><linearGradient id="z" x1="2563.072" x2="2705.176" y1="1662.655" y2="2241.597" gradientUnits="userSpaceOnUse"><stop offset="0" stop-color="#aa80f9"/><stop offset=".996" stop-color="#6165d7"/></linearGradient><path fill="url(#z)" d="M2010.6,1425.6c13.6-7.8,27.1-15.5,40.7-23.3c150.2,147.7,281.1,188.4,373.2,198.1
				c139.1,14.7,236.2-41.8,421.7-3.3c58.4,12.1,160.3,34.7,216.8,118c14.8,21.9,20.1,38.4,44.8,195.4
				c31.5,200.7,32.6,235.7,28.2,278.9c-8.1,79.1-13.1,127-49.5,169.4c-96.8,112.6-302.6,54.5-328.4,46.9
				c-47.7-14.1-121.7-36.1-151.1-99c-21.8-46.7,1.6-74.2,8.9-165.1c3.7-45.8,15.2-188.9-52.8-274.1
				c-48.8-61.2-116.8-64.9-183.2-85.7C2274.6,1749,2139.1,1662.7,2010.6,1425.6z"/><g opacity=".3"><linearGradient id="A" x1="2422.795" x2="2957.792" y1="1658.107" y2="2472.233" gradientUnits="userSpaceOnUse"><stop offset="0" stop-color="#aa80f9"/><stop offset=".996" stop-color="#6165d7"/></linearGradient><path fill="url(#A)" d="M2999.5,2305.2c-56.6-51-90-35.4-124.4-75.9c-79.7-93.7,38.9-247.8-31-321.7c-56-59.2-162.9,6.9-224-63.2
					c-40.5-46.5-4-87.7-40-135.8c-57-76.2-184.7-21.6-351.8-69.4c-39.3-11.3-74.2-26.3-104.6-42.6c91.8,111.8,181.6,162,256.2,185.4
					c66.5,20.8,134.4,24.5,183.2,85.7c68,85.1,56.5,228.3,52.8,274.1c-7.3,90.9-30.7,118.4-8.9,165.1c29.4,63,103.5,84.9,151.1,99
					c23.6,7,197.5,56,301.2-21.6C3045.2,2356.6,3026,2329.2,2999.5,2305.2z"/></g></g></g><g><linearGradient id="B" x1="91.317" x2="117.694" y1="3055.249" y2="3390.956" gradientTransform="matrix(-1 0 0 1 1460.936 0)" gradientUnits="userSpaceOnUse"><stop offset="0" stop-color="#311944"/><stop offset="1" stop-color="#a03976"/></linearGradient><path fill="url(#B)" d="M1318.2,3222.7c0,0,106.2,48.3,107.9,56c1.7,7.7-68.3-2.6-96.9-1.5c-28.6,1.1-52.1-7.3-49.5-19.4
			c2.6-12.1,12.6-42.6,12.6-42.6L1318.2,3222.7z"/><linearGradient id="C" x1="159.411" x2="154.616" y1="3242.149" y2="2894.461" gradientTransform="matrix(-1 0 0 1 1460.936 0)" gradientUnits="userSpaceOnUse"><stop offset="0" stop-color="#ffc444"/><stop offset=".996" stop-color="#f36f56"/></linearGradient><path fill="url(#C)" d="M1322.1,3183.5l-6.5,47.8c0,0-16.8,6-28.1-1.1l-4.8-52.4L1322.1,3183.5z"/><linearGradient id="D" x1="589.777" x2="616.154" y1="3016.09" y2="3351.789" gradientTransform="matrix(-1 0 0 1 1460.936 0)" gradientUnits="userSpaceOnUse"><stop offset="0" stop-color="#311944"/><stop offset="1" stop-color="#a03976"/></linearGradient><path fill="url(#D)" d="M822,3184.7l-12.3,19.8c-3.5,5.5-4.5,12.2-2.8,18.5c4.3,16.5,12.9,48.6,16.7,57
			c5.1,11.4,73.8,18.2,73.8,18.2s6.1-8.6-8.1-19c-14.3-10.4-23.4-12.1-28.5-27.4c-5-15.4-8.4-58.8-8.4-58.8L822,3184.7z"/><linearGradient id="E" x1="616.228" x2="611.433" y1="3235.849" y2="2888.15" gradientTransform="matrix(-1 0 0 1 1460.936 0)" gradientUnits="userSpaceOnUse"><stop offset="0" stop-color="#ffc444"/><stop offset=".996" stop-color="#f36f56"/></linearGradient><path fill="url(#E)" d="M873.4,3134.3c-4.5,3.6-26.6,70.6-26.6,70.6s-7.1,9.1-20.7-4.3c-13.6-13.5-6.1-6-6.1-6l2.5-65.9
			L873.4,3134.3z"/><linearGradient id="F" x1="76.434" x2="333.507" y1="2678.899" y2="2678.899" gradientTransform="matrix(-1 0 0 1 1460.936 0)" gradientUnits="userSpaceOnUse"><stop offset="0" stop-color="#aa80f9"/><stop offset=".996" stop-color="#6165d7"/></linearGradient><path fill="url(#F)" d="M1380.5,2223.1c5.6,142.6,5.8,297.5-2.4,463c-9.2,186.4-27.8,358.6-51.2,514.8c-8.7,0.3-17.8,0.3-27.4,0.1
			c-6.4-0.2-12.7-0.5-18.7-0.9c-12.1-32.4-26.5-75-39.3-125.8c-13.5-53.5-21.7-101.5-27.5-147.3c-20.4-161.5,3.5-175.6-13.1-295.3
			c-14.7-106-35.6-110.2-60.1-260.7c-26.6-163.3-6.8-187.8,2.8-196.7C1184.6,2136.6,1281,2162.3,1380.5,2223.1z"/><linearGradient id="G" x1="76.433" x2="333.506" y1="2678.91" y2="2678.91" gradientTransform="matrix(-1 0 0 1 1460.936 0)" gradientUnits="userSpaceOnUse"><stop offset="0" stop-color="#444b8c"/><stop offset=".996" stop-color="#3e4177"/></linearGradient><path fill="url(#G)" d="M1143.6,2174.3c39.1-35.9,128.6-14.2,223.1,40.7c-108.7,117.5-120.6,193.7-107.5,243.1
			c14.7,55.9,59.5,72,59.3,133.1c-0.2,75.1-68,95-66.5,174.4c1,52.5,30.7,52,37.8,116.9c8.3,76.8-30.6,103.2-18,160.1
			c5.4,24.4,20.9,56.4,65,89.3c-3.2,23.3-6.4,46.4-9.8,69.1c-8.7,0.3-17.8,0.3-27.4,0.1c-6.4-0.2-12.7-0.5-18.7-0.9
			c-12.1-32.4-26.5-75-39.3-125.8c-13.5-53.5-21.7-101.5-27.5-147.3c-20.4-161.5,3.5-175.6-13.1-295.3
			c-14.7-106-35.6-110.2-60.1-260.7C1114.2,2207.6,1134,2183.1,1143.6,2174.3z" opacity=".3"/><linearGradient id="H" x1="147.803" x2="665.318" y1="2653.559" y2="2653.559" gradientTransform="matrix(-1 0 0 1 1460.936 0)" gradientUnits="userSpaceOnUse"><stop offset="0" stop-color="#aa80f9"/><stop offset=".996" stop-color="#6165d7"/></linearGradient><path fill="url(#H)" d="M1313.1,2220.7c-93.6,137-194.6,307.5-284.9,511.5c-68.2,154.2-117.7,299-154.1,428
			c-4.9,2.3-16.5,6.8-31.3,4.9c-20.2-2.7-32.3-15.6-35.5-19.2c-14.8-92.5-13.2-170.8-8.1-227.4c3.2-36.2,8.9-96.5,32-170.9
			c25.8-83.4,43.6-88,77.3-176.2c35-91.5,26.5-114.4,60-228.9c13.8-47.1,36.8-117.1,74.8-200.9
			C1133.3,2167.9,1223.2,2194.3,1313.1,2220.7z"/><linearGradient id="I" x1="1276.982" x2="1467.613" y1="2632.596" y2="1553.553" gradientUnits="userSpaceOnUse"><stop offset="0" stop-color="#311944"/><stop offset="1" stop-color="#893976"/></linearGradient><path fill="url(#I)" d="M1745.4,2394.5c-18,28-80,24.7-122.3,9.6c-99-35.4-162.3-161.2-167.9-261.4c-1.2-21.5-0.4-42.5-4.8-43.2
			c-11-1.6-39.1,128.4-61.2,238.6c-17.8,6.5-44.7,13.4-75.5,8.4c-50.4-8.3-56.4-39.5-112.7-59.9c-32.9-11.9-65.1-11.9-129.5-12
			c-72.7-0.1-74.7,8.9-88.7,2.4c0,0-3.5-1.9-6.4-4c-51.8-37.2,96.4-319.7,53.7-580.4c-4.7-29-12-58.7,4.2-87.7
			c41.8-75,207.1-85.5,309.5-36.2c28.1,13.5,75.1,43.1,117.1,74.3c16.8,12.5,34.2,26.4,52.4,42.3c44.1,38.6,74.9,65.4,100.2,102.7
			c102.1,150.2-15.9,275.4,76.7,467.6C1722.1,2321.5,1764.2,2365.2,1745.4,2394.5z"/><linearGradient id="J" x1="59.732" x2="59.732" y1="1734.213" y2="1526.497" gradientTransform="matrix(-1 0 0 1 1460.936 0)" gradientUnits="userSpaceOnUse"><stop offset="0" stop-color="#ffc444"/><stop offset=".996" stop-color="#f36f56"/></linearGradient><path fill="url(#J)" d="M1470.8,1541.6c0,0-26.6,30.2-55.2,45.8c-25.8,14.1-82.7-9.7-95.9-12.5c-13.2-2.8,2.6,32.7,27.5,57.1
			c24.8,24.4,107,80.3,129.1,81.3c22.2,0.9-3.6-18.5-17.2-41.1c-13.6-22.6,5.6-69.3,22.7-83.7
			C1499.1,1574.2,1470.8,1541.6,1470.8,1541.6z"/><linearGradient id="K" x1="-338.243" x2="-244.602" y1="2422.794" y2="2422.794" gradientTransform="matrix(-1 0 0 1 1460.936 0)" gradientUnits="userSpaceOnUse"><stop offset="0" stop-color="#ffc444"/><stop offset=".996" stop-color="#f36f56"/></linearGradient><path fill="url(#K)" d="M1705.5,2393.5c0,0,38.2,18.2,65.2,22.1c27,3.8,32.9,25.4,25.4,33.4c-7.5,7.9-50.5-0.8-64.9-8.8
			C1716.9,2432,1705.5,2393.5,1705.5,2393.5z"/><linearGradient id="L" x1="-1746.455" x2="-1834.663" y1="686.888" y2="462.856" gradientTransform="scale(-1 1) rotate(-28.49 334.006 422.023)" gradientUnits="userSpaceOnUse"><stop offset="0" stop-color="#444b8c"/><stop offset=".996" stop-color="#3e4177"/></linearGradient><path fill="url(#L)" d="M1531.9,1565.2c30.2-2.3,60.6-39.4,54.5-55.7c-1.8-4.6-5.7-5.4-64.7-15.1c-29.3-4.8-44-6.8-54.1,1.3
				c-6.2,4.9-11,13.8-12.5,22.1c-0.8,4.3-0.8,10.2-0.1,22c0.7,10.4,0.5,10,0.7,13.1c0.7,7.4,2.7,20.4,9.9,38.5c3-3.3,7-7.2,12-11.1
				c1.9-1.5,9.6-7.3,18.3-10.8C1510.8,1563.4,1522.1,1565.9,1531.9,1565.2z"/><linearGradient id="M" x1="-87.095" x2="10.019" y1="1674.351" y2="1485.518" gradientTransform="matrix(-1 0 0 1 1460.936 0)" gradientUnits="userSpaceOnUse"><stop offset="0" stop-color="#ffc444"/><stop offset=".996" stop-color="#f36f56"/></linearGradient><path fill="url(#M)" d="M1454.5,1571.2c0,0,1.3,28.9,28.5,41.5c24.4,11.3,56.7-39.5,47.8-58.9c-3-6.5-12.2-13.5-21.6-15.7
				c-5.6-1.3-8.3-0.2-17.3-2.5c-8.3-2.1-10-4-13.2-3.4c-4,0.8-9.2,5.4-13,23.3c-2-7-6.4-11.7-11.2-12c-0.8,0-3,0.2-4.8,1.3
				C1443.1,1549.1,1444.4,1559.8,1454.5,1571.2z"/><linearGradient id="N" x1="1419.601" x2="2201.247" y1="2223.237" y2="1232.221" gradientUnits="userSpaceOnUse"><stop offset="0" stop-color="#ffc444"/><stop offset=".996" stop-color="#f36f56"/></linearGradient><path fill="url(#N)" d="M2100.7,1993.1l-1336.5,13.3c-14,0.2-25.3,10.9-25.3,24.1v397.8c0,13.1,11.4,23.4,25.3,23.1l1336.5-41
				c12.3-0.3,22.2-10.6,22.2-22.8v-372.4C2122.9,2002.8,2113,1993,2100.7,1993.1z"/><path fill="#fff" d="M2062,2034.1L807.9,2049c-12.8,0.2-23.1,10-23.1,22V2386c0,12,10.4,21.4,23.1,21.1l1254.1-36.2
				c11.3-0.3,20.4-9.6,20.4-20.9v-295.8C2082.5,2042.9,2073.3,2033.9,2062,2034.1z" opacity=".48"/><linearGradient id="O" x1="831.92" x2="1022.551" y1="2553.969" y2="1474.927" gradientUnits="userSpaceOnUse"><stop offset="0" stop-color="#311944"/><stop offset="1" stop-color="#893976"/></linearGradient><path fill="url(#O)" d="M803.8,2153.6c-40.8-20-128.8-71.2-155.9-165.5c-45.1-157,115.2-306.7,197.9-362.7
			c94.9-64.2,190.2-74.6,248.1-80.9c71.9-7.8,115.7-12.6,148.7,14.4c85.2,69.8,34,300-50.4,323.7c-27.6,7.8-38.1-12.4-95.9-26.4
			c-18.8-4.5-159.5-38.4-232.6,36c-51.2,52.1-57.7,145.4-21.6,232.6C829.4,2134.5,816.6,2144.1,803.8,2153.6z"/><linearGradient id="P" x1="840.104" x2="860.831" y1="2248.613" y2="2131.286" gradientUnits="userSpaceOnUse"><stop offset="0" stop-color="#ffc444"/><stop offset=".996" stop-color="#f36f56"/></linearGradient><path fill="url(#P)" d="M812,2147.5l21.6-16.2c0,0,13.5,9.4,30.1,8.1c9-0.7,21,4.7,23.7,7.6c2.7,2.9,15.3,9.7-2.7,8
			c-18-1.8-20.9,3.2-18.4,12.2c2.5,9,17.5,34.2,25.2,39.6c7.6,5.4-14.3,9-23.2,5.7c-9-3.3-23.4-9.3-33.9-28.8
			C830.5,2176.5,812,2147.5,812,2147.5z"/></g></svg>