<svg xmlns="http://www.w3.org/2000/svg" enable-background="new 0 0 2950 2950" viewBox="0 0 2950 2950"><path fill="#8cc7f4" d="M243.96,1803.18c-17.47,17.56-32.15,36.96-44.72,58.02c-32.94,53.52-49.71,116.12-48.38,179.19
			c0.36,24.52,3.62,49.1,9.96,73.04c6.93,29.93,18.49,58.92,34.67,86.96c16.19,28.04,35.51,52.54,57.97,73.51
			c0.25,0.43,0.25,0.43,0.5,0.86c17.75,16.79,36.96,32.15,57.78,44.29c54.2,33.12,116.55,49.46,179.62,48.13
			c24.53-0.35,48.67-3.37,72.61-9.71l0.43-0.25c29.93-6.93,59.35-18.73,86.96-34.67c28.04-16.19,52.11-35.26,73.08-57.72l0.43-0.25
			c17.47-17.56,32.15-36.96,44.72-58.03l0.43-0.25c32.69-53.96,49.03-116.3,47.7-179.37c-0.11-24.1-3.37-48.67-9.72-72.61
			c-6.93-29.93-18.73-59.35-34.92-87.39c-16.19-28.04-35.51-52.54-57.97-73.51c-17.56-17.47-37.21-32.58-58.27-45.15
			c-53.96-32.69-115.87-49.28-178.94-47.95l-0.43,0.25c-24.53,0.36-48.67,3.37-72.61,9.72l-0.43,0.25
			c-29.93,6.93-58.49,18.24-86.53,34.43C289.86,1761.15,264.93,1780.72,243.96,1803.18z M715.28,1900.3
			c73.47,127.25,29.71,290.55-97.54,364.01c-127.68,73.72-290.54,29.71-364.01-97.54s-30.15-290.29,97.54-364.01
			C478.52,1729.3,641.82,1773.05,715.28,1900.3z"/><path fill="#fff" d="M351.33,1802.46c103.09-59.52,230-41.92,313.38,34.75c12.03,10.88,23.02,22.94,32.53,36.43
			c6.96,8.06,12.62,16.87,18.1,26.36c1.24,2.16,2.49,4.32,3.3,6.72c17.25,30.87,26.78,63.33,30.76,96.12
			c10.87,95.53-30.84,192.64-113.55,249.6c-5.79,3.92-12.01,8.09-18.05,11.57c-12.51,7.22-25.09,13.33-37.98,17.9
			c-120.39,46.5-259.79-0.7-326.03-115.44C180.32,2039.22,223.65,1876.18,351.33,1802.46z"/><path fill="#353434" d="M402.32,2239.1c18.24,4.25,37.38,6.46,56.93,6.46c2.29,0,4.5,0,6.71-0.08c0-27.89-0.25-49.16-0.82-58.32
				c-0.65-10.06-1.31-18.49-1.8-24.62c-0.57-7.77-0.98-12.11-0.98-12.11l-70.92,5.32v0.98l0.41,12.02l4.09,68.88L402.32,2239.1z"/><path fill="#353434" d="M402.32,2239.1l7.53-67l1.06-12.92l-19.47-2.45l-51.04-6.54c0,0-0.57,4.34-1.55,12.11
				c-0.9,6.14-1.88,14.48-3.11,24.46c-0.57,5.15-1.23,14.07-1.96,25.77c19.31,10.96,40.16,19.47,62.17,25.11L402.32,2239.1z"/><path fill="#2a9d90" d="M440.62,1929.11c-0.11-0.02-0.22-0.04-0.33-0.07c-27.83-5.52-59.43-4.22-89.04,4.36
						c-24.07,6.97-42.6,26.26-50.1,50.17l37.76,31.09l-10.44,173.58c-0.58,5.22,141.16,4.44,140.97,3.03
						c-2.13-16.13,10.38-192.15,10.38-192.15"/><path fill="#f4c99a" d="M418.82,1924.96c0.19-3.15,0.32-5.41,0.32-5.41s15.37-2.67,16.85-3.39c2.95-1.45,7.32-11.46,7.37-23.26
					c0.05-11.8-1.21-23.74-1.77-28.67c-0.56-4.93-2.82-24.8-21.57-31.43c-18.75-6.63-42.62,3.65-48.3,22.26
					c-5.68,18.61-2.33,32.66,1.37,38.1c3.7,5.44,6.9,15.15,7.46,18.95c0.22,1.49,0.26,6.31,0.23,11.62
					c-0.05,9.95,7.57,18.27,17.5,19.07h0C408.92,1943.66,418.18,1935.61,418.82,1924.96z"/><path fill="#323131" d="M382.45,1876.49c1.53,2.03,3.58,6.78,3.58,6.78c2.78-3.52,5.73-26.15,2.71-31.97
					c1.42,3.98,33.64-3.61,41.95-6.28c1.73-0.55,4.09,0.05,5.22,1.84c1.23,1.94,4.48,11.46,5.21,13.93
					c0.21-3.64-0.08-7.15-0.19-10.77c-0.1-3.44,10.15-16.98,5.14-23.32c-7.28-9.21-47.32-2.37-52.12-1.14
					c-5.29,1.36-21.67,8.61-22.56,16.27c-5.9,3.44-9.92,7.37-8.64,18.9c0.62,5.55,1.47,11.13,2.29,16.68
					c0.81,5.51,2.94,10.09,5.05,15.2c1.8,4.37,3.97,8.56,5.91,12.87c0.34,0.76,3.08,7.05,4.53,6.47c0.25-0.1,1.67-5.83,2.01-7.3
					c0.54-2.33,0.33-4.65,0.22-6.99c-0.04-0.87,0.1-1.9-0.35-2.7c-0.71-1.24-2.24-0.97-3.43-1.22c-3.78-0.78-5.88-4.39-6.63-7.92
					c-0.81-3.8-0.88-8.88,3.25-10.8c2.15-1,4.97-0.61,6.6,1.18C382.29,1876.29,382.38,1876.38,382.45,1876.49z"/><path fill="#f4c99a" d="M360.84,2121.3l-18.88,11.59l3.56,8.84c0,0,2.48,33.63,28.99,22.94c10.32-4.16,9.9-19.06-0.7-22.49
					c-0.15-0.05-0.3-0.1-0.45-0.14c-0.37-0.11-0.3-0.65,0.08-0.67l9.24-0.3c1.57-0.05,2.82-1.34,2.82-2.91l0,0
					c0-1.44-1.06-2.67-2.49-2.88l-9.64-1.43c-2.16-0.32-4.1-1.47-5.42-3.2L360.84,2121.3z"/><path fill="#269182" d="M332.36,2040.18c0.1,0.23,36.34,80,36.44,80.21c-0.14,0.27-28.7,23.49-28.87,23.74l-0.32,0.27l-0.22-0.36
					l-51.24-84.18c-0.3,0.11,53.29,84.77,51.32,83.7c-0.08,0.21,29.52-24.61,28.64-23.14
					C368.1,2120.42,332.36,2040.18,332.36,2040.18L332.36,2040.18z"/><path fill="#2a9d90" d="M301.15,1983.57l-15.34,46.27c-3.29,9.91-2.44,20.73,2.34,30.01l51.55,83.99l28.7-23.55l-36.04-80.11
					l14.45-42.06L301.15,1983.57z"/><path fill="#f4c99a" d="M626.27,1953.58l21.32,18.79l9.5-7.69c0,0,40.32-15.7,17.23-44.2c-8.99-11.1-27.11-4.97-27.33,9.32
					c0,0.2,0,0.4,0,0.61c0,0.5-0.69,0.62-0.85,0.15l-3.84-11.22c-0.66-1.91-2.7-2.95-4.64-2.36l0,0c-1.77,0.54-2.88,2.3-2.6,4.14
					l1.87,12.36c0.42,2.77-0.26,5.58-1.89,7.86L626.27,1953.58z"/><path fill="#2a9d90" d="M526.17,2028.98c11.19,6.91,25.33,6.87,36.49-0.08l92.99-57.96l-24.93-27.36l-83.23,46.87
					c-1.83,1.03-4.09,0.91-5.8-0.32l-63.38-51.01c-4.84-3.89-10.63-6.42-16.77-7.32c-7.47-1.09-16.46-2.32-21.26-2.75
					c-13.23-1.18,23.79,55.83,32.84,69.49c1.01,1.52,4.52,1.23,4.52,1.23"/><path fill="#353434" d="M582.68,2000.66h79.46c2.88,0,5.33-2.12,5.73-4.97l16.82-117.5c0.5-3.49-2.21-6.61-5.73-6.61H599.5
				c-2.88,0-5.33,2.12-5.73,4.97l-16.82,117.5C576.45,1997.54,579.16,2000.66,582.68,2000.66z"/><circle cx="630.82" cy="1936.12" r="13.83" fill="#fff"/><path fill="#f4c99a" d="M677.91,1925.65c0,0-7.66-0.52-10.63,4.09c-2.97,4.62-6.26,22.3,6.6,24.02c0,0,2.94-14.78,4.02-19.07
				C678.99,1930.4,677.91,1925.65,677.91,1925.65z"/><path fill="#8cc7f4" d="M2785.76,521.85c-6.48-23.91-15.94-46.32-27.89-67.74c-29.88-55.29-75.71-101.11-131-131.49
				c-21.42-11.95-44.33-21.42-68.24-27.89c-29.39-8.97-60.27-13.45-92.64-13.45c-32.38,0-63.26,4.48-92.65,13.45
				c-0.5,0-0.5,0-0.99,0c-23.41,6.97-46.32,15.94-67.24,27.89C2249.32,353,2204,398.83,2173.62,454.11
				c-11.96,21.42-21.42,43.83-27.89,67.74v0.5c-8.97,29.39-13.45,60.76-13.45,92.64c0,32.38,4.48,62.76,13.45,92.15v0.5
				c6.48,23.91,15.94,46.32,27.89,67.74v0.5c30.38,55.29,76.21,100.61,131.49,131c20.92,11.96,43.83,21.42,67.74,27.89
				c29.39,8.97,60.76,13.45,93.14,13.45c32.37,0,63.25-4.48,92.64-13.45c23.91-6.48,46.82-15.94,68.24-27.89
				c55.29-30.38,100.61-75.71,131-131v-0.5c11.95-21.42,21.42-43.83,27.89-67.74v-0.5c8.97-29.39,13.45-59.77,13.45-92.15
				C2799.21,582.62,2794.72,551.24,2785.76,521.85z M2465.99,881.47c-146.94,0-266.48-119.54-266.48-266.48
				c0-147.43,119.54-266.47,266.48-266.47s266.47,119.04,266.47,266.47C2732.46,761.93,2612.92,881.47,2465.99,881.47z"/><path fill="#fff" d="M2732.7,615.19c0,119.04-78.69,220.15-186.78,254.02c-15.44,4.98-31.38,8.47-47.81,9.96
				c-10.46,1.99-20.92,2.49-31.88,2.49c-2.49,0-4.98,0-7.47-0.5c-35.36-0.5-68.24-8.47-98.62-21.42
				c-88.16-38.35-151.42-123.03-159.39-223.14c-0.5-6.97-1-14.44-1-21.42c0-14.44,1-28.39,3.49-41.84
				c19.92-127.51,130.5-224.64,262.99-224.64C2613.16,348.72,2732.7,467.76,2732.7,615.19z"/><polygon fill="#0a0a0c" points="2509.29 671.45 2558.66 671.45 2574.28 814.01 2580.68 814.01 2566.28 661.31 2509.29 662.83"/><polygon fill="#6a6a6d" points="2509.29 671.45 2558.66 671.45 2574.28 814.01 2580.68 814.01 2566.28 661.31 2509.29 662.83"/><polygon fill="#0a0a0c" points="2505.69 662.83 2435.74 662.83 2432.14 662.83 2416.76 814.01 2420.24 814.01 2420.92 808.53 2420.36 814.01 2423.84 814.01 2441.51 671.8 2499.03 671.8 2499.49 814.01 2503.09 814.01 2503.37 814.01 2506.97 814.01 2509.29 662.83"/><polygon fill="#6a6a6d" points="2505.69 662.83 2435.74 662.83 2432.14 662.83 2416.76 814.01 2420.24 814.01 2420.92 808.53 2420.36 814.01 2423.84 814.01 2441.51 671.8 2499.03 671.8 2499.49 814.01 2503.09 814.01 2503.37 814.01 2506.97 814.01 2509.29 662.83"/><path fill="#1a2e35" d="M2480.32,647.29l15.49-108.09c0.83-7.89,6.71-13.83,13.68-13.83h72.09c1.81,0,3.28,1.67,3.28,3.74
							v114.03c0,15.86-11.27,28.72-25.17,28.72h-80.41h-63.79c-0.87,0-1.58-0.81-1.58-1.8v0c0-7.11,5.05-12.87,11.28-12.87h45.34
							C2475.52,657.19,2479.72,652.94,2480.32,647.29z"/><path fill="#6a6a6d" d="M2584.86,529.11v114.02c0,15.88-11.27,28.73-25.17,28.73h-144.2c-0.88,0-1.6-0.83-1.6-1.8
							c0-3.56,1.28-6.78,3.31-9.1c2.04-2.35,4.87-3.78,7.98-3.78h45.35c1.01,0,2-0.17,2.93-0.52c3.62-1.28,6.38-4.89,6.85-9.38
							l15.5-108.07c0.82-7.91,6.7-13.83,13.67-13.83h72.1c1.22,0,2.28,0.76,2.84,1.89C2584.69,527.8,2584.86,528.41,2584.86,529.11z
							"/><path fill="#b0b5b2" d="M2571.53,525.37v102.57c0,15.85-11.27,28.71-25.17,28.71h-72.9c3.62-1.28,6.38-4.89,6.85-9.38
							l15.5-108.07c0.82-7.91,6.7-13.83,13.67-13.83H2571.53z"/><rect width="26.32" height="23.03" x="2464.07" y="781.08" fill="#f4c99a" transform="rotate(-100.416 2477.298 792.595)"/><path fill="#353434" d="M2495.99,816.96L2435.96,828c-0.9,0.17-1.56-0.44-2.04-1.41c-1.81-3.67,0.34-8.08,4.21-9.37
						c7.24-2.41,18.66-14.08,27.89-23.68c10.88,2.43,18.99,4.8,23.48-3.67c0.16-0.31,0.62-0.26,0.72,0.08l7.28,24.58
						C2497.82,815.63,2497.12,816.76,2495.99,816.96z"/><rect width="26.32" height="23.03" x="2416.6" y="773.59" fill="#f4c99a" transform="rotate(-100.416 2429.822 785.111)"/><path fill="#353434" d="M2448.18,809.48l-60.03,11.04c-0.9,0.17-1.56-0.44-2.04-1.41c-1.81-3.67,0.34-8.08,4.21-9.37
						c7.24-2.41,18.66-14.08,27.89-23.68c10.88,2.43,18.99,4.8,23.48-3.67c0.16-0.31,0.62-0.26,0.72,0.08l7.28,24.58
						C2450.01,808.14,2449.31,809.27,2448.18,809.48z"/><path fill="#353434" d="M2560.8,588.51c0,0-37.93,37.09-57.64,55.52c-19.71,18.43-81.76,15.68-81.76,15.68l23.41,119.49
						l-32.16,3.89c0,0-30.33-88.67-42.11-136.07c-1.71-6.87,1.48-17.25,4.59-21.62c13-18.29,109.48-21.39,109.48-21.39l2.12-12.88
						L2560.8,588.51z"/><path d="M2426.11,683.78c0,0-16.99-29.92-20.61-41.9c-3.62-11.98-2.51-16.44,6.41-20.06s72.05-11.18,72.05-11.18l1.01-5.22
						l13.02,14.22c0,0-74.65,4.99-73.82,17.24C2424.99,649.13,2426.11,683.78,2426.11,683.78z" opacity=".2"/><path fill="#353434" d="M2560.8,588.51c0,0,7.8,46.08-8.1,57.88c-15.2,11.27-79.42,17.99-79.42,17.99l19.71,120.14l-31.48,5.53
						c0,0-30.63-91.6-42.41-139.01c-1.71-6.87-0.24-15.73,2.87-20.11c13-18.29,108.63-23.86,108.63-23.86L2560.8,588.51z"/><path d="M2473.27,664.38c0,0-5.02-7.31-8.82-10.31c0,0,10.89,3.62,12.96,10.06L2473.27,664.38z" opacity=".2"/><path fill="#f4c99a" d="M2409.6,589.57l6.91,10.26c0,0,43.4-14.67,48.51-19.59c5.12-4.91,11.48-49.13,11.48-49.13v-31.33
					l0.52-22.69c0,0-17.98,4.37-19.42,18.83c-0.43,4.28-8.12,67.91-8.12,67.91L2409.6,589.57z"/><path fill="#5facf2" d="M2446.85,545.21l-1.98,11.36c-0.64,3.66-2.74,6.9-5.83,8.98l-30.83,20.71l11.98,15.97l37.23-15.93
					c6.65-2.84,11.39-8.88,12.57-16.02l3.07-18.47l-7.9-13.19L2446.85,545.21z"/><path fill="#1a2e35" d="M2423.81,615.26h30.68h32.55c0,0.01,0,0.01,0,0.02c-0.02,2.41-2.71,4.36-6.02,4.35h-32.53h-18.61
							c-0.03,0-0.06,0-0.09,0c0,0,0,0,0,0h-51.78c-3.28-0.02-5.92-1.98-5.91-4.37H2423.81z"/><path fill="#1a2e35" d="M2377.07,619.39h57.77c1-0.01,1.8-0.66,1.79-1.46c0-0.15-0.03-0.3-0.09-0.44l-25.7-58.91
						c-0.65-1.68-2.58-2.83-4.78-2.84h-57.8c-0.98,0-1.77,0.64-1.77,1.42c0,0.16,0.04,0.33,0.11,0.48l25.7,58.91
						C2372.95,618.23,2374.88,619.37,2377.07,619.39z"/><path fill="#b0b5b2" d="M2348.26,555.73h57.8c2.19,0.01,4.13,1.16,4.78,2.84l24.73,56.69h18.92h32.55c0,0.01,0,0.01,0,0.02
						c-0.02,2.41-2.71,4.36-6.02,4.35h-32.53h-18.61c-0.03,0-0.06,0-0.09,0c0,0,0,0,0,0h-51.78c-1.04-0.01-2-0.23-2.85-0.57
						c-1.34-0.45-2.42-1.35-2.88-2.51l-25.7-58.91c-0.07-0.15-0.11-0.32-0.11-0.48C2346.49,556.37,2347.28,555.73,2348.26,555.73z"/><path fill="#e5e5e5" d="M2382.97,587.1c1.25,2.83,3.78,4.77,5.67,4.37c1.89-0.39,2.39-2.97,1.18-5.81
						c-1.21-2.84-3.77-4.73-5.66-4.34C2382.27,581.72,2381.71,584.19,2382.97,587.1z"/><path fill="#edf2ef" d="M2410.84,558.57l24.73,56.69h-2.68l-26.83-59.53C2408.25,555.74,2410.19,556.89,2410.84,558.57z" opacity=".3"/><g><path fill="#5facf2" d="M2479.88,604.17c0,0-10.04-12.08-6.82-14.43l1.17-111.82l2.78-0.84l22.72-5.2l23.47-5.06l12.32,2.56
							l21.69,23.92c0,0,3.06,58.35,3.22,61c0.21,3.25,1.76,45.52,1.76,45.52C2525.05,607.97,2479.27,607.05,2479.88,604.17z"/><path fill="#f4c99a" d="M2491.68,473.83l9.47,14.17l17.4-21.45c0,0-4.64-3.59-8.55-6.94c-3.11-2.66-11.49-13.26-11.49-13.26
								l-2.3,2.02L2481.59,461c0,0,10.44,5.95,10.18,8.18c0.41,1.93,0.86,3.9-0.22,4.65"/><path fill="#353434" d="M2453.69,425.87c-1.5,6.24,0.43,18.7,8.67,14.04C2470.6,435.23,2456.26,415.15,2453.69,425.87z"/><path fill="#f4c99a" d="M2497.77,431.09c2.03,15.62,3.49,24.39-2.81,33.75c-9.48,14.08-25.31,8.72-31.98-6.03
										c-6.01-13.27-12.45-34.53,1.54-43.45C2478.29,406.57,2495.74,415.47,2497.77,431.09z"/><path fill="#353434" d="M2497.19,410.09c-3.76-8.1-15.67-10.67-20.79-5.17c-0.76,0.82,6.41,1.84,5.59,1.71l2.89,12.45
										c0.88-0.38,5.24,19.8,13.27,25.36C2513.36,433.5,2509.33,411.46,2497.19,410.09z"/><path fill="#f4c99a" d="M2506.68,442.78c-0.47,4.21-2.85,7.8-5.62,9.91c-4.17,3.18-8.23-0.09-8.73-5.04
										c-0.47-4.67,0.3-11.26,6.15-12.71C2503.39,433.74,2507.22,437.97,2506.68,442.78z"/><path fill="#5facf2" d="M2487.98,474.58l4.47-3.42l0,0c4.54,3.58,11.15,2.66,14.54-2.03l5.54-7.67l10.69,5.37l-22.11,27.81
						L2487.98,474.58z"/><path fill="#f4c99a" d="M2534.38,522.82c0,0-0.07,32.28-0.13,32.62c-0.07,0.34-56.27,23.83-56.27,23.83
						c0,0.84,8.35,10.6,8.35,10.6s61.31-8.05,68.23-18.5c5.91-8.92,6.83-48.96,6.83-48.96L2534.38,522.82z"/><path fill="#5facf2" d="M2477.62,552.95l-30.77-7.74c0,0,8.43-43.78,9.88-51.12c1.64-8.31,11.7-14.61,20.29-17l7.24,28.14
						L2477.62,552.95z"/><path fill="#f4c99a" d="M2448.47,610.31c0.28-2.87,5.69-15.48,8.47-19.67c2.78-4.19,21.03-11.36,21.03-11.36l10.71,7.74
							c0,0-0.01,4.47-3.8,7.72c-2.18,1.87-9.55,3.76-9.55,3.76s0.61,2.28,0.63,4.83c0.02,2.83-0.56,6.31-2.89,6.21
							c-2.32-0.11-3.18-7.6-3.29-8.68c0.11,1.1,0.75,8.76-2.36,9.03c-3,0.26-3.5-7.74-3.5-7.74s-0.16,3.73-0.25,5.63
							c-0.09,1.9-2,3.56-3.77,1.44c-2.05-2.46-2.23-6.69-2.23-6.69s-1.62,2.48-4.04,7.88
							C2451.88,614.3,2448.23,612.73,2448.47,610.31z"/></g><g><path fill="#353434" d="M2493.81,404.53c-1.43-1.79-3.68-2.7-5.94-3.08c-3.04-0.51-6.2-0.29-9.14,0.63
					c-3.38,1.05-6.48,3.01-9.98,3.56c-0.43,0.07-24.95,1.45-25.96,4.86c-0.35,1.18-0.5,3.79-0.06,5.75c0.89,3.9,3.02,6.29,6.44,8.37
					c4.6,2.79,10.04,4.72,15.33,3.75c7.06-1.29,12.43-7.38,19.4-9.07c2.64-0.64,5.76-0.47,7.6,1.52l5.69-10.72
					C2497.19,408.27,2495.43,406.57,2493.81,404.53z"/></g><g><path fill="#5facf2" d="M2563.01,513.33c0.41-25.38-5.08-42.06-27.47-43.94c0,0-6.46,21.05-6.46,25.25
					c0,4.21,0.55,47.82,0.55,47.82l-0.58,5.05c-0.33,2.9-2.18,5.41-4.84,6.6l-45.37,21.15l12.69,16.06l49.02-10.66
					c10.96-2.38,19.06-11.65,19.96-22.83C2561.56,544.52,2562.79,526.74,2563.01,513.33z"/></g><g><path fill="#2685db" d="M2524.2,554.1c-14.79,6.78-31.08,15.19-45.21,21.02l12.69,16.06c14.86-4.99,32.27-10.02,48.01-14.91
					c-16.05,5.04-32.34,10.52-48.33,15.16l-12.68-16.06l-0.16-0.2l0.23-0.11C2493.89,568.07,2509.01,561.01,2524.2,554.1
					L2524.2,554.1z"/></g><g><path fill="#8cc7f4" d="M686.06,657.21c23.94,6.35,48.08,9.36,72.61,9.71c62.82,1.76,125.42-15.01,179.38-47.7
				c21.06-12.57,40.71-27.68,58.27-45.15c22.46-20.97,41.78-45.47,57.97-73.51c16.19-28.04,27.75-57.02,34.68-86.96
				c0.25-0.43,0.25-0.43,0.5-0.86c5.67-23.76,9.36-48.08,9.47-72.18c1.58-63.5-15.44-125.67-48.13-179.62
				c-12.57-21.06-27.25-40.46-44.72-58.02l-0.43-0.25c-20.96-22.46-45.9-42.03-73.51-57.97c-28.04-16.19-56.59-27.5-86.53-34.43
				l-0.43-0.25c-23.94-6.35-48.08-9.36-72.61-9.72l-0.43-0.25c-63.07-1.33-125.24,15.69-179.19,48.38
				c-20.82,12.14-40.46,27.25-58.03,44.72c-22.46,20.96-42.03,45.9-58.22,73.94c-16.19,28.04-27.75,57.02-34.67,86.96
				c-6.35,23.94-9.61,48.52-9.96,73.04c-1.33,63.07,15.26,124.99,47.95,178.94l0.43,0.25c12.57,21.06,27.25,40.46,44.72,58.03
				l0.43,0.25c20.97,22.46,45.04,41.53,73.08,57.72C626.71,638.48,656.13,650.28,686.06,657.21z M534.51,200.48
				c73.47-127.25,236.76-171,364.01-97.54c127.68,73.72,171,236.76,97.53,364.01s-236.33,171.25-364.01,97.54
				C504.8,491.02,461.04,327.73,534.51,200.48z"/><path fill="#fff" d="M631.76,564.59c-103.09-59.52-151.31-178.23-126.6-288.77c3.41-15.86,8.36-31.41,15.28-46.39
				c3.5-10.06,8.3-19.37,13.78-28.85c1.24-2.16,2.49-4.32,4.17-6.22c18.11-30.38,41.45-54.86,67.86-74.7
				c77.3-57.17,182.25-69.62,272.94-26.46c6.29,3.06,13.01,6.36,19.05,9.85c12.51,7.22,24.09,15.06,34.49,23.94
				c100.46,81.01,129.29,225.33,63.05,340.07C922.3,594.31,759.44,638.31,631.76,564.59z"/><path fill="#353434" d="M679.1,407.61c0,0,17.56-86.35,10.73-127.33c-6.83-40.98-7.32-83.54,20.49-103s89.28-27.26,118.55,10.3
					c29.27,37.57,13.17,142.46,21.47,181.49c8.29,39.03,10.25,50.74,10.25,50.74L679.1,407.61z"/><path fill="#e63a48" d="M622.02,473.81v-52.17c0-23.9,15.57-45.02,38.4-52.09l39.35-12.19c45.07-13.96,93.35-13.64,138.23,0.9
					l33.81,10.96c22.49,7.29,37.72,28.24,37.72,51.88v52.72l0,0C818.57,517.03,712.98,517.03,622.02,473.81L622.02,473.81z"/><ellipse cx="765.94" cy="270.77" fill="#f4c99a" rx="66.35" ry="83.18"/><path fill="#f4c99a" d="M765.21,384.2L765.21,384.2c-18.19,0-32.93-14.74-32.93-32.93V335.9h65.86v15.37
					C798.14,369.45,783.39,384.2,765.21,384.2z"/><path fill="#353434" d="M698.37,254.91c0,0,31.63-19.84,27.4-43.58c0,0,33.17,37.4,71.88,29.27c38.7-8.13,38.7-8.13,38.7-8.13
					l-24.39-33.5c0,0-30.9-31.55-61.15-18.54C720.57,193.44,692.76,225.97,698.37,254.91z"/><path fill="#5facf2" d="M843.31,302.41h-6.78v-59.03c0-38.56-31.37-69.94-69.94-69.94c-38.56,0-69.93,31.37-69.93,69.94v59.03
						h-6.78v-59.03c0-42.3,34.41-76.71,76.71-76.71c42.3,0,76.71,34.41,76.71,76.71V302.41z"/><path fill="#bbc3ef" d="M696.66,293.61c-2.13,1.76-4.66,2.78-7.33,2.78c-7.89,0-14.31-8.81-14.31-19.67
							c0-10.88,6.42-19.68,14.31-19.68c0.25,0,0.51,0.02,0.75,0.03L696.66,293.61z"/><path fill="#bbc3ef" d="M689.32,301.22c-10.55,0-19.14-10.99-19.14-24.49c0-13.75,8.41-24.52,19.14-24.52l4.84,0.35l7.75,42.98
							l-2.18,1.79C696.67,299.88,693.06,301.22,689.32,301.22z M686.2,262.84c-3.74,2.14-6.35,7.64-6.35,13.88
							c0,9.11,5.88,16.5,11.47,14.48L686.2,262.84z"/><path fill="#5facf2" d="M698.76,306.87L698.76,306.87c-5.13,0.77-9.91-2.77-10.68-7.9l-6.24-41.74
							c-0.77-5.13,2.77-9.91,7.9-10.68l0,0c5.13-0.77,9.91,2.77,10.68,7.9l6.24,41.74C707.42,301.32,703.89,306.1,698.76,306.87z"/><path fill="#bbc3ef" d="M838.01,293.76c2.28,1.57,4.89,2.35,7.55,2.12c7.86-0.7,13.48-10.04,12.51-20.86
							c-0.96-10.83-8.14-19.04-16-18.34c-0.25,0.02-0.5,0.06-0.74,0.1L838.01,293.76z"/><path fill="#bbc3ef" d="M844.63,300.75c-3.25,0-6.46-1.02-9.34-2.99l-2.35-1.6l3.92-43.56l4.86-0.75
							c10.7-0.84,19.95,9.05,21.17,22.74c0.56,6.24-0.73,12.33-3.61,17.13c-3.13,5.23-7.98,8.49-13.28,8.97
							C845.54,300.73,845.09,300.75,844.63,300.75z M843.11,290.88c0.64,0.16,1.33,0.25,2.03,0.18c2.99-0.26,4.95-2.81,5.84-4.3
							c1.81-3.03,2.64-7.15,2.27-11.32c-0.56-6.3-3.74-11.61-7.55-13.36L843.11,290.88z"/><path fill="#5facf2" d="M837.1,307.15L837.1,307.15c5.18,0.31,9.63-3.64,9.93-8.82l2.51-42.13c0.31-5.18-3.64-9.63-8.82-9.93h0
							c-5.18-0.31-9.63,3.64-9.93,8.82l-2.51,42.13C827.98,302.4,831.92,306.84,837.1,307.15z"/><g><path fill="#5facf2" d="M807.54,330.68h-21.35v-6.78h21.35c15.43,0,27.99-12.56,27.99-27.99h6.78
						C842.3,315.09,826.71,330.68,807.54,330.68z"/></g><g><path fill="#5facf2" d="M787,335.9h-14.32c-4.89,0-8.86-3.96-8.86-8.86v0c0-4.89,3.96-8.86,8.86-8.86H787
					c4.89,0,8.86,3.96,8.86,8.86v0C795.86,331.93,791.9,335.9,787,335.9z"/></g></g><g><path fill="#8cc7f4" d="M1097.9,1014.49c-23.42,23.55-43.1,49.56-59.96,77.8c-44.16,71.77-66.66,155.7-64.87,240.27
			c0.48,32.88,4.85,65.84,13.36,97.94c9.29,40.14,24.79,79,46.49,116.6c21.71,37.6,47.62,70.45,77.73,98.57
			c0.33,0.58,0.33,0.58,0.67,1.15c23.79,22.51,49.56,43.1,77.47,59.38c72.68,44.41,156.28,66.32,240.85,64.53
			c32.89-0.47,65.26-4.52,97.36-13.02l0.58-0.33c40.14-9.29,79.58-25.12,116.6-46.49c37.6-21.71,69.87-47.28,97.99-77.4l0.58-0.33
			c23.42-23.55,43.11-49.56,59.96-77.81l0.58-0.33c43.83-72.35,65.74-155.95,63.96-240.51c-0.14-32.31-4.52-65.26-13.03-97.36
			c-9.29-40.14-25.12-79.58-46.83-117.17c-21.7-37.59-47.61-70.45-77.73-98.56c-23.55-23.42-49.89-43.68-78.14-60.54
			c-72.35-43.83-155.37-66.08-239.94-64.29l-0.58,0.33c-32.89,0.48-65.26,4.52-97.36,13.03l-0.58,0.33
			c-40.14,9.29-78.42,24.45-116.02,46.16C1159.45,958.13,1126.02,984.37,1097.9,1014.49z M1729.88,1144.71
			c98.51,170.62,39.84,389.58-130.78,488.09c-171.2,98.84-389.58,39.84-488.09-130.79s-40.42-389.24,130.78-488.09
			C1412.41,915.42,1631.37,974.09,1729.88,1144.71z"/><path fill="#fff" d="M1241.86,1013.52c138.23-79.81,308.4-56.21,420.2,46.59c16.13,14.59,30.87,30.76,43.62,48.85
			c9.33,10.81,16.92,22.62,24.27,35.35c1.67,2.89,3.34,5.79,4.43,9.01c23.13,41.4,35.91,84.92,41.25,128.88
			c14.57,128.09-41.35,258.31-152.26,334.69c-7.76,5.25-16.1,10.84-24.2,15.52c-16.77,9.68-33.64,17.88-50.92,24
			c-161.42,62.35-348.34-0.93-437.17-154.79C1012.57,1330.98,1070.66,1112.37,1241.86,1013.52z"/><path fill="#ffbf00" d="M1598.57,1634.23c37.3-20.86,70.59-48.04,98.4-80.07c-21.49-89.76-46.78-163.3-46.78-163.3
						s-0.21,0.21-0.42,0.63l-20.02,43.62c-0.21,0.42-0.21,0.63-0.42,1.05l-54.36,117.36l16.01,84.7L1598.57,1634.23z"/><path fill="#ffbf00" d="M1249.86,1637.39l15.8-83.86l-70.17-151.5c-0.42-1.05-0.84-2.11-1.26-2.95c-0.84-1.9-1.47-3.58-2.11-4.85
						l-1.47-3.37c0,0-24.86,72.48-46.57,161.61c28.66,33.5,63.42,61.95,102.4,83.23L1249.86,1637.39z"/><path fill="#ffbf00" d="M1246.48,1635.71v-1.69c0-99.66-37.51-199.54-50.99-231.99c-0.42-1.05-0.84-2.11-1.26-2.95
					c-0.84-1.9-1.47-3.58-2.11-4.85l-1.47-3.37c140.96-86.18,318.38-86.18,459.55,0c0,0-0.21,0.21-0.42,0.63
					c-1.9,2.95-10.54,17.07-20.02,43.62c-0.21,0.42-0.21,0.63-0.42,1.05c-9.69,26.34-20.23,64.48-26.34,115.47
					c-2.53,21.28-4,49.94-4.42,82.6c-2.53,1.47-5.06,2.74-7.59,4c-50.78,26.76-108.51,41.93-169.83,41.93
					c-61.95,0-120.31-15.38-171.3-42.77L1246.48,1635.71z"/><path fill="#f4c99a" d="M1503.58,1162.48c6.83,123.58-36.7,179.47-81.97,179.47c-45.27,0-92.53-65.83-81.97-179.47
							c6-64.54,36.7-55.27,81.97-55.27C1466.88,1107.21,1500.01,1097.76,1503.58,1162.48z"/><path fill="#f4c99a" d="M1497.37,1208.12c0-0.93,20.18-36.95,21.42-12.73c1.24,24.22-8.69,54.65-17.08,59.31
							c-8.38,4.66-7.45-26.39-7.45-26.39L1497.37,1208.12z"/><path fill="#f4c99a" d="M1344.48,1208.12c0-0.93-20.18-36.95-21.42-12.73c-1.24,24.22,8.69,54.65,17.08,59.31
							c8.38,4.66,7.45-26.39,7.45-26.39L1344.48,1208.12z"/><path fill="#353434" d="M1326.58,1187.06c0,0,13.28,24.92,17.1,37.28l1.55-66.21c0,0,21.74,14.9,51.54,1.24
						c29.81-13.66,84.87-20.29,84.87-20.29c2.08,12.93,6.5,24.54,12.6,35.19v54.03c0,0,6.02-27.94,14.82-37.57
						c0,0,8.6-62.83-9.62-77.73c0,0-4.97-64.58-88.18-52.58c-83.21,12.01-88.02,68.31-88.31,88.6
						C1322.67,1169.31,1326.58,1187.06,1326.58,1187.06z"/><path fill="#f4c99a" d="M1419.44,1379.83L1419.44,1379.83c-30.7,0-55.58-24.88-55.58-55.58v-25.77h111.16v25.77
						C1475.02,1354.95,1450.13,1379.83,1419.44,1379.83z"/></g><g><rect width="93.13" height="81.49" x="2622.91" y="2811.57" fill="#f4c99a" transform="matrix(-.00427 -1 1 -.00427 -171.415 5533.935)"/><path fill="#353434" d="M2714.24,2948.7l-193.59,0.83c-2.91,0.01-4.62-2.53-5.57-6.2c-3.6-13.9,5.56-27.93,18.4-30
					c23.65-3.81,59.14-21.75,92.96-48.81c0.8-0.64,1.77-1,2.76-1l79.52-0.34c2.49-0.01,4.59,2.09,4.84,4.85l6.79,73.11
					C2720.71,2945.18,2717.87,2948.68,2714.24,2948.7z"/><rect width="93.13" height="81.49" x="2399.24" y="2812.04" fill="#f4c99a" transform="rotate(-90.245 2445.8 2852.79) scale(1.00001)"/><path fill="#353434" d="M2490.56,2949.17l-193.59,0.83c-2.91,0.01-4.62-2.53-5.57-6.2c-3.6-13.9,5.56-27.93,18.4-30
					c23.65-3.81,59.14-21.75,92.96-48.81c0.8-0.64,1.77-1,2.76-1l79.52-0.34c2.49-0.01,4.59,2.09,4.84,4.85l6.79,73.11
					C2497.03,2945.66,2494.2,2949.16,2490.56,2949.17z"/><path fill="#353434" d="M2678.9,1987.54c-2.77-22.99-5.21-42.15-7.15-56.29c-2.36-17.75-3.8-27.67-3.8-27.67l-117.41,15.23
					l0.06-2.28l-163-11.83c0,0-0.88,9.98-2.23,27.84c-1.14,14.23-2.48,33.5-3.95,56.6c-6.4,102.49,7.69,850.61,7.69,850.61
					l112.76-1.53l36.47-593.28l73.48,596.17l105.84-0.05C2717.67,2841.08,2691.08,2089.51,2678.9,1987.54z"/><path fill="#f4c99a" d="M1904.11,1656.96c13.71,3.45,39.56-0.21,61.13-5.53c17.07-5.89,28.25-12.74,34.93-20.17
				c2.56-0.95,4.16-1.64,4.16-1.64c0.35-0.6,14.08-2.78,34.56-5.5l-13.9-51.45c-15.64,5.5-25.99,8.81-25.99,8.81
				c-12.6-17.3-31.21-17.13-31.21-17.13s-31.93-4.66-38.33-7.54c-6.4-2.87-13.14,10.96,6.54,16.64c7.4,1.83,12.24,4.62,15.22,7.13
				l-0.45,7.79c-0.95,0.26-2.21,0.34-4.07,0.07c-10.43-0.76-63.54,1.32-77.18,1.94c-2.99,0.3-6.02,1.37-7.71,3.62
				c-2.65,2.51-3.35,6.53,9.93,9.33c18.39,3.72,42.54,2.31,50.07,1.81c-11.99,1.96-63.26,9.93-59.73,16.39
				c3.06,6.59,39.25,5.24,47.39,5.09c-5.37,0.94-22.39,3.24-29.58,5.95c-8.62,3.09-7.3,9.89,8.03,9.84
				c15.33-0.05,31.6-0.36,31.6-0.36S1880.05,1651.18,1904.11,1656.96z"/><path fill="#e63a48" d="M2672.57,1568.47l24.01,399.09c1.34,12.01-324.56,10.2-324.13,6.97c4.89-37.09-9.73-431.74-9.73-431.74
						l-143.77,48.15l-199.73,45.9l-14.45-71.49l212.43-68.36c0,0,149.26-96.41,151.16-97.71c21.24-14.55,46.05-22.68,71.13-27.65
						c63.99-12.68,136.63-9.7,204.73,10.02c55.33,16.02,97.95,60.38,115.19,115.34L2672.57,1568.47z"/><path fill="#f4c99a" d="M2524.51,1925.25c0.36-0.36,1.09-0.36,1.45-0.73c-1.45,4.72-3.27,9.45-4.36,14.17
				c-0.36-0.36-0.36-0.73-0.73-1.09C2517.61,1933.25,2519.43,1927.44,2524.51,1925.25z"/><path fill="#f4c99a" d="M2488.84,1362.22c-0.43-7.25-0.73-12.44-0.73-12.44s-35.34-6.13-38.75-7.8
					c-6.79-3.33-16.82-26.34-16.94-53.48c-0.12-27.14,2.79-54.58,4.07-65.92c1.29-11.33,6.49-57.02,49.59-72.26
					c43.1-15.24,97.98,8.39,111.04,51.18c13.06,42.78,5.36,75.1-3.16,87.6c-8.52,12.5-15.87,34.83-17.15,43.56
					c-0.5,3.42-0.6,14.51-0.53,26.72c0.13,22.89-17.42,42-40.23,43.85l0,0C2511.61,1405.21,2490.31,1386.71,2488.84,1362.22z"/><path fill="#353434" d="M2572.46,1250.78c-3.51,4.67-8.24,15.6-8.24,15.6c-6.4-8.09-13.18-60.11-6.23-73.5
					c-3.27,9.16-77.33-8.31-96.46-14.45c-3.98-1.28-9.39,0.1-12.01,4.23c-2.82,4.46-10.29,26.34-11.98,32.02
					c-0.47-8.37,0.19-16.43,0.43-24.77c0.23-7.9-23.35-39.05-11.82-53.62c16.74-21.17,108.79-5.46,119.84-2.62
					c12.15,3.12,49.83,19.79,51.87,37.41c13.56,7.91,22.82,16.95,19.87,43.45c-1.42,12.77-3.39,25.59-5.26,38.34
					c-1.85,12.66-6.75,23.19-11.6,34.95c-4.15,10.05-9.13,19.69-13.59,29.58c-0.79,1.75-7.07,16.22-10.41,14.88
					c-0.56-0.23-3.84-13.41-4.62-16.79c-1.24-5.36-0.75-10.68-0.51-16.06c0.09-2.01-0.24-4.38,0.8-6.2c1.62-2.85,5.14-2.23,7.88-2.8
					c8.7-1.8,13.52-10.1,15.25-18.2c1.87-8.75,2.01-20.43-7.48-24.84c-4.93-2.29-11.43-1.4-15.18,2.71
					C2572.83,1250.31,2572.64,1250.54,2572.46,1250.78z"/><path fill="#6a6a6d" d="M2661.22,1942.51l-33.35,62.38c-4.98,9.31-16.56,12.82-25.88,7.85l-761.72-404.3
						c-9.31-4.98-12.83-16.57-7.85-25.88l33.35-62.38c4.98-9.32,16.57-12.83,25.88-7.85l761.73,404.3
						C2662.68,1921.61,2666.19,1933.19,2661.22,1942.51z"/><rect width="38.62" height="185.35" x="1792.3" y="1438.65" fill="#6a6a6d" transform="rotate(-61.869 1811.482 1531.269)"/><path fill="#6a6a6d" d="M1600.27,1023.33c167.54,89.57,232.15,297.48,145.92,465.94c-0.91,1.85-1.89,3.67-2.89,5.55
						c-0.98,1.82-1.98,3.7-3.01,5.48c-92.17,165.37-300.95,227.11-468.54,137.52c-169.41-90.57-233.6-302.08-143-471.55
						C1219.32,996.86,1430.85,932.76,1600.27,1023.33z M1584.3,1053.2c-152.96-81.78-343.91-23.91-425.69,129.05
						c-81.77,152.96-23.86,343.94,129.1,425.71c152.96,81.78,343.94,23.86,425.71-129.1
						C1795.2,1325.9,1737.26,1134.97,1584.3,1053.2z"/><path fill="#ecf0f1" d="M1148.29,1457.64c52.8,119.57,177.25,198.07,314.76,186.22c105.32-9.09,194.02-69.09,243.95-153.71
						c20.07-34.02,33.86-71.99,39.96-112.23c3.66-24.11,4.53-49.03,2.34-74.39c-0.31-3.51-0.65-6.99-1.07-10.43
						c-3.86-32.19-12.46-62.71-25.07-90.93c-53.13-118.82-177.16-196.71-314.17-184.9c-116.4,10.05-212.49,82.27-258.4,181.15
						c-13.13,28.31-22.14,58.79-26.35,90.64c-2.27,17.14-3.15,34.67-2.5,52.46c0.18,5.34,0.5,10.69,0.96,16.06
						C1125.79,1393.11,1134.65,1426.74,1148.29,1457.64z" opacity=".5"/><g><path fill="#f4c99a" d="M2591.02,1941.52c12.63-6.36,29.78-26.05,42.6-44.19c9.05-15.62,13.02-28.12,13.21-38.11
					c1.32-2.39,2.07-3.96,2.07-3.96c-0.13-0.69,8.83-11.31,22.53-26.77l-44.19-29.8c-8.22,14.39-13.88,23.67-13.88,23.67
					c-20.85-4.84-34.81,7.47-34.81,7.47s-27.19,17.37-33.92,19.39c-6.72,2.01-2.76,16.89,15.83,8.3c6.79-3.45,12.27-4.52,16.17-4.57
					l4.76,6.19c-0.55,0.82-1.45,1.7-3.03,2.72c-8.38,6.25-47.18,42.58-57.09,51.97c-2.06,2.18-3.66,4.98-3.46,7.78
					c-0.36,3.63,1.74,7.13,13.61,0.56c16.34-9.22,33.68-26.1,39.05-31.4c-7.79,9.33-41.33,48.91-34.44,51.48
					c6.62,2.98,33.1-21.72,39.16-27.17c-3.45,4.23-14.81,17.1-18.47,23.86c-4.49,7.98,0.96,12.26,12.51,2.19
					c11.56-10.07,23.66-20.95,23.66-20.95S2569.05,1952.89,2591.02,1941.52z"/><path fill="#e63a48" d="M2687.64,1627.13c-0.24,0.52-83.56,183.93-83.77,184.41c0.31,0.62,66,54.01,66.37,54.58l0.75,0.61
						l0.5-0.82l117.8-193.54c0.69,0.25-122.51,194.91-117.99,192.45c0.19,0.47-67.88-56.58-65.84-53.2
						C2605.46,1811.63,2687.64,1627.13,2687.64,1627.13L2687.64,1627.13z"/><path fill="#e63a48" d="M2759.4,1496.99l35.27,106.39c7.56,22.79,5.61,47.66-5.38,69l-118.51,193.1l-65.99-54.14l82.86-184.2
						l-33.21-96.69L2759.4,1496.99z"/></g></g><g><rect width="10.16" height="56.13" x="1411.06" y="1012.56" fill="#e63a48"/><rect width="10.16" height="56.13" x="1231.45" y="1193.91" fill="#e63a48" transform="rotate(-90 1236.528 1221.974)"/><rect width="10.16" height="56.13" x="1412.8" y="1373.53" fill="#e63a48" transform="rotate(-180 1417.884 1401.588)"/><rect width="10.16" height="56.13" x="1592.42" y="1192.17" fill="#e63a48" transform="rotate(90 1597.499 1220.232)"/></g></svg>