<svg xmlns="http://www.w3.org/2000/svg" viewBox="0 0 1000 1000"><rect width="787.5" height="787.5" x="91.5" y="104.33" fill="#ffe05f"/><polygon fill="#fff" points="346.33 395.65 283.4 576.2 357.81 576.2 417.55 395.65 346.33 395.65"/><path d="M357.81,578.45H283.4a2.25,2.25,0,0,1-2.12-3l62.93-180.55a2.24,2.24,0,0,1,2.12-1.51h71.22a2.26,2.26,0,0,1,2.14,3L359.94,576.9A2.25,2.25,0,0,1,357.81,578.45ZM286.57,574h69.61L414.44,397.9H347.93Z"/><path fill="#fff" d="M488.77,384.45l-.22,1.38c-2.47-62.2-28.37-111.12-67.56-111.12-41.23,0-74.66,54.15-74.66,120.94S379.76,528.11,421,528.11c29.22,0,51.06-33,61.3-75.95,4.06,1.22,10.16,2.6,15.11,1.62a28.48,28.48,0,0,0,12.1-5.58Z"/><path d="M328,448.2c.16-15.68,3.77-53.41-2.25-82.55-14.72-71.17-26.22-86-9.37-101.64,18.76-17.36,121.82,1.56,121.82,1.56h0c-3.73,32.15-16.72,98.64-72,152.65A226.26,226.26,0,0,1,328,448.2Z"/><path d="M351,364.44S327.2,249,373.13,223.09c33.12-18.68,102.66,30.88,122.12,33.59,7.75,1.08,19.8-3.66,26.81.73,7.52,4.72,1.59,25.44-6.08,29.19,7.54-3.68,18-9.19,26.64-8.58,22.22,1.59,3.25,34.83-39.17,53.94C424.83,367.38,351,364.44,351,364.44Z"/><ellipse cx="371.46" cy="388.5" fill="#fff" rx="18.98" ry="36.58" transform="rotate(-14.5 371.526 388.585)"/><path d="M421,530.36c-15.45,0-30.49-8.7-43.51-25.15a2.25,2.25,0,0,1,3.53-2.79c12.14,15.33,26,23.44,40,23.44,13.25,0,25.35-7.05,36-21,9.93-13,17.93-31.43,23.13-53.26a2.25,2.25,0,0,1,2.84-1.63c5.7,1.72,10.55,2.26,14,1.57a26.16,26.16,0,0,0,9.89-4.21l-19.37-59.55a2.26,2.26,0,0,1-1.18-1.9C483.75,321.77,456.9,277,421,277c-39.93,0-72.41,53.25-72.41,118.69a2.25,2.25,0,0,1-4.5,0c0-32.72,7.89-63.5,22.21-86.7,14.52-23.53,33.95-36.49,54.7-36.49,19.64,0,36.75,11.54,49.49,33.35,11.55,19.78,18.7,47.21,20.21,77.48a2.26,2.26,0,0,1,.22.47l20.73,63.75a2.26,2.26,0,0,1-.75,2.46,30.65,30.65,0,0,1-13.05,6c-3.75.74-8.42.39-13.91-1C472.14,502.23,448.71,530.36,421,530.36Z"/><path d="M378.05,426.49c-4.88,0-10-2.79-14.78-8.08-5.43-6.06-9.82-14.79-12.36-24.59s-2.93-19.57-1.11-27.5c1.94-8.45,6.18-13.92,11.94-15.41s12.12,1.24,17.91,7.69c5.44,6,9.83,14.78,12.37,24.59a70.54,70.54,0,0,1,2.06,12.3,2.25,2.25,0,1,1-4.49.34,65.53,65.53,0,0,0-1.93-11.52c-2.36-9.11-6.39-17.18-11.35-22.71-4.62-5.13-9.39-7.39-13.44-6.33s-7.14,5.33-8.68,12.06c-1.66,7.24-1.28,16.24,1.08,25.36s6.39,17.18,11.35,22.71c4.61,5.14,9.39,7.39,13.44,6.34a2.25,2.25,0,1,1,1.13,4.35A12.35,12.35,0,0,1,378.05,426.49Z"/><path d="M480.39,440.08a23.24,23.24,0,0,1-4.76-.51c-12.54-2.66-21.61-13.27-26.23-30.68a101.58,101.58,0,0,1-3.22-25.13,2.28,2.28,0,0,1,2.28-2.21,2.23,2.23,0,0,1,2.21,2.29c0,.45-.46,45.73,25.9,51.32a15.56,15.56,0,0,0,13.15-2.74C502,423.31,506.1,397.69,507,390.31L380.15,365.54a2.25,2.25,0,0,1,.86-4.42l128.92,25.17a2.26,2.26,0,0,1,1.81,2.41c-.13,1.45-3.33,35.5-19.34,47.33A19.81,19.81,0,0,1,480.39,440.08Z"/><ellipse cx="474.86" cy="408.98" rx="10.46" ry="4.97" transform="rotate(-82.74 474.893 408.978)"/><path d="M469.87,490.15a2.43,2.43,0,0,1-.7-.11c-20.5-6.76-27.21-27.79-27.48-28.68A2.25,2.25,0,1,1,446,460c.08.26,6.37,19.73,24.59,25.73a2.25,2.25,0,0,1-.7,4.39Z"/><g data-name="Character 3"><path fill="#fff" d="M269.19,539.51S196,302.43,266.07,236.05c75.27-71.28,210,13,210,13l-121.6,290.5Z"/><path d="M354.42,541.76H269.19a2.24,2.24,0,0,1-2.15-1.59c-.18-.59-18.47-60.21-27.93-127.18-5.56-39.41-7-73.63-4.37-101.73,3.37-35.46,13.38-61.31,29.78-76.84,17.55-16.61,39.72-26.25,65.9-28.65,20.81-1.91,44.18.74,69.46,7.87,42.89,12.1,77,33.25,77.33,33.47a2.25,2.25,0,0,1,.89,2.77L356.5,540.38A2.26,2.26,0,0,1,354.42,541.76Zm-83.56-4.5h82.06L473.19,249.94c-7.22-4.29-37.61-21.57-74.62-32-24.73-7-47.54-9.55-67.79-7.69-25.13,2.31-46.38,11.55-63.16,27.44-28.12,26.62-36.43,87-24.05,174.67C252.12,472.9,267.91,527.38,270.86,537.26Z"/><polygon points="619.17 868.23 910.84 868.23 990.86 617.35 699.2 617.35 619.17 868.23"/><polygon points="495.11 891.45 903.95 891.45 910.84 868.23 888.23 868.23 502 868.23 495.11 891.45"/><polygon fill="#fff" points="889.87 870.48 619.17 870.48 619.17 865.98 886.58 865.98 966.11 616.66 970.39 618.03 889.87 870.48"/><path fill="#fff" d="M857.89,702H753.2a2.25,2.25,0,0,1,0-4.5H857.89a2.25,2.25,0,0,1,0,4.5Z"/><path fill="#fff" d="M807.1,750H766.83a2.25,2.25,0,1,1,0-4.5H807.1a2.25,2.25,0,0,1,0,4.5Z"/><path fill="#fff" d="M843.38,750H816a2.25,2.25,0,0,1,0-4.5h27.41a2.25,2.25,0,1,1,0,4.5Z"/><path fill="#fff" d="M844.7,734h-102a2.25,2.25,0,1,1,0-4.5h102a2.25,2.25,0,0,1,0,4.5Z"/><path fill="#fff" d="M884.39,718H747.69a2.25,2.25,0,0,1,0-4.5h136.7a2.25,2.25,0,0,1,0,4.5Z"/><path fill="#fff" d="M878.89,734H854a2.25,2.25,0,0,1,0-4.5h24.94a2.25,2.25,0,0,1,0,4.5Z"/><path fill="#fff" d="M792.26,781.21H727.5a2.25,2.25,0,0,1,0-4.5h64.76a2.25,2.25,0,0,1,0,4.5Z"/><path fill="#fff" d="M864.48,781.21h-63a2.25,2.25,0,0,1,0-4.5h63a2.25,2.25,0,0,1,0,4.5Z"/><path fill="#fff" d="M761.6,765.23H733a2.25,2.25,0,0,1,0-4.5H761.6a2.25,2.25,0,0,1,0,4.5Z"/><path fill="#fff" d="M869.58,765.23H770.85a2.25,2.25,0,1,1,0-4.5h98.73a2.25,2.25,0,0,1,0,4.5Z"/><circle cx="724.74" cy="699.75" r="3.67" fill="#fff"/><path fill="#fff" d="M851.41,815.68H746.72a2.25,2.25,0,0,1,0-4.5H851.41a2.25,2.25,0,0,1,0,4.5Z"/><circle cx="687.26" cy="813.43" r="3.67" fill="#fff"/><circle cx="719.24" cy="715.73" r="3.67" fill="#fff"/><circle cx="714.22" cy="731.71" r="3.67" fill="#fff"/><path fill="#fff" d="M824.33,798.4h-102a2.25,2.25,0,0,1,0-4.5h102a2.25,2.25,0,0,1,0,4.5Z"/><path fill="#fff" d="M858.52,798.4H833.59a2.25,2.25,0,0,1,0-4.5h24.93a2.25,2.25,0,0,1,0,4.5Z"/><circle cx="693.23" cy="796.15" r="3.67" fill="#fff"/><circle cx="709.3" cy="747.69" r="3.67" fill="#fff"/><path fill="#fff" d="M787.41,832.1H734.87a2.25,2.25,0,0,1,0-4.5h52.54a2.25,2.25,0,0,1,0,4.5Z"/><path fill="#fff" d="M823.69,832.1H796.27a2.25,2.25,0,0,1,0-4.5h27.42a2.25,2.25,0,0,1,0,4.5Z"/><circle cx="682.88" cy="829.85" r="3.67" fill="#fff"/><circle cx="704.55" cy="762.98" r="3.67" fill="#fff"/><circle cx="699.04" cy="778.96" r="3.67" fill="#fff"/><path fill="#fff" d="M793,801.32l-76.71-22.15a10.11,10.11,0,0,1-6.94-12.41h0a10.11,10.11,0,0,1,12.55-7l76.48,22.08a10.12,10.12,0,0,1,7.06,12.45h0A10.11,10.11,0,0,1,793,801.32Z"/><path d="M795.73,803.94a12.46,12.46,0,0,1-3.31-.45h0l-76.7-22.16a12.37,12.37,0,0,1-2.61-22.67,12.28,12.28,0,0,1,9.47-1.08L799,779.66a12.37,12.37,0,0,1-3.3,24.28Zm-2.1-4.78A7.87,7.87,0,0,0,797.8,784L721.3,761.9a7.86,7.86,0,0,0-9.76,5.46,7.89,7.89,0,0,0,5.4,9.65Z"/><path fill="#fff" d="M738,862.33l-35.3-22.85a10.12,10.12,0,0,1-3.12-13.79h0a10.12,10.12,0,0,1,14.11-3.19l34.9,22.6A10.12,10.12,0,0,1,751.92,859h0A10.11,10.11,0,0,1,738,862.33Z"/><path d="M743.28,866.08a12.27,12.27,0,0,1-6.45-1.83l-.05,0-35.3-22.85a12.43,12.43,0,0,1-3.81-16.85,12.36,12.36,0,0,1,17.25-3.91l34.9,22.6a12.36,12.36,0,0,1-6.54,22.87Zm-4.07-5.65A7.86,7.86,0,0,0,747.42,847l-34.94-22.63a7.87,7.87,0,0,0-11,2.48,7.92,7.92,0,0,0,2.43,10.72Z"/><rect width="80.88" height="20.23" x="696.61" y="815.38" fill="#fff" rx="10.11" transform="rotate(31.59 737 825.39)"/><path d="M762.86,853.75a12.3,12.3,0,0,1-6.45-1.84l-51.67-31.77a12.37,12.37,0,1,1,13-21.07l51.67,31.77a12.38,12.38,0,0,1,4.06,17,12.48,12.48,0,0,1-10.56,5.9Zm-51.63-52a7.86,7.86,0,0,0-4.13,14.56l51.67,31.77h0a7.87,7.87,0,0,0,10.82-2.58A7.88,7.88,0,0,0,767,834.68l-51.67-31.77A7.81,7.81,0,0,0,711.23,801.75Z"/><rect width="104.4" height="20.23" x="694.41" y="797.74" fill="#fff" rx="10.11" transform="rotate(31.59 746.558 807.758)"/><path d="M782.44,842.27a12.29,12.29,0,0,1-6.45-1.83h0l-71.71-44.09a12.37,12.37,0,1,1,13-21.07l71.7,44.09a12.37,12.37,0,0,1-6.5,22.9Zm-4.1-5.67a7.87,7.87,0,1,0,8.24-13.4l-71.7-44.09a7.87,7.87,0,0,0-8.24,13.4Z"/><path fill="#fff" d="M717.25,848.87h0a390.33,390.33,0,0,1-179.48,43.71l1.93-91.77a402.71,402.71,0,0,0,177.55-41.26h0Z"/><path d="M537.77,894.83a2.25,2.25,0,0,1-2.25-2.29l1.93-91.77a2.25,2.25,0,0,1,2.25-2.21,402.66,402.66,0,0,0,176.56-41,2.25,2.25,0,1,1,2,4A407.19,407.19,0,0,1,541.9,803.06l-1.83,87.27a389.75,389.75,0,0,0,176.14-43.46,2.25,2.25,0,1,1,2.07,4A394.11,394.11,0,0,1,537.77,894.83Z"/><path fill="#fff" d="M592.78,701.74l-63.44,49.08-11.85-16.4,63.44-49.08a10.12,10.12,0,0,1,14.12,2.27h0A10.11,10.11,0,0,1,592.78,701.74Z"/><path d="M529.34,753.07l-.32,0a2.29,2.29,0,0,1-1.5-.91l-11.85-16.4a2.24,2.24,0,0,1,.44-3.09l63.44-49.09a12.37,12.37,0,1,1,14.58,20L530.72,752.6A2.3,2.3,0,0,1,529.34,753.07Zm-8.75-18.2,9.22,12.75L591.41,700l.05-.05a7.86,7.86,0,0,0-3.35-14.13,7.79,7.79,0,0,0-5.86,1.39Z"/><path fill="#fff" d="M620.78,696,557.34,745l-11.85-16.39,63.44-49.09a10.11,10.11,0,0,1,14.12,2.28h0A10.1,10.1,0,0,1,620.78,696Z"/><path d="M557.34,747.28l-.32,0a2.29,2.29,0,0,1-1.5-.91L543.67,730a2.24,2.24,0,0,1,.44-3.09l63.44-49.09a12.41,12.41,0,0,1,17.33,2.74,12.38,12.38,0,0,1-2.75,17.24l-63.41,49.06A2.3,2.3,0,0,1,557.34,747.28Zm-8.75-18.2,9.21,12.75,61.61-47.66.05,0a7.86,7.86,0,0,0,1.77-11,7.88,7.88,0,0,0-11-1.76Z"/><path fill="#fff" d="M647.05,698.74,576.61,737.1,567.52,719,638,680.67a10.11,10.11,0,0,1,13.58,4.49h0A10.11,10.11,0,0,1,647.05,698.74Z"/><path d="M576.61,739.35a2.18,2.18,0,0,1-.67-.1,2.2,2.2,0,0,1-1.34-1.14L565.51,720a2.23,2.23,0,0,1,.93-3l70.44-38.36a12.36,12.36,0,0,1,17.36,14.89,12.23,12.23,0,0,1-6.15,7.14l-70.41,38.35A2.24,2.24,0,0,1,576.61,739.35ZM570.5,720l7.07,14L646,696.77l.07,0A7.86,7.86,0,0,0,639,682.68Z"/><path fill="#fff" d="M564.31,715.94a112.17,112.17,0,0,1,33.61-1.62L660,720.73a10.11,10.11,0,1,1-1.78,20.15l-64.43-6.59a15,15,0,0,0-16.45,13.36l-4.29,41h0a218.3,218.3,0,0,1-105.44,27.15H421.43V724H524.24Z"/><path d="M467.59,818H421.43a2.25,2.25,0,0,1-2.25-2.25V724a2.25,2.25,0,0,1,2.25-2.25H524l39.85-8h0a114,114,0,0,1,34.29-1.64l62.05,6.4a12.36,12.36,0,0,1-2.2,24.63l-64.47-6.6a12.77,12.77,0,0,0-14,11.36l-4.29,41a2.23,2.23,0,0,1-1.15,1.73A221.07,221.07,0,0,1,467.59,818Zm-43.91-4.5h43.91a216.7,216.7,0,0,0,103.33-26.3l4.17-39.82A17.28,17.28,0,0,1,594,732.05l64.43,6.59A7.86,7.86,0,0,0,659.78,723l-62.09-6.41a109.93,109.93,0,0,0-32.93,1.58l-.45-2.2.45,2.2-40.07,8.08a3.42,3.42,0,0,1-.45,0H423.68Z"/><path fill="#fff" d="M568.92,791.14l47.16-27.24a10.11,10.11,0,0,0,3.71-13.81h0A10.12,10.12,0,0,0,606,746.38L571.2,766.77Z"/><path d="M568.92,793.4a2.25,2.25,0,0,1-1.13-4.2L615,762a7.87,7.87,0,0,0-7.87-13.62l-34.76,20.38a2.25,2.25,0,0,1-2.27-3.88l34.77-20.39a12.37,12.37,0,1,1,12.38,21.41L570,793.09A2.18,2.18,0,0,1,568.92,793.4Z"/><path fill="#fff" d="M203.2,820.11H486.38L510.57,708.6H228.64a72.17,72.17,0,0,0-69.89,54.15h0A45.9,45.9,0,0,0,203.2,820.11Z"/><path d="M486.38,822.36H203.2a48.15,48.15,0,0,1-46.63-60.17,74.41,74.41,0,0,1,72.07-55.84H510.57a2.24,2.24,0,0,1,2.2,2.72L488.58,820.59A2.26,2.26,0,0,1,486.38,822.36ZM228.64,710.85a69.9,69.9,0,0,0-67.71,52.46,43.64,43.64,0,0,0,42.27,54.55H484.56l23.22-107Z"/><path fill="#fff" d="M323.24,596.89a87.94,87.94,0,0,0,55.83.49c4.78-1.59,8.55-3.4,10-5.59,5.11-8-3.32-12.87-7.51-20.12-6-10.44,8.53-11,10.65-17.8,3.14-10-12.74-12.48-21.88-15.34l-29-8.93-24.22,65.22Z"/><path d="M352.17,603.91A92.7,92.7,0,0,1,322.52,599h0L316.4,597a2.26,2.26,0,0,1-1.32-1.16A2.22,2.22,0,0,1,315,594l24.22-65.23a2.26,2.26,0,0,1,2.77-1.36L371,536.38c1.35.42,2.84.83,4.43,1.27,7.25,2,15.47,4.27,18.39,9.62a9,9,0,0,1,.54,7.27c-1.05,3.36-4.17,5.37-6.93,7.15-4.56,2.94-6.48,4.43-3.92,8.86a42.87,42.87,0,0,0,3.89,5.3c3.82,4.7,8.15,10,3.58,17.15-1.59,2.47-5,4.48-11.15,6.52A87.75,87.75,0,0,1,352.17,603.91ZM324,594.76a86.13,86.13,0,0,0,54.4.48c6.07-2,8.12-3.65,8.78-4.67,2.69-4.19.72-7-3.28-11.88a45.65,45.65,0,0,1-4.29-5.89c-4.82-8.33,1.32-12.28,5.37-14.9,2.33-1.49,4.52-2.9,5.08-4.7a4.61,4.61,0,0,0-.2-3.78c-2-3.67-9.57-5.76-15.64-7.44-1.62-.44-3.15-.87-4.56-1.31l-26.91-8.3L320,593.43l3.93,1.33Z"/><path fill="#fff" d="M11.16,892S183,526.56,323.48,526.56c86.55,0-50.3,365.41-50.3,365.41Z"/><path d="M273.17,894.22a2.38,2.38,0,0,1-.78-.14,2.25,2.25,0,0,1-1.32-2.9c1.1-2.95,110-295.66,70.16-353.14-4.31-6.21-10.11-9.23-17.75-9.23-31.46,0-67.29,19-106.52,56.46-31.61,30.18-65.4,72.31-100.44,125.2C56.78,800.64,13.62,892,13.19,892.93A2.25,2.25,0,0,1,9.12,891c.43-.91,43.71-92.55,103.62-183C148,654.84,182,612.45,213.84,582c40.1-38.3,77-57.72,109.64-57.72a24.77,24.77,0,0,1,21.45,11.17c17.4,25.09,10.91,92.94-19.26,201.66C303.3,817.71,275.56,892,275.28,892.76A2.25,2.25,0,0,1,273.17,894.22Z"/><path fill="#fff" d="M222,903.33H562.6l24.19-111.52H247.48A72.18,72.18,0,0,0,177.59,846h0A45.9,45.9,0,0,0,222,903.33Z"/><path d="M562.6,905.58H222a48.16,48.16,0,0,1-46.63-60.17,74.43,74.43,0,0,1,72.07-55.85H586.79a2.24,2.24,0,0,1,2.19,2.73L564.8,903.81A2.26,2.26,0,0,1,562.6,905.58ZM247.48,794.06a69.92,69.92,0,0,0-67.71,52.47A43.65,43.65,0,0,0,222,901.08H560.78l23.22-107Z"/><path fill="#fff" d="M793.55,678.84a2.29,2.29,0,0,1-1.71-.78L777.5,661.31A2.25,2.25,0,0,1,778,658l25.37-16.19a2.25,2.25,0,1,1,2.42,3.8L782.6,660.35l12.66,14.78a2.25,2.25,0,0,1-.24,3.17A2.28,2.28,0,0,1,793.55,678.84Z"/><path fill="#fff" d="M830.4,678.84a2.25,2.25,0,0,1-1.31-4.08l23.24-16.51-12.54-13A2.25,2.25,0,1,1,843,642.1L857.38,657a2.23,2.23,0,0,1,.62,1.77,2.21,2.21,0,0,1-.94,1.62l-25.36,18A2.25,2.25,0,0,1,830.4,678.84Z"/><path fill="#fff" d="M812.13,678.27a2.16,2.16,0,0,1-.71-.12,2.24,2.24,0,0,1-1.42-2.84l11-32.94a2.25,2.25,0,1,1,4.27,1.43l-11,32.93A2.24,2.24,0,0,1,812.13,678.27Z"/><path fill="#fff" d="M334.93,526.75c-32.48-2.83-74.41,26.34-94.47,95.1L169.22,834.23a54.47,54.47,0,0,0,52.23,68l2.81-2.06c37.94.38,70.62-23.33,79.65-60.18L371.36,627.9c20.16-61.83-3.18-98.26-36.43-101.15"/><path d="M222,905.58h0a58,58,0,0,1-55-71.91s0-.1.05-.16l71.24-212.37a2.25,2.25,0,1,1,4.26,1.43l-71.21,212.3a53.52,53.52,0,0,0,50.68,66.21,2.25,2.25,0,0,1,0,4.5Z"/><path d="M303.91,842.21a2.33,2.33,0,0,1-.68-.1,2.25,2.25,0,0,1-1.46-2.83l67.45-212.06c10.62-32.58,9.77-60.65-2.39-79A42.2,42.2,0,0,0,334.74,529c-16.45-1.43-34.2,5.64-50,19.92a2.25,2.25,0,0,1-3-3.33c16.71-15.13,35.66-22.62,53.38-21.08a46.65,46.65,0,0,1,35.45,21.2c12.94,19.56,14,49,2.92,82.89l-67.44,212A2.26,2.26,0,0,1,303.91,842.21Z"/></g></svg>